SplineFontDB: 3.2
FontName: D-DIN-PRO-Bold-Italic
FullName: D-DIN-PRO-Bold-Italic
FamilyName: D-DIN-PRO
Weight: Bold
Copyright: Copyright (c) CyberFei. All rights reserved
Version: 1.1.0
ItalicAngle: -13
UnderlinePosition: -150
UnderlineWidth: 50
Ascent: 831
Descent: 169
InvalidEm: 0
sfntRevision: 0x00010000
LayerCount: 2
Layer: 0 0 "Back" 1
Layer: 1 0 "Fore" 0
XUID: [1021 868 -1451673819 12733]
StyleMap: 0x0020
FSType: 4
OS2Version: 3
OS2_WeightWidthSlopeOnly: 0
OS2_UseTypoMetrics: 0
CreationTime: 1462909513
ModificationTime: 1778060079
PfmFamily: 17
TTFWeight: 700
TTFWidth: 5
LineGap: 86
VLineGap: 0
Panose: 2 11 8 4 3 2 2 3 2 4
OS2TypoAscent: 831
OS2TypoAOffset: 0
OS2TypoDescent: -169
OS2TypoDOffset: 0
OS2TypoLinegap: 86
OS2WinAscent: 902
OS2WinAOffset: 0
OS2WinDescent: 184
OS2WinDOffset: 0
HheadAscent: 831
HheadAOffset: 0
HheadDescent: -169
HheadDOffset: 0
OS2SubXSize: 650
OS2SubYSize: 600
OS2SubXOff: 0
OS2SubYOff: 75
OS2SupXSize: 650
OS2SupYSize: 600
OS2SupXOff: 0
OS2SupYOff: 350
OS2StrikeYSize: 50
OS2StrikeYPos: 312
OS2CapHeight: 690
OS2XHeight: 520
OS2Vendor: 'MONO'
OS2CodePages: 20000001.00000000
OS2UnicodeRanges: 8000006f.4000000a.00000000.00000000
Lookup: 1 0 0 "'aalt' Access All Alternates lookup 0" { "'aalt' Access All Alternates lookup 0 subtable"  } ['aalt' ('DFLT' <'dflt' > ) ]
Lookup: 1 0 0 "'sups' Superscript lookup 1" { "'sups' Superscript lookup 1 subtable" ("superior") } ['sups' ('DFLT' <'dflt' > ) ]
Lookup: 4 0 0 "'frac' Diagonal Fractions lookup 2" { "'frac' Diagonal Fractions lookup 2 subtable"  } ['frac' ('DFLT' <'dflt' > ) ]
Lookup: 6 0 0 "'ordn' Ordinals lookup 3" { "'ordn' Ordinals lookup 3 contextual 0"  "'ordn' Ordinals lookup 3 contextual 1"  } ['ordn' ('DFLT' <'dflt' > ) ]
Lookup: 4 0 0 "'dlig' Discretionary Ligatures lookup 4" { "'dlig' Discretionary Ligatures lookup 4 subtable"  } ['dlig' ('DFLT' <'dflt' > ) ]

StartChar: .notdef
Encoding: 65536 -1 0
Width: 600
GlyphClass: 1
Flags: MW
HStem: 0 34<58.583 387.583 58.583 413.733> 656 34<202.183 531.183 202.183 202.183>
LayerCount: 2
Fore
SplineSet
176.032226562 690 m 1
 573.032226562 690 l 1
 413.733398438 0 l 1
 16.7333984375 0 l 1
 176.032226562 690 l 1
387.583007812 34 m 1
 531.182617188 656 l 1
 202.182617188 656 l 1
 58.5830078125 34 l 1
 387.583007812 34 l 1
EndSplineSet
EndChar

StartChar: exclam
Encoding: 33 33 3
Width: 249
GlyphClass: 2
Flags: MW
HStem: 0 130<4.74609 105.733 -25.2666 135.746> 670 20G<129.032 270.032 270.032 270.032>
VStem: -25.2666 295.299
LayerCount: 2
Fore
SplineSet
129.032226562 690 m 1
 270.032226562 690 l 1
 139.833007812 230 l 1
 46.8330078125 230 l 1
 129.032226562 690 l 1
4.74609375 130 m 1
 135.74609375 130 l 1
 105.733398438 0 l 1
 -25.2666015625 0 l 1
 4.74609375 130 l 1
EndSplineSet
EndChar

StartChar: quotedbl
Encoding: 34 34 4
Width: 381
GlyphClass: 2
Flags: MW
HStem: 392 298<113.032 161.233 44.2334 230.032 113.032 233.233 302.032 349.233>
LayerCount: 2
Fore
SplineSet
113.032226562 690 m 1
 230.032226562 690 l 1
 161.233398438 392 l 1
 44.2333984375 392 l 1
 113.032226562 690 l 1
302.032226562 690 m 1
 418.032226562 690 l 1
 349.233398438 392 l 1
 233.233398438 392 l 1
 302.032226562 690 l 1
EndSplineSet
EndChar

StartChar: numbersign
Encoding: 35 35 5
Width: 539
GlyphClass: 2
Flags: MW
HStem: 0 21G<-19.2666 83.7334 -19.2666 -19.2666 189.733 293.733 189.733 189.733> 204 92<2.07031 54.8301 -19.1699 88.0703 191.07 263.83 2.07031 157.83 401.07 458.83> 406 92<73.7051 128.466 52.4658 161.705 73.7051 231.466 264.705 337.466 473.705 530.466> 670 20G<231.032 334.032 334.032 334.032 440.032 543.032 543.032 543.032>
LayerCount: 2
Fore
SplineSet
440.465820312 406 m 1
 401.0703125 296 l 1
 480.0703125 296 l 1
 458.830078125 204 l 1
 367.830078125 204 l 1
 293.733398438 0 l 1
 189.733398438 0 l 1
 263.830078125 204 l 1
 157.830078125 204 l 1
 83.7333984375 0 l 1
 -19.2666015625 0 l 1
 54.830078125 204 l 1
 -19.169921875 204 l 1
 2.0703125 296 l 1
 88.0703125 296 l 1
 128.465820312 406 l 1
 52.4658203125 406 l 1
 73.705078125 498 l 1
 161.705078125 498 l 1
 231.032226562 690 l 1
 334.032226562 690 l 1
 264.705078125 498 l 1
 370.705078125 498 l 1
 440.032226562 690 l 1
 543.032226562 690 l 1
 473.705078125 498 l 1
 551.705078125 498 l 1
 530.465820312 406 l 1
 440.465820312 406 l 1
337.465820312 406 m 1
 231.465820312 406 l 1
 191.0703125 296 l 1
 297.0703125 296 l 1
 337.465820312 406 l 1
EndSplineSet
EndChar

StartChar: dollar
Encoding: 36 36 6
Width: 502
GlyphClass: 2
Flags: MW
HStem: -59.999 196<175.462 198.879 95.8789 219.795> 34.001 102<175.462 220.581> 561 179<280.574 299.583>
VStem: -2.8623 115<227.001 227.001> 351.318 118<479 479>
LayerCount: 2
Fore
SplineSet
348.896484375 96 m 0xb8
 314.17578125 64 271.40234375 43.333984375 220.581054688 34.0009765625 c 1x78
 198.87890625 -59.9990234375 l 1
 95.87890625 -59.9990234375 l 1
 117.119140625 32.0009765625 l 1
 68.8125 39.333984375 34.2119140625 59.833984375 13.3173828125 93.5009765625 c 0
 -7.5771484375 127.16796875 -12.9697265625 171.66796875 -2.8623046875 227.000976562 c 1
 112.137695312 227.000976562 l 1
 108.442382812 193.66796875 112.849609375 170.16796875 125.361328125 156.500976562 c 0
 137.873046875 142.833984375 159.795898438 136.000976562 191.12890625 136.000976562 c 0
 248.461914062 136.000976562 283.130859375 162.000976562 295.135742188 214.000976562 c 0
 300.5234375 237.333984375 298.97265625 255.166992188 290.487304688 267.5 c 0
 282.001953125 279.833007812 265.630859375 288.333007812 241.375976562 293 c 2
 194.453125 302 l 2
 140.76171875 312 103.6875 331.166992188 83.228515625 359.5 c 0
 62.76953125 387.833007812 58.3115234375 427 69.85546875 477 c 0
 81.2451171875 526.333007812 103.966796875 567 138.021484375 599 c 0
 172.076171875 631 213.514648438 651.666992188 262.3359375 661 c 1
 280.57421875 740 l 1
 383.57421875 740 l 1
 365.10546875 660 l 1
 406.284179688 650.666992188 435.961914062 630.5 454.137695312 599.5 c 0
 472.314453125 568.5 477.374023438 528.333007812 469.318359375 479 c 1
 351.318359375 479 l 1
 355.26953125 507.666992188 352.079101562 528.5 341.747070312 541.5 c 0
 331.416015625 554.5 312.916015625 561 286.249023438 561 c 0
 261.58203125 561 241.08203125 554.5 224.747070312 541.5 c 0
 208.413085938 528.5 197.474609375 510 191.93359375 486 c 0
 187.008789062 464.666992188 189.494140625 448 199.390625 436 c 0
 209.287109375 424 227.953125 415.333007812 255.388671875 410 c 2
 309.849609375 399 l 2
 357.694335938 389.666992188 390.80859375 370.666992188 409.190429688 342 c 0
 427.571289062 313.333007812 430.991210938 274 419.447265625 224 c 0
 407.134765625 170.666992188 383.6171875 128 348.896484375 96 c 0xb8
207.030273438 690.000976562 m 1024
EndSplineSet
EndChar

StartChar: percent
Encoding: 37 37 7
Width: 904
GlyphClass: 2
Flags: MW
HStem: -5.99902 88.998<656.896 666.35> 264 89<165.23 174.684> 337.998 88.002<721.085 729.434> 608 88<229.418 237.768>
LayerCount: 2
Fore
SplineSet
57.83984375 301.5 m 0xd0
 41.9443359375 326.5 39.693359375 363.666992188 51.0830078125 413 c 2
 83.8662109375 555 l 2
 94.6396484375 601.66796875 114.258789062 636.834960938 142.72265625 660.5 c 0
 171.186523438 684.166992188 207.41796875 696 251.41796875 696 c 0
 297.41796875 696 328.557617188 684.333007812 344.837890625 661 c 0
 361.1171875 637.665039062 363.79296875 602.33203125 352.866210938 555 c 2
 320.083007812 413 l 2
 308.693359375 363.666992188 289.279296875 326.5 261.840820312 301.5 c 0
 234.40234375 276.5 197.68359375 264 151.68359375 264 c 0
 105.016601562 264 73.7353515625 276.5 57.83984375 301.5 c 0xd0
671.1875 695 m 1
 770.1875 695 l 1
 223.734375 0 l 1
 125.734375 0 l 1
 671.1875 695 l 1
201.231445312 366 m 0
 206.565429688 374.666992188 212.234375 392.000976562 218.237304688 418.000976562 c 2
 246.865234375 542.000976562 l 2
 252.713867188 567.333984375 254.881835938 584.666992188 253.370117188 594 c 0
 251.857421875 603.333007812 244.434570312 608 231.1015625 608 c 0
 217.768554688 608 208.024414062 603.333007812 201.870117188 594 c 0
 195.71484375 584.666015625 189.712890625 567.333007812 183.864257812 542 c 2
 155.237304688 418 l 2
 149.541992188 393.333007812 147.450195312 376.333007812 148.962890625 367 c 0
 150.474609375 357.666992188 158.23046875 353 172.23046875 353 c 0
 186.23046875 353 195.897460938 357.333007812 201.231445312 366 c 0
549.506835938 31.5009765625 m 0
 533.611328125 56.5009765625 531.359375 93.666015625 542.749023438 142.999023438 c 2
 575.532226562 284.999023438 l 2
 586.306640625 331.666015625 605.924804688 366.833007812 634.388671875 390.5 c 0
 662.853515625 414.166992188 699.084960938 426 743.084960938 426 c 0xb0
 789.084960938 426 820.224609375 414.333007812 836.504882812 391 c 0
 852.78515625 367.666992188 855.459960938 332.333984375 844.533203125 285.000976562 c 2
 811.749023438 143.000976562 l 2
 800.360351562 93.66796875 780.946289062 56.5009765625 753.5078125 31.5009765625 c 0
 726.069335938 6.5009765625 689.349609375 -5.9990234375 643.349609375 -5.9990234375 c 0
 596.682617188 -5.9990234375 565.40234375 6.5009765625 549.506835938 31.5009765625 c 0
692.8984375 95.9990234375 m 0
 698.232421875 104.666015625 703.900390625 121.998046875 709.903320312 147.998046875 c 2
 738.530273438 271.998046875 l 2
 744.379882812 297.33203125 746.547851562 314.665039062 745.036132812 323.998046875 c 0
 743.5234375 333.331054688 736.100585938 337.998046875 722.767578125 337.998046875 c 0
 709.434570312 337.998046875 699.690429688 333.331054688 693.536132812 323.998046875 c 0
 687.380859375 314.665039062 681.379882812 297.33203125 675.53125 271.999023438 c 2
 646.903320312 147.999023438 l 2
 641.208984375 123.33203125 639.1171875 106.33203125 640.62890625 96.9990234375 c 0
 642.141601562 87.666015625 649.896484375 82.9990234375 663.896484375 82.9990234375 c 0
 677.896484375 82.9990234375 687.564453125 87.33203125 692.8984375 95.9990234375 c 0
EndSplineSet
EndChar

StartChar: ampersand
Encoding: 38 38 8
Width: 598
GlyphClass: 2
Flags: MW
HStem: -11.001 107<112.19 184.227> -0.000976562 21G<408.063 419.729 419.729 467.729> 604.999 96.001<325.57 328.072>
LayerCount: 2
Fore
SplineSet
470.435546875 107 m 2xa0
 492.432617188 106.999023438 l 1
 467.729492188 -0.0009765625 l 1
 419.729492188 -0.0009765625 l 2x60
 396.396484375 -0.0009765625 378.73046875 4.33203125 366.731445312 12.9990234375 c 0
 354.732421875 21.666015625 342.502929688 37.9990234375 330.043945312 61.9990234375 c 2
 327.198242188 66.9990234375 l 1
 296.06640625 38.9990234375 265.782226562 18.9990234375 236.345703125 6.9990234375 c 0
 206.908203125 -5.0009765625 175.190429688 -11.0009765625 141.190429688 -11.0009765625 c 0
 83.1904296875 -11.0009765625 42.0380859375 5.666015625 17.7333984375 38.9990234375 c 0
 -6.5703125 72.33203125 -12.412109375 116.33203125 0.2080078125 170.999023438 c 0
 8.9814453125 208.999023438 26.4716796875 244.33203125 52.6806640625 276.999023438 c 0
 78.8896484375 309.666015625 118.559570312 344.333007812 171.692382812 381 c 1
 153.131835938 419 141.096679688 449.166992188 135.5859375 471.5 c 0
 130.07421875 493.833007812 130.08984375 517 135.630859375 541 c 0
 142.7109375 571.666992188 156.392578125 599.166992188 176.677734375 623.5 c 0
 196.961914062 647.833007812 221.515625 666.833007812 250.337890625 680.5 c 0
 279.16015625 694.166992188 309.5703125 701 341.5703125 701 c 0
 374.237304688 701 401.7890625 694 424.223632812 680 c 0
 446.658203125 666 462.06640625 646.833007812 470.448242188 622.5 c 0
 478.830078125 598.1640625 479.635742188 571.331054688 472.86328125 542 c 0
 465.783203125 511.333007812 450.83203125 482.666015625 428.008789062 456 c 0
 405.185546875 429.333007812 368.6953125 398.333007812 318.538085938 363 c 1
 378.526367188 246 l 1
 467.381835938 332 l 1
 529.451171875 263 l 1
 422.44140625 159 l 1
 435.438476562 133 l 2
 444.76953125 115.666992188 456.435546875 107 470.435546875 107 c 2xa0
277.7109375 588.999023438 m 0
 265.249023438 578.33203125 256.939453125 563.999023438 252.784179688 545.999023438 c 0
 249.859375 533.33203125 249.768554688 520.665039062 252.510742188 507.998046875 c 0
 255.252929688 495.331054688 262.95703125 475.998046875 275.620117188 449.998046875 c 1
 305.05859375 470.665039062 325.522460938 487.83203125 337.010742188 501.499023438 c 0
 348.499023438 515.166015625 356.08984375 529.999023438 359.784179688 545.999023438 c 0
 363.78515625 563.33203125 362.056640625 577.499023438 354.595703125 588.499023438 c 0
 347.135742188 599.499023438 335.73828125 604.999023438 320.405273438 604.999023438 c 0
 304.405273438 604.999023438 290.173828125 599.666015625 277.7109375 588.999023438 c 0
224.779296875 108.499023438 m 0
 240.703125 116.83203125 260.538085938 131.999023438 284.284179688 153.999023438 c 1
 215.14453125 291.999023438 l 1
 184.731445312 269.999023438 162.357421875 250.33203125 148.0234375 232.999023438 c 0
 133.688476562 215.666015625 124.442382812 197.999023438 120.287109375 179.999023438 c 0
 114.284179688 153.999023438 116.21875 133.499023438 126.088867188 118.499023438 c 0
 135.958984375 103.499023438 152.560546875 95.9990234375 175.893554688 95.9990234375 c 0xa0
 192.560546875 95.9990234375 208.85546875 100.166015625 224.779296875 108.499023438 c 0
EndSplineSet
EndChar

StartChar: quotesingle
Encoding: 39 39 9
Width: 193
GlyphClass: 2
Flags: MW
HStem: 392 298<113.032 161.233 44.2334 230.032>
VStem: 44.2334 185.799
LayerCount: 2
Fore
SplineSet
113.032226562 690 m 1
 230.032226562 690 l 1
 161.233398438 392 l 1
 44.2333984375 392 l 1
 113.032226562 690 l 1
EndSplineSet
EndChar

StartChar: parenleft
Encoding: 40 40 10
Width: 310
GlyphClass: 2
Flags: W
LayerCount: 2
Fore
SplineSet
36.4580078125 328 m 0
 71.087890625 478 146.126953125 615.333984375 261.576171875 740.000976562 c 1
 351.576171875 740.000976562 l 1
 304.954101562 676.666992188 265.357421875 609.833984375 232.787109375 539.500976562 c 0
 200.215820312 469.16796875 175.772460938 398.66796875 159.458007812 328.000976562 c 0
 143.296875 258.000976562 135.392578125 187.66796875 135.745117188 117.000976562 c 0
 136.096679688 46.333984375 144.62890625 -20.666015625 161.340820312 -83.9990234375 c 1
 70.3408203125 -83.9990234375 l 1
 13.7373046875 43.333984375 2.443359375 180.666992188 36.4580078125 328 c 0
EndSplineSet
EndChar

StartChar: parenright
Encoding: 41 41 11
Width: 310
GlyphClass: 2
Flags: W
LayerCount: 2
Fore
SplineSet
59.7451171875 117 m 0
 92.7265625 187.666992188 117.296875 258 133.458007812 328 c 0
 149.772460938 398.666992188 157.881835938 469.166992188 157.786132812 539.5 c 0
 157.69140625 609.833007812 148.954101562 676.666015625 131.575195312 739.999023438 c 1
 221.575195312 739.999023438 l 1
 279.4609375 615.33203125 291.087890625 477.999023438 256.458007812 327.999023438 c 0
 222.443359375 180.666015625 147.737304688 43.3330078125 32.33984375 -84 c 1
 -58.66015625 -84 l 1
 -12.705078125 -20.6669921875 26.7626953125 46.3330078125 59.7451171875 117 c 0
EndSplineSet
EndChar

StartChar: asterisk
Encoding: 42 42 12
Width: 377
GlyphClass: 2
Flags: MW
HStem: 389 301<159.541 298.032 159.541 298.032>
VStem: 75.0127 307.24<495 587>
LayerCount: 2
Fore
SplineSet
181.934570312 486 m 1
 93.5458984375 441 l 1
 75.0126953125 495 l 1
 165.6328125 541 l 1
 96.2529296875 587 l 1
 139.719726562 641 l 1
 207.561523438 597 l 1
 229.032226562 690 l 1
 298.032226562 690 l 1
 276.330078125 596 l 1
 364.719726562 641 l 1
 382.252929688 587 l 1
 291.6328125 541 l 1
 362.012695312 495 l 1
 317.545898438 441 l 1
 250.704101562 485 l 1
 228.541015625 389 l 1
 159.541015625 389 l 1
 181.934570312 486 l 1
EndSplineSet
EndChar

StartChar: plus
Encoding: 43 43 13
Width: 529
GlyphClass: 2
Flags: MW
HStem: 219 114<40.6123 174.293 14.293 200.612 40.6123 288.293 314.612 447.293>
LayerCount: 2
Fore
SplineSet
174.29296875 219 m 1
 14.29296875 219 l 1
 40.6123046875 333 l 1
 200.612304688 333 l 1
 237.55078125 493 l 1
 351.55078125 493 l 1
 314.612304688 333 l 1
 473.612304688 333 l 1
 447.29296875 219 l 1
 288.29296875 219 l 1
 251.354492188 59 l 1
 137.354492188 59 l 1
 174.29296875 219 l 1
EndSplineSet
EndChar

StartChar: comma
Encoding: 44 44 14
Width: 193
GlyphClass: 2
Flags: MW
HStem: -162 299<-83.668 102.362>
VStem: -83.668 186.03
LayerCount: 2
Fore
SplineSet
-14.6376953125 137 m 1
 102.362304688 137 l 1
 56.1884765625 -63 l 1
 -83.66796875 -162 l 1
 -14.6376953125 137 l 1
EndSplineSet
EndChar

StartChar: hyphen
Encoding: 45 45 15
Width: 365
GlyphClass: 2
Flags: MW
HStem: 288 115<53.7734 302.224 27.2236 328.773>
VStem: 27.2236 301.55<288 403>
LayerCount: 2
Fore
SplineSet
53.7734375 403 m 1
 328.7734375 403 l 1
 302.223632812 288 l 1
 27.2236328125 288 l 1
 53.7734375 403 l 1
EndSplineSet
EndChar

StartChar: period
Encoding: 46 46 16
Width: 215
GlyphClass: 2
Flags: MW
HStem: 0 142<-13.4834 92.7334 -46.2666 125.517>
VStem: -46.2666 171.783<0 142>
LayerCount: 2
Fore
SplineSet
-13.4833984375 142 m 1
 125.516601562 142 l 1
 92.7333984375 0 l 1
 -46.2666015625 0 l 1
 -13.4833984375 142 l 1
EndSplineSet
EndChar

StartChar: slash
Encoding: 47 47 17
Width: 405
GlyphClass: 2
Flags: MW
HStem: 675 20G<332.187 436.187 436.187 436.187>
LayerCount: 2
Fore
SplineSet
332.186523438 695 m 1
 436.186523438 695 l 1
 61.4248046875 -10 l 1
 -41.5751953125 -10 l 1
 332.186523438 695 l 1
EndSplineSet
EndChar

StartChar: zero
Encoding: 48 48 18
Width: 512
GlyphClass: 2
Flags: MW
HStem: -11 114<181.179 204.193> 585.999 115.001<299.905 321.688>
LayerCount: 2
Fore
SplineSet
27.4306640625 48.5 m 0
 2.9208984375 88.1669921875 -0.1748046875 147.666992188 18.140625 227 c 2
 74.4716796875 471 l 2
 91.8642578125 546.333007812 122.5625 603.5 166.56640625 642.5 c 0
 210.569335938 681.5 266.23828125 701 333.571289062 701 c 0
 403.571289062 701 450.94140625 681.666992188 475.681640625 643 c 0
 500.420898438 604.333007812 504.017578125 547 486.471679688 471 c 2
 430.140625 227 l 2
 411.978515625 148.333007812 381.447265625 89 338.545898438 49 c 0
 295.643554688 9 239.193359375 -11 169.193359375 -11 c 0
 99.193359375 -11 51.939453125 8.8330078125 27.4306640625 48.5 c 0
262.053710938 133.5 m 0
 277.081054688 153.833007812 290.2890625 188.666015625 301.678710938 237.999023438 c 2
 351.083984375 451.999023438 l 2
 362.473632812 501.33203125 365.310546875 535.999023438 359.594726562 555.999023438 c 0
 353.87890625 575.999023438 336.354492188 585.999023438 307.021484375 585.999023438 c 0
 277.688476562 585.999023438 255.712890625 575.999023438 241.095703125 555.999023438 c 0
 226.478515625 535.999023438 213.474609375 501.33203125 202.084960938 451.999023438 c 2
 152.6796875 237.999023438 l 2
 141.290039062 188.666015625 138.415039062 153.833007812 144.053710938 133.5 c 0
 149.692382812 113.166992188 166.845703125 103 195.512695312 103 c 0
 224.846679688 103 247.026367188 113.166992188 262.053710938 133.5 c 0
EndSplineSet
EndChar

StartChar: one
Encoding: 49 49 19
Width: 348
GlyphClass: 2
Flags: MW
HStem: 0 21G<67.7334 198.733 67.7334 67.7334> 670 20G<227.032 358.032 358.032 358.032>
VStem: 58.1631 299.869<461 690>
LayerCount: 2
Fore
SplineSet
193.556640625 545 m 1
 58.1630859375 461 l 1
 90.9462890625 603 l 1
 227.032226562 690 l 1
 358.032226562 690 l 1
 198.733398438 0 l 1
 67.7333984375 0 l 1
 193.556640625 545 l 1
EndSplineSet
Substitution2: "'sups' Superscript lookup 1 subtable" uni00B9
Substitution2: "'aalt' Access All Alternates lookup 0 subtable" uni00B9
EndChar

StartChar: two
Encoding: 50 50 20
Width: 493
GlyphClass: 2
Flags: MW
HStem: 0 115<155.283 363.733> 590 111<304.905 305.945>
LayerCount: 2
Fore
SplineSet
-12.2568359375 104 m 1
 285.311523438 401 l 2
 318.494140625 435 338.625 467.333007812 345.705078125 498 c 2
 348.9375 512 l 2
 354.478515625 536 352.365234375 555 342.596679688 569 c 0
 332.829101562 583 316.9453125 590 294.9453125 590 c 0
 272.9453125 590 253.918945312 582.666992188 237.866210938 568 c 0
 221.813476562 553.333007812 210.786132812 533 204.783203125 507 c 2
 201.08984375 491 l 1
 74.08984375 491 l 1
 79.6298828125 515 l 2
 87.94140625 551 103.49609375 583 126.293945312 611 c 0
 149.090820312 639 177.669921875 661 212.03125 677 c 0
 246.391601562 693 284.23828125 701 325.571289062 701 c 0
 365.571289062 701 398.814453125 692.666992188 425.299804688 676 c 0
 451.786132812 659.333007812 469.962890625 637 479.83203125 609 c 0
 489.700195312 581 490.7109375 550 482.861328125 516 c 2
 478.936523438 499 l 2
 472.010742188 469 460.290039062 441.333007812 443.774414062 416 c 0
 427.258789062 390.666992188 405.588867188 364.666992188 378.766601562 338 c 2
 155.283203125 115 l 1
 390.283203125 115 l 1
 363.733398438 0 l 1
 -36.2666015625 0 l 1
 -12.2568359375 104 l 1
EndSplineSet
Substitution2: "'sups' Superscript lookup 1 subtable" uni00B2
Substitution2: "'aalt' Access All Alternates lookup 0 subtable" uni00B2
EndChar

StartChar: three
Encoding: 51 51 21
Width: 504
GlyphClass: 2
Flags: MW
HStem: -11 111.001<172.817 181.861> 300.001 111<212.618 221.992 186.992 246.618> 590 111<294.569 306.277>
LayerCount: 2
Fore
SplineSet
22.4287109375 35.5 m 0
 -6.0810546875 66.5 -13.796875 110.333984375 -0.71484375 167.000976562 c 2
 4.1337890625 188.000976562 l 1
 126.133789062 188.000976562 l 1
 122.670898438 173.000976562 l 2
 117.129882812 149.000976562 119.768554688 130.833984375 130.587890625 118.500976562 c 0
 141.408203125 106.16796875 159.817382812 100.000976562 185.817382812 100.000976562 c 0
 210.484375 100.000976562 231.831054688 108.000976562 249.858398438 124.000976562 c 0
 267.884765625 140.000976562 280.053710938 161.66796875 286.364257812 189.000976562 c 2
 290.520507812 207.000976562 l 2
 297.446289062 237.000976562 295.088867188 260.000976562 283.450195312 276.000976562 c 0
 271.810546875 292.000976562 251.325195312 300.000976562 221.9921875 300.000976562 c 2
 186.9921875 300.000976562 l 1
 212.618164062 411.000976562 l 1
 246.618164062 411.000976562 l 2
 271.951171875 411.000976562 293.311523438 418.333984375 310.697265625 433.000976562 c 0
 328.083007812 447.66796875 339.77734375 468.000976562 345.780273438 494.000976562 c 2
 349.243164062 509.000976562 l 2
 355.091796875 534.333984375 353.170898438 554.166992188 343.479492188 568.5 c 0
 333.7890625 582.833007812 317.610351562 590 294.943359375 590 c 0
 271.610351562 590 252.109375 583.5 236.44140625 570.5 c 0
 220.7734375 557.5 210.323242188 539.666992188 205.08984375 517 c 2
 201.165039062 500 l 1
 81.1650390625 500 l 1
 85.08984375 517 l 2
 98.48046875 575 126.408203125 620.166992188 168.873046875 652.5 c 0
 211.336914062 684.833007812 263.569335938 701 325.569335938 701 c 0
 386.236328125 701 430.094726562 684.5 457.142578125 651.5 c 0
 484.19140625 618.5 491.327148438 574.333007812 478.552734375 519 c 2
 475.08984375 504 l 2
 468.1640625 474 454.96875 447.166992188 435.504882812 423.5 c 0
 416.041015625 399.833007812 391.693359375 381 362.4609375 367 c 1
 389.536132812 354.333007812 407.751953125 334.333007812 417.108398438 307 c 0
 426.465820312 279.666992188 426.6796875 246.666992188 417.752929688 208 c 2
 413.366210938 189 l 2
 403.977539062 148.333007812 387.153320312 113 362.89453125 83 c 0
 338.634765625 53 308.953125 29.8330078125 273.849609375 13.5 c 0
 238.74609375 -2.8330078125 201.52734375 -11 162.194335938 -11 c 0
 97.52734375 -11 50.939453125 4.5 22.4287109375 35.5 c 0
EndSplineSet
Substitution2: "'sups' Superscript lookup 1 subtable" uni00B3
Substitution2: "'aalt' Access All Alternates lookup 0 subtable" uni00B3
EndChar

StartChar: four
Encoding: 52 52 22
Width: 521
GlyphClass: 2
Flags: MW
HStem: 0 21G<214.733 345.733 214.733 214.733> 110 115<2.67871 2.67871 133.679 240.129 -23.8711 2.67871 397.679 427.129> 670 20G<307.032 438.032 438.032 438.032>
LayerCount: 2
Fore
SplineSet
427.12890625 110 m 1
 371.12890625 110 l 1
 345.733398438 0 l 1
 214.733398438 0 l 1
 240.12890625 110 l 1
 -23.87109375 110 l 1
 2.6787109375 225 l 1
 307.032226562 690 l 1
 438.032226562 690 l 1
 133.678710938 225 l 1
 266.678710938 225 l 1
 304.079101562 387 l 1
 435.079101562 387 l 1
 397.678710938 225 l 1
 453.678710938 225 l 1
 427.12890625 110 l 1
EndSplineSet
EndChar

StartChar: five
Encoding: 53 53 23
Width: 497
GlyphClass: 2
Flags: MW
HStem: -11 110.999<172.152 189.86> 343.999 110<222.484 320.547> 577.999 112<222.174 482.174 222.174 222.174>
LayerCount: 2
Fore
SplineSet
26.0830078125 34 m 0
 -1.9912109375 64 -9.8720703125 105.666015625 2.44140625 158.999023438 c 2
 5.904296875 173.999023438 l 1
 125.904296875 173.999023438 l 1
 124.518554688 167.999023438 l 2
 119.59375 146.666015625 122.413085938 129.999023438 132.975585938 117.999023438 c 0
 143.538085938 105.999023438 160.485351562 99.9990234375 183.818359375 99.9990234375 c 0
 209.15234375 99.9990234375 229.87109375 108.166015625 245.974609375 124.499023438 c 0
 262.079101562 140.83203125 273.748046875 164.665039062 280.981445312 195.998046875 c 2
 292.987304688 247.998046875 l 2
 300.528320312 280.665039062 299.94140625 304.83203125 291.225585938 320.499023438 c 0
 282.508789062 336.166015625 265.150390625 343.999023438 239.150390625 343.999023438 c 0
 205.817382812 343.999023438 178.533203125 328.33203125 157.299804688 296.999023438 c 1
 44.2998046875 296.999023438 l 1
 135.03125 689.999023438 l 1
 508.03125 689.999023438 l 1
 482.173828125 577.999023438 l 1
 222.173828125 577.999023438 l 1
 186.158203125 421.999023438 l 1
 217.75 443.33203125 252.879882812 453.999023438 291.546875 453.999023438 c 0
 349.546875 453.999023438 389.416992188 436.83203125 411.157226562 402.499023438 c 0
 432.897460938 368.166015625 436.379882812 318.999023438 421.604492188 254.999023438 c 2
 406.59765625 189.999023438 l 2
 391.9765625 126.666015625 362.75390625 77.3330078125 318.9296875 42 c 0
 275.10546875 6.6669921875 221.526367188 -11 158.193359375 -11 c 0
 98.193359375 -11 54.15625 4 26.0830078125 34 c 0
EndSplineSet
EndChar

StartChar: six
Encoding: 54 54 24
Width: 516
GlyphClass: 2
Flags: MW
HStem: -11 110.999<184.152 203.194> 669.999 20G<323.032 461.032 461.032 461.032>
LayerCount: 2
Fore
SplineSet
27.16015625 43 m 0
 -2.1953125 79 -9.486328125 128.999023438 5.2890625 192.999023438 c 2
 12.4462890625 223.999023438 l 2
 18.7568359375 251.33203125 28.5927734375 277.33203125 41.9541015625 301.999023438 c 0
 55.31640625 326.666015625 72.716796875 353.666015625 94.1552734375 382.999023438 c 2
 323.032226562 689.999023438 l 1
 461.032226562 689.999023438 l 1
 253.620117188 410.999023438 l 1
 269.826171875 417.666015625 287.262695312 420.999023438 305.9296875 420.999023438 c 0
 359.9296875 420.999023438 399.1328125 403.83203125 423.540039062 369.499023438 c 0
 447.946289062 335.166015625 453.30078125 288.333007812 439.602539062 229 c 2
 432.21484375 197 l 2
 417.131835938 131.666992188 385.857421875 80.6669921875 338.392578125 44 c 0
 290.926757812 7.3330078125 235.194335938 -11 171.194335938 -11 c 0
 104.52734375 -11 56.5166015625 7 27.16015625 43 c 0
262.359375 123.999023438 m 0
 280.720703125 139.999023438 293.208984375 162.331054688 299.827148438 190.998046875 c 2
 306.984375 221.998046875 l 2
 313.602539062 250.665039062 311.387695312 272.83203125 300.336914062 288.499023438 c 0
 289.287109375 304.166015625 271.095703125 311.999023438 245.762695312 311.999023438 c 0
 220.4296875 311.999023438 198.788085938 304.166015625 180.837890625 288.499023438 c 0
 162.888671875 272.83203125 150.680664062 250.999023438 144.216796875 222.999023438 c 2
 136.59765625 189.999023438 l 2
 130.133789062 161.999023438 132.221679688 139.999023438 142.860351562 123.999023438 c 0
 153.5 107.999023438 171.485351562 99.9990234375 196.818359375 99.9990234375 c 0
 222.151367188 99.9990234375 243.999023438 107.999023438 262.359375 123.999023438 c 0
EndSplineSet
EndChar

StartChar: seven
Encoding: 55 55 25
Width: 457
GlyphClass: 2
Flags: MW
HStem: 0 21G<0.733398 132.733 0.733398 0.733398> 576 114<105.032 347.713 78.7129 502.032 475.713 475.713>
LayerCount: 2
Fore
SplineSet
502.032226562 690 m 1
 475.712890625 576 l 1
 132.733398438 0 l 1
 0.7333984375 0 l 1
 347.712890625 576 l 1
 78.712890625 576 l 1
 105.032226562 690 l 1
 502.032226562 690 l 1
EndSplineSet
EndChar

StartChar: eight
Encoding: 56 56 26
Width: 525
GlyphClass: 2
Flags: MW
HStem: -11 111.001<188.485 195.527> 306.002 107.999<236.71 285.644> 590.001 110.999<320.237 325.943>
LayerCount: 2
Fore
SplineSet
71.849609375 13.5 m 0
 43.6201171875 29.8330078125 23.876953125 53.333984375 12.6240234375 84.0009765625 c 0
 1.37109375 114.66796875 0.361328125 150.000976562 9.5966796875 190.000976562 c 2
 14.90625 213.000976562 l 2
 22.1396484375 244.333984375 36.1298828125 273.166992188 56.8759765625 299.5 c 0
 77.623046875 325.833984375 103.099609375 346.666992188 133.306640625 362 c 1
 114.897460938 374.666992188 101.84765625 392.5 94.158203125 415.5 c 0
 86.4677734375 438.5 86.0859375 465 93.01171875 495 c 2
 97.16796875 513 l 2
 105.016601562 547 120.41796875 578.333007812 143.369140625 607 c 0
 166.3203125 635.666992188 194.758789062 658.5 228.68359375 675.5 c 0
 262.608398438 692.5 299.903320312 701 340.5703125 701 c 0
 381.237304688 701 414.775390625 692.5 441.18359375 675.5 c 0
 467.591796875 658.5 485.487304688 635.666992188 494.869140625 607 c 0
 504.250976562 578.333007812 505.016601562 547 497.16796875 513 c 2
 493.01171875 495 l 2
 486.240234375 465.666992188 473.493164062 439.333984375 454.7734375 416.000976562 c 0
 436.053710938 392.66796875 414.8984375 374.66796875 391.306640625 362.000976562 c 1
 414.279296875 346.000976562 429.892578125 324.833984375 438.146484375 298.500976562 c 0
 446.400390625 272.16796875 447.064453125 244.000976562 440.137695312 214.000976562 c 2
 434.828125 191.000976562 l 2
 425.439453125 150.333984375 408.038085938 114.666992188 382.625 84 c 0
 357.211914062 53.3330078125 326.453125 29.8330078125 290.349609375 13.5 c 0
 254.24609375 -2.8330078125 215.860351562 -11 175.193359375 -11 c 0
 134.526367188 -11 100.079101562 -2.8330078125 71.849609375 13.5 c 0
333.504882812 436.500976562 m 0
 350.301757812 451.500976562 361.393554688 470.66796875 366.780273438 494.000976562 c 2
 371.166992188 513.000976562 l 2
 376.24609375 535.000976562 373.645507812 553.333984375 363.364257812 568.000976562 c 0
 353.083984375 582.66796875 336.943359375 590.000976562 314.943359375 590.000976562 c 0
 292.943359375 590.000976562 273.41796875 582.66796875 256.364257812 568.000976562 c 0
 239.311523438 553.333984375 228.24609375 535.000976562 223.166992188 513.000976562 c 2
 218.780273438 494.000976562 l 2
 213.239257812 470.000976562 215.443359375 450.66796875 225.389648438 436.000976562 c 0
 235.336914062 421.333984375 251.643554688 414.000976562 274.310546875 414.000976562 c 0
 296.977539062 414.000976562 316.708984375 421.500976562 333.504882812 436.500976562 c 0
270.08984375 125.000976562 m 0
 289.604492188 141.66796875 302.59375 164.000976562 309.057617188 192.000976562 c 2
 314.598632812 216.000976562 l 2
 320.755859375 242.66796875 317.924804688 264.334960938 306.10546875 281.001953125 c 0
 294.286132812 297.668945312 275.376953125 306.001953125 249.376953125 306.001953125 c 0
 224.043945312 306.001953125 201.453125 297.668945312 181.60546875 281.001953125 c 0
 161.7578125 264.334960938 148.755859375 242.66796875 142.598632812 216.000976562 c 2
 137.057617188 192.000976562 l 2
 130.748046875 164.66796875 133.296875 142.500976562 144.705078125 125.500976562 c 0
 156.11328125 108.500976562 175.151367188 100.000976562 201.818359375 100.000976562 c 0
 227.818359375 100.000976562 250.575195312 108.333984375 270.08984375 125.000976562 c 0
EndSplineSet
EndChar

StartChar: nine
Encoding: 57 57 27
Width: 516
GlyphClass: 2
Flags: MW
HStem: 0 21G<45.7334 183.733 45.7334 45.7334> 590.002 110.998<303.57 322.612>
LayerCount: 2
Fore
SplineSet
253.145507812 279 m 1
 236.939453125 272.333007812 219.502929688 269.000976562 200.8359375 269.000976562 c 0
 146.8359375 269.000976562 107.631835938 286.16796875 83.2255859375 320.500976562 c 0
 58.8193359375 354.833984375 53.4638671875 401.666992188 67.162109375 461 c 2
 74.5498046875 493 l 2
 89.6337890625 558.333007812 120.908203125 609.333007812 168.373046875 646 c 0
 215.837890625 682.666992188 271.5703125 701 335.5703125 701 c 0
 402.237304688 701 450.249023438 683 479.604492188 647 c 0
 508.9609375 611 516.25 561 501.474609375 497 c 2
 494.317382812 466 l 2
 488.161132812 439.333007812 478.364257812 413.5 464.92578125 388.5 c 0
 451.485351562 363.5 434.046875 336.333007812 412.609375 307 c 2
 183.733398438 0 l 1
 45.7333984375 0 l 1
 253.145507812 279 l 1
325.926757812 401.500976562 m 0
 343.876953125 417.16796875 356.083984375 439.001953125 362.547851562 467.001953125 c 2
 370.166992188 500.001953125 l 2
 376.630859375 528.001953125 374.54296875 550.001953125 363.904296875 566.001953125 c 0
 353.264648438 582.001953125 335.278320312 590.001953125 309.9453125 590.001953125 c 0
 284.612304688 590.001953125 262.765625 582.001953125 244.405273438 566.001953125 c 0
 226.043945312 550.001953125 213.5546875 527.668945312 206.936523438 499.001953125 c 2
 199.780273438 468.001953125 l 2
 193.161132812 439.333984375 195.376953125 417.166992188 206.426757812 401.500976562 c 0
 217.4765625 385.833984375 235.668945312 378.000976562 261.001953125 378.000976562 c 0
 286.3359375 378.000976562 307.9765625 385.833984375 325.926757812 401.500976562 c 0
EndSplineSet
EndChar

StartChar: colon
Encoding: 58 58 28
Width: 215
GlyphClass: 2
Flags: MW
HStem: 0 142<-13.4834 92.7334 -46.2666 125.517> 338 142<64.5498 170.767 31.7666 203.55>
VStem: -46.2666 249.816
LayerCount: 2
Fore
SplineSet
-13.4833984375 142 m 1
 125.516601562 142 l 1
 92.7333984375 0 l 1
 -46.2666015625 0 l 1
 -13.4833984375 142 l 1
64.5498046875 480 m 1
 203.549804688 480 l 1
 170.766601562 338 l 1
 31.7666015625 338 l 1
 64.5498046875 480 l 1
143.784179688 520 m 1024
EndSplineSet
EndChar

StartChar: semicolon
Encoding: 59 59 29
Width: 215
GlyphClass: 2
Flags: MW
HStem: 338 142<64.5498 170.767 31.7666 203.55>
VStem: -63.668 267.218
LayerCount: 2
Fore
SplineSet
64.5498046875 480 m 1
 203.549804688 480 l 1
 170.766601562 338 l 1
 31.7666015625 338 l 1
 64.5498046875 480 l 1
5.3623046875 137 m 1
 122.362304688 137 l 1
 76.1884765625 -63 l 1
 -63.66796875 -162 l 1
 5.3623046875 137 l 1
139.784179688 520 m 1024
EndSplineSet
EndChar

StartChar: less
Encoding: 60 60 30
Width: 529
GlyphClass: 2
Flags: W
LayerCount: 2
Fore
SplineSet
15.216796875 223 m 1
 38.99609375 326 l 1
 510.012695312 495 l 1
 483.462890625 380 l 1
 180.991210938 274 l 1
 434.75 169 l 1
 407.96875 53 l 1
 15.216796875 223 l 1
EndSplineSet
EndChar

StartChar: equal
Encoding: 61 61 31
Width: 529
GlyphClass: 2
Flags: MW
HStem: 115 113<16.3711 422.283 -9.7168 448.371> 324 113<64.6221 470.534 38.5342 496.622>
LayerCount: 2
Fore
SplineSet
64.6220703125 437 m 1
 496.622070312 437 l 1
 470.534179688 324 l 1
 38.5341796875 324 l 1
 64.6220703125 437 l 1
16.37109375 228 m 1
 448.37109375 228 l 1
 422.283203125 115 l 1
 -9.716796875 115 l 1
 16.37109375 228 l 1
EndSplineSet
EndChar

StartChar: greater
Encoding: 62 62 32
Width: 529
GlyphClass: 2
Flags: W
LayerCount: 2
Fore
SplineSet
2.75 169 m 1
 304.991210938 274 l 1
 51.462890625 380 l 1
 78.0126953125 495 l 1
 470.99609375 326 l 1
 447.216796875 223 l 1
 -24.03125 53 l 1
 2.75 169 l 1
EndSplineSet
EndChar

StartChar: question
Encoding: 63 63 33
Width: 451
GlyphClass: 2
Flags: MW
HStem: 0.000976562 126<97.8232 199.734 68.7344 228.823> 586.999 113<268.34 281.253>
LayerCount: 2
Fore
SplineSet
129.065429688 244 m 2
 135.067382812 270 142.33984375 290.66796875 150.879882812 306.000976562 c 0
 159.419921875 321.333984375 174.973632812 340.333984375 197.5390625 363.000976562 c 2
 268.930664062 434.000976562 l 2
 286.266601562 451.334960938 299.024414062 466.16796875 307.203125 478.5 c 0
 315.383789062 490.833007812 321.090820312 504 324.323242188 518 c 0
 329.248046875 539.333007812 327.30078125 556.166015625 318.481445312 568.499023438 c 0
 309.662109375 580.83203125 293.252929688 586.999023438 269.252929688 586.999023438 c 0
 245.252929688 586.999023438 226.251953125 580.499023438 212.250976562 567.499023438 c 0
 198.249023438 554.499023438 187.837890625 534.666015625 181.013671875 507.999023438 c 1
 60.013671875 507.999023438 l 1
 75.8154296875 570.666992188 104.15234375 618.333984375 145.02734375 650.999023438 c 0
 185.90234375 683.666015625 237.33984375 699.999023438 299.33984375 699.999023438 c 0
 338.006835938 699.999023438 370.403320312 692.33203125 396.530273438 676.999023438 c 0
 422.658203125 661.666015625 440.603515625 640.499023438 450.370117188 613.499023438 c 0
 460.13671875 586.499023438 461.095703125 555.999023438 453.24609375 521.999023438 c 0
 447.705078125 497.999023438 438.587890625 475.83203125 425.893554688 455.499023438 c 0
 413.19921875 435.166015625 395.158203125 413.333007812 371.771484375 390 c 2
 295.763671875 312 l 2
 281.86328125 298 271.88671875 285.833007812 265.836914062 275.5 c 0
 259.78515625 265.166992188 254.834960938 251.666992188 250.987304688 235 c 2
 241.291015625 193 l 1
 117.291015625 193 l 1
 129.065429688 244 l 2
97.8232421875 126.000976562 m 1
 228.823242188 126.000976562 l 1
 199.734375 0.0009765625 l 1
 68.734375 0.0009765625 l 1
 97.8232421875 126.000976562 l 1
EndSplineSet
EndChar

StartChar: at
Encoding: 64 64 34
Width: 873
GlyphClass: 2
Flags: MW
HStem: -136 100.002<315.422 345.668> 54 93.999<282.866 405.901> 410.999 94.001<432.954 442.321 405.988 466.62> 598.003 99.9961<475.545 519.793>
LayerCount: 2
Fore
SplineSet
128.416992188 -88 m 0
 76.4716796875 -56 40.654296875 -11.16796875 20.9677734375 46.4990234375 c 0
 1.28125 104.166015625 0.134765625 170.666015625 17.5263671875 245.999023438 c 2
 33.6875 315.999023438 l 2
 51.0791015625 391.33203125 82.931640625 457.83203125 129.245117188 515.499023438 c 0
 175.55859375 573.166015625 232.076171875 617.999023438 298.796875 649.999023438 c 0
 365.517578125 681.999023438 437.211914062 697.999023438 513.87890625 697.999023438 c 0
 589.211914062 697.999023438 652.889648438 682.166015625 704.912109375 650.499023438 c 0
 756.93359375 618.83203125 792.993164062 574.33203125 813.08984375 516.999023438 c 0
 833.186523438 459.666015625 834.770507812 394.333007812 817.83984375 321 c 2
 801.678710938 251 l 2
 786.903320312 187 759.629882812 138.166992188 719.856445312 104.5 c 0
 680.083984375 70.8330078125 635.865234375 54 587.198242188 54 c 0
 557.198242188 54 532.83984375 59.6669921875 514.123046875 71 c 0
 495.404296875 82.3330078125 482.765625 98.3330078125 476.205078125 119 c 1
 444.868164062 75.6669921875 397.19921875 54 333.19921875 54 c 0
 232.532226562 54 196.127929688 114.333007812 223.986328125 235 c 2
 244.302734375 323 l 2
 257.5390625 380.333007812 279.684570312 425 310.739257812 457 c 0
 341.793945312 489 381.654296875 505 430.321289062 505 c 0
 454.321289062 505 474.411132812 500.333007812 490.58984375 491 c 0
 506.767578125 481.666992188 517.419921875 469.333984375 522.547851562 454.000976562 c 1
 531.782226562 494.000976562 l 1
 640.782226562 494.000976562 l 1
 574.984375 209.000976562 l 2
 570.059570312 187.666992188 570.904296875 171.833984375 577.518554688 161.500976562 c 0
 584.1328125 151.16796875 594.7734375 146.000976562 609.440429688 146.000976562 c 0
 628.107421875 146.000976562 643.9921875 154.16796875 657.096679688 170.500976562 c 0
 670.200195312 186.833984375 680.985351562 213.333984375 689.450195312 250.000976562 c 2
 705.611328125 320.000976562 l 2
 718.693359375 376.66796875 718.877929688 425.834960938 706.1640625 467.501953125 c 0
 693.451171875 509.168945312 668.876953125 541.3359375 632.443359375 564.002929688 c 0
 596.009765625 586.669921875 548.79296875 598.002929688 490.79296875 598.002929688 c 0
 403.459960938 598.002929688 329.188476562 573.002929688 267.977539062 523.002929688 c 0
 206.767578125 473.002929688 166.158203125 404.669921875 146.149414062 318.002929688 c 2
 129.7578125 247.002929688 l 2
 116.67578125 190.3359375 116.375976562 140.668945312 128.858398438 98.001953125 c 0
 141.340820312 55.3349609375 165.889648438 22.3349609375 202.502929688 -0.998046875 c 0
 239.116210938 -24.3310546875 286.421875 -35.998046875 344.421875 -35.998046875 c 0
 384.421875 -35.998046875 421.384765625 -31.8310546875 455.30859375 -23.498046875 c 0
 489.232421875 -15.1650390625 525.194335938 -2.33203125 563.196289062 15.0009765625 c 1
 587.572265625 -69.9990234375 l 1
 543.672851562 -92.666015625 500.491210938 -109.333007812 458.029296875 -120 c 0
 415.56640625 -130.666992188 370.001953125 -136 321.334960938 -136 c 0
 244.66796875 -136 180.362304688 -120 128.416992188 -88 c 0
470.6796875 237.999023438 m 2
 490.072265625 321.999023438 l 2
 503.770507812 381.33203125 488.620117188 410.999023438 444.620117188 410.999023438 c 0
 421.287109375 410.999023438 402.311523438 403.166015625 387.694335938 387.499023438 c 0
 373.077148438 371.83203125 362.61328125 350.33203125 356.303710938 322.999023438 c 2
 337.372070312 240.999023438 l 2
 330.446289062 210.999023438 330.46875 187.999023438 337.442382812 171.999023438 c 0
 344.415039062 155.999023438 359.901367188 147.999023438 383.901367188 147.999023438 c 0
 427.901367188 147.999023438 456.827148438 177.999023438 470.6796875 237.999023438 c 2
EndSplineSet
EndChar

StartChar: A
Encoding: 65 65 35
Width: 606
GlyphClass: 2
Flags: MW
HStem: 0 21G<-80.2666 57.7334 -80.2666 -80.2666 378.733 378.733 378.733 517.733> 134 109<190.834 357.834 190.834 367.67 130.67 357.834> 670 20G<324.032 431.032 431.032 431.032>
AnchorPoint: "Anchor-0" 378 690 basechar 0
LayerCount: 2
Fore
SplineSet
367.669921875 134 m 1
 130.669921875 134 l 1
 57.7333984375 0 l 1
 -80.2666015625 0 l 1
 324.032226562 690 l 1
 431.032226562 690 l 1
 517.733398438 0 l 1
 378.733398438 0 l 1
 367.669921875 134 l 1
357.833984375 243 m 1
 335.013671875 508 l 1
 190.833984375 243 l 1
 357.833984375 243 l 1
EndSplineSet
Substitution2: "Single Substitution lookup 6 subtable" ordfeminine
Substitution2: "'aalt' Access All Alternates lookup 0 subtable" ordfeminine
EndChar

StartChar: B
Encoding: 66 66 36
Width: 598
GlyphClass: 2
Flags: MW
HStem: 0 114.001<132.052 251.732> 294.001 114<199.927 306.607 173.607 324.927> 576.001 113.999<238.713 238.713 238.713 363.713>
LayerCount: 2
Fore
SplineSet
507.108398438 294 m 0
 517.28515625 267.333007812 518.063476562 235.333984375 509.444335938 198.000976562 c 0
 494.9765625 135.333984375 465.07421875 86.6669921875 419.737304688 52 c 0
 374.400390625 17.3330078125 318.399414062 0 251.732421875 0 c 2
 -25.267578125 0 l 1
 134.03125 690 l 1
 400.03125 690 l 2
 467.364257812 690 516.016601562 673.333007812 545.987304688 640 c 0
 575.958984375 606.666015625 583.864257812 559.333007812 569.704101562 498 c 0
 562.624023438 467.333007812 548.455078125 439.166015625 527.196289062 413.5 c 0
 505.9375 387.833007812 480.102539062 368.333007812 449.69140625 355 c 1
 477.79296875 341 496.931640625 320.666992188 507.108398438 294 c 0
238.712890625 576.000976562 m 1
 199.926757812 408.000976562 l 1
 324.926757812 408.000976562 l 2
 354.926757812 408.000976562 379.4140625 415.16796875 398.390625 429.500976562 c 0
 417.366210938 443.833984375 429.85546875 464.000976562 435.857421875 490.000976562 c 0
 442.322265625 518.000976562 439.4140625 539.333984375 427.133789062 554.000976562 c 0
 414.852539062 568.66796875 393.712890625 576.000976562 363.712890625 576.000976562 c 2
 238.712890625 576.000976562 l 1
341.208007812 138.500976562 m 0
 360.645507812 154.833984375 373.75 177.668945312 380.522460938 207.001953125 c 0
 386.833007812 234.334960938 383.924804688 255.66796875 371.797851562 271.000976562 c 0
 359.670898438 286.333984375 337.940429688 294.000976562 306.607421875 294.000976562 c 2
 173.607421875 294.000976562 l 1
 132.051757812 114.000976562 l 1
 265.051757812 114.000976562 l 2
 296.384765625 114.000976562 321.76953125 122.16796875 341.208007812 138.500976562 c 0
EndSplineSet
EndChar

StartChar: C
Encoding: 67 67 37
Width: 600
GlyphClass: 2
Flags: MW
HStem: -8 117<223.897 253.219> 585 115<331.791 371.458>
LayerCount: 2
Fore
SplineSet
27.375 267 m 2
 63.8515625 425 l 2
 106.176757812 608.333007812 211.672851562 700 380.33984375 700 c 0
 455.672851562 700 511.055664062 680 546.487304688 640 c 0
 581.919921875 600 591.247070312 543.666992188 574.470703125 471 c 2
 572.854492188 464 l 1
 441.854492188 464 l 1
 443.240234375 470 l 2
 451.397460938 505.333007812 447.694335938 533.333007812 432.1328125 554 c 0
 416.571289062 574.666992188 390.124023438 585 352.791015625 585 c 0
 310.791015625 585 277.290039062 572 252.287109375 546 c 0
 227.284179688 520 207.934570312 477.333007812 194.236328125 418 c 2
 159.836914062 269 l 2
 146.908203125 213 147.352539062 172.333007812 161.170898438 147 c 0
 174.989257812 121.666992188 202.897460938 109 244.897460938 109 c 0
 282.23046875 109 313.0390625 119 337.32421875 139 c 0
 361.608398438 159 377.751953125 186.333007812 385.754882812 221 c 2
 387.6015625 229 l 1
 516.6015625 229 l 1
 514.986328125 222 l 2
 497.901367188 148 462.780273438 91.1669921875 409.623046875 51.5 c 0
 356.46484375 11.8330078125 291.552734375 -8 214.885742188 -8 c 0
 47.552734375 -8 -14.951171875 83.6669921875 27.375 267 c 2
EndSplineSet
EndChar

StartChar: D
Encoding: 68 68 38
Width: 600
GlyphClass: 2
Flags: MW
HStem: 0 114<132.051 213.733> 576 114<238.712 349.712 238.712 238.712>
LayerCount: 2
Fore
SplineSet
134.032226562 690 m 1
 377.03125 690 l 2
 453.698242188 690 509.2734375 668.666992188 543.755859375 626 c 0
 578.23828125 583.333007812 584.244140625 513.333007812 561.7734375 416 c 2
 529.220703125 275 l 2
 506.75 177.666992188 467.883789062 107.5 412.623046875 64.5 c 0
 357.362304688 21.5 291.06640625 0 213.733398438 0 c 2
 -25.2666015625 0 l 1
 134.032226562 690 l 1
243.05078125 114 m 2
 282.383789062 114 314.885742188 127 340.5546875 153 c 0
 366.224609375 179 385.5234375 220 398.452148438 276 c 2
 429.157226562 409 l 2
 442.701171875 467.666992188 442.846679688 510.166992188 429.592773438 536.5 c 0
 416.33984375 562.833007812 389.711914062 576 349.711914062 576 c 2
 238.711914062 576 l 1
 132.05078125 114 l 1
 243.05078125 114 l 2
EndSplineSet
EndChar

StartChar: E
Encoding: 69 69 39
Width: 532
GlyphClass: 2
Flags: MW
HStem: 0 114<132.052 412.733> 291 114<199.234 434.916 172.916 461.234> 576 114<238.713 238.713 238.713 545.713>
AnchorPoint: "Anchor-0" 343 690 basechar 0
LayerCount: 2
Fore
SplineSet
238.712890625 576 m 1
 199.234375 405 l 1
 461.234375 405 l 1
 434.916015625 291 l 1
 172.916015625 291 l 1
 132.051757812 114 l 1
 439.051757812 114 l 1
 412.733398438 0 l 1
 -25.2666015625 0 l 1
 134.032226562 690 l 1
 572.032226562 690 l 1
 545.712890625 576 l 1
 238.712890625 576 l 1
EndSplineSet
EndChar

StartChar: F
Encoding: 70 70 40
Width: 527
GlyphClass: 2
Flags: MW
HStem: 0 21G<-25.2666 105.733 -25.2666 -25.2666> 285 114<197.85 434.53 171.53 460.85> 576 114<238.713 238.713 238.713 545.713>
LayerCount: 2
Fore
SplineSet
238.712890625 576 m 1
 197.849609375 399 l 1
 460.849609375 399 l 1
 434.530273438 285 l 1
 171.530273438 285 l 1
 105.733398438 0 l 1
 -25.2666015625 0 l 1
 134.032226562 690 l 1
 572.032226562 690 l 1
 545.712890625 576 l 1
 238.712890625 576 l 1
EndSplineSet
EndChar

StartChar: G
Encoding: 71 71 41
Width: 600
GlyphClass: 2
Flags: MW
HStem: -8 117<226.564 267.897 226.564 297.886> 267 108<277.375 552.309 302.309 399.375> 585 115<331.791 371.458>
LayerCount: 2
Fore
SplineSet
27.375 267 m 2
 63.8515625 425 l 2
 106.176757812 608.333007812 211.672851562 700 380.33984375 700 c 0
 455.672851562 700 511.09375 680.166992188 546.603515625 640.5 c 0
 582.112304688 600.833007812 591.786132812 546 575.625 476 c 2
 574.009765625 469 l 1
 443.009765625 469 l 1
 444.625 476 l 2
 451.859375 507.333007812 447.694335938 533.333007812 432.1328125 554 c 0
 416.571289062 574.666992188 390.124023438 585 352.791015625 585 c 0
 310.791015625 585 277.290039062 572 252.287109375 546 c 0
 227.284179688 520 207.934570312 477.333007812 194.236328125 418 c 2
 159.836914062 269 l 2
 146.75390625 212.333007812 147.494140625 171.5 162.055664062 146.5 c 0
 176.616210938 121.5 205.23046875 109 247.897460938 109 c 0
 287.897460938 109 319.450195312 119.333007812 342.5546875 140 c 0
 365.659179688 160.666992188 382.059570312 192 391.755859375 234 c 2
 399.375 267 l 1
 277.375 267 l 1
 302.30859375 375 l 1
 552.30859375 375 l 1
 525.06640625 257 l 2
 484.279296875 80.3330078125 380.885742188 -8 214.885742188 -8 c 0
 47.552734375 -8 -14.951171875 83.6669921875 27.375 267 c 2
EndSplineSet
EndChar

StartChar: H
Encoding: 72 72 42
Width: 609
GlyphClass: 2
Flags: MW
HStem: 0 21G<-25.2666 105.733 -25.2666 -25.2666 334.733 465.733 334.733 334.733> 292 114<199.466 402.146 173.146 428.466> 670 20G<134.032 265.032 265.032 265.032 494.032 625.032 625.032 625.032>
LayerCount: 2
Fore
SplineSet
625.032226562 690 m 1
 465.733398438 0 l 1
 334.733398438 0 l 1
 402.146484375 292 l 1
 173.146484375 292 l 1
 105.733398438 0 l 1
 -25.2666015625 0 l 1
 134.032226562 690 l 1
 265.032226562 690 l 1
 199.465820312 406 l 1
 428.465820312 406 l 1
 494.032226562 690 l 1
 625.032226562 690 l 1
EndSplineSet
EndChar

StartChar: I
Encoding: 73 73 43
Width: 261
GlyphClass: 2
Flags: MW
HStem: 0 21G<-19.2666 111.733 -19.2666 -19.2666> 670 20G<140.032 271.032 271.032 271.032>
VStem: -19.2666 290.299
AnchorPoint: "Anchor-0" 205 690 basechar 0
LayerCount: 2
Fore
SplineSet
140.032226562 690 m 1
 271.032226562 690 l 1
 111.733398438 0 l 1
 -19.2666015625 0 l 1
 140.032226562 690 l 1
EndSplineSet
EndChar

StartChar: J
Encoding: 74 74 44
Width: 331
GlyphClass: 2
Flags: MW
HStem: 0 115<-33.7168 20.2832 20.2832 23.7334 -60.2666 20.2832> 670 20G<209.032 341.032 341.032 341.032>
LayerCount: 2
Fore
SplineSet
-33.716796875 115 m 1
 20.283203125 115 l 2
 40.9501953125 115 56.5654296875 119.833007812 67.130859375 129.5 c 0
 77.6953125 139.166992188 85.7490234375 156 91.2890625 180 c 2
 209.032226562 690 l 1
 341.032226562 690 l 1
 218.209960938 158 l 2
 206.512695312 107.333007812 183.67578125 68.3330078125 149.698242188 41 c 0
 115.721679688 13.6669921875 73.7333984375 0 23.7333984375 0 c 2
 -60.2666015625 0 l 1
 -33.716796875 115 l 1
EndSplineSet
EndChar

StartChar: K
Encoding: 75 75 45
Width: 610
GlyphClass: 2
Flags: MW
HStem: 0 21G<-25.2666 105.733 -25.2666 -25.2666 367.733 367.733 367.733 519.733> 670 20G<134.032 265.032 265.032 265.032 504.032 661.032 661.032 661.032>
LayerCount: 2
Fore
SplineSet
267.609375 307 m 1
 150.291015625 193 l 1
 105.733398438 0 l 1
 -25.2666015625 0 l 1
 134.032226562 690 l 1
 265.032226562 690 l 1
 190.692382812 368 l 1
 504.032226562 690 l 1
 661.032226562 690 l 1
 376.08203125 413 l 1
 519.733398438 0 l 1
 367.733398438 0 l 1
 267.609375 307 l 1
EndSplineSet
EndChar

StartChar: L
Encoding: 76 76 46
Width: 516
GlyphClass: 2
Flags: MW
HStem: 0 114<132.052 407.733> 670 20G<134.032 265.032 265.032 265.032>
LayerCount: 2
Fore
SplineSet
134.032226562 690 m 1
 265.032226562 690 l 1
 132.051757812 114 l 1
 434.051757812 114 l 1
 407.733398438 0 l 1
 -25.2666015625 0 l 1
 134.032226562 690 l 1
EndSplineSet
EndChar

StartChar: M
Encoding: 77 77 47
Width: 732
GlyphClass: 2
Flags: MW
HStem: 0 21G<-25.2666 105.733 -25.2666 -25.2666 457.733 588.733 457.733 457.733> 670 20G<134.032 265.032 265.032 265.032 617.032 748.032 748.032 748.032>
LayerCount: 2
Fore
SplineSet
748.032226562 690 m 1
 588.733398438 0 l 1
 457.733398438 0 l 1
 552.158203125 409 l 1
 357.438476562 133 l 1
 269.438476562 133 l 1
 200.850585938 412 l 1
 105.733398438 0 l 1
 -25.2666015625 0 l 1
 134.032226562 690 l 1
 265.032226562 690 l 1
 354.071289062 309 l 1
 617.032226562 690 l 1
 748.032226562 690 l 1
EndSplineSet
EndChar

StartChar: N
Encoding: 78 78 48
Width: 634
GlyphClass: 2
Flags: MW
HStem: 0 21G<-25.2666 105.733 -25.2666 -25.2666 359.733 490.733 359.733 359.733> 670 20G<134.032 265.032 265.032 265.032 519.032 650.032 650.032 650.032>
AnchorPoint: "Anchor-0" 392 690 basechar 0
LayerCount: 2
Fore
SplineSet
650.032226562 690 m 1
 490.733398438 0 l 1
 359.733398438 0 l 1
 205.237304688 431 l 1
 105.733398438 0 l 1
 -25.2666015625 0 l 1
 134.032226562 690 l 1
 265.032226562 690 l 1
 419.296875 258 l 1
 519.032226562 690 l 1
 650.032226562 690 l 1
EndSplineSet
EndChar

StartChar: O
Encoding: 79 79 49
Width: 600
GlyphClass: 2
Flags: MW
HStem: -8 117<220.896 249.552> 585 115<330.79 371.79>
AnchorPoint: "Anchor-0" 375 690 basechar 0
LayerCount: 2
Fore
SplineSet
27.375 267 m 2
 63.8515625 425 l 2
 106.176757812 608.333007812 211.006835938 700 378.33984375 700 c 0
 455.006835938 700 510.709960938 678.5 545.450195312 635.5 c 0
 580.189453125 592.5 586.323242188 522.333007812 563.852539062 425 c 2
 527.375 267 l 2
 504.904296875 169.666992188 465.87109375 99.5 410.27734375 56.5 c 0
 354.682617188 13.5 288.21875 -8 210.885742188 -8 c 0
 46.21875 -8 -14.951171875 83.6669921875 27.375 267 c 2
339.78515625 147.5 m 0
 365.043945312 173.166992188 384.061523438 213.666992188 396.8359375 269 c 2
 431.235351562 418 l 2
 444.779296875 476.666992188 444.923828125 519.166992188 431.670898438 545.5 c 0
 418.416992188 571.833007812 391.790039062 585 351.790039062 585 c 0
 309.790039062 585 276.494140625 572.166992188 251.901367188 546.5 c 0
 227.30859375 520.833007812 208.086914062 478 194.235351562 418 c 2
 159.8359375 269 l 2
 146.752929688 212.333007812 146.659179688 171.5 159.5546875 146.5 c 0
 172.44921875 121.5 199.896484375 109 241.896484375 109 c 0
 281.896484375 109 314.526367188 121.833007812 339.78515625 147.5 c 0
EndSplineSet
Substitution2: "Single Substitution lookup 6 subtable" ordmasculine
Substitution2: "'aalt' Access All Alternates lookup 0 subtable" ordmasculine
EndChar

StartChar: P
Encoding: 80 80 50
Width: 567
GlyphClass: 2
Flags: MW
HStem: 0 21G<-25.2666 105.733 -25.2666 -25.2666> 262 115<192.771 293.221 166.221 313.771> 576 114<238.713 359.713 238.713 238.713>
LayerCount: 2
Fore
SplineSet
544.141601562 632 m 0
 575.547851562 593.333007812 583.478515625 540.333007812 567.93359375 473 c 0
 553.158203125 409 521.178710938 357.833007812 471.995117188 319.5 c 0
 422.8125 281.166992188 363.220703125 262 293.220703125 262 c 2
 166.220703125 262 l 1
 105.733398438 0 l 1
 -25.2666015625 0 l 1
 134.032226562 690 l 1
 392.032226562 690 l 2
 462.032226562 690 512.735351562 670.666992188 544.141601562 632 c 0
393.541992188 402 m 0
 415.389648438 418.666992188 429.853515625 442.333007812 436.93359375 473 c 0
 444.62890625 506.333007812 441.68359375 531.833007812 428.094726562 549.5 c 0
 414.506835938 567.166992188 391.712890625 576 359.712890625 576 c 2
 238.712890625 576 l 1
 192.770507812 377 l 1
 313.770507812 377 l 2
 345.103515625 377 371.694335938 385.333007812 393.541992188 402 c 0
EndSplineSet
EndChar

StartChar: Q
Encoding: 81 81 51
Width: 600
GlyphClass: 2
Flags: MW
HStem: -154 21G<309.179 309.179> -8 117<128.551 261.896> 585 115<330.79 371.79>
AnchorPoint: "Anchor-0" 375 690 basechar 0
LayerCount: 2
Fore
SplineSet
379.813476562 35 m 1
 421.875976562 -99 l 1
 309.178710938 -154 l 1
 262.578125 -5 l 1
 246.116210938 -7 228.884765625 -8 210.884765625 -8 c 0
 46.2177734375 -8 -14.9521484375 83.6669921875 27.3740234375 267 c 2
 63.8515625 425 l 2
 106.176757812 608.333007812 211.006835938 700 378.33984375 700 c 0
 455.006835938 700 510.709960938 678.5 545.450195312 635.5 c 0
 580.189453125 592.5 586.323242188 522.333007812 563.852539062 425 c 2
 527.375 267 l 2
 501.825195312 156.333007812 452.638671875 79 379.813476562 35 c 1
159.5546875 146.5 m 0
 172.44921875 121.5 199.896484375 109 241.896484375 109 c 0
 281.896484375 109 314.526367188 121.833007812 339.78515625 147.5 c 0
 365.043945312 173.166992188 384.061523438 213.666992188 396.8359375 269 c 2
 431.235351562 418 l 2
 444.779296875 476.666992188 444.923828125 519.166992188 431.670898438 545.5 c 0
 418.416992188 571.833007812 391.790039062 585 351.790039062 585 c 0
 309.790039062 585 276.494140625 572.166992188 251.901367188 546.5 c 0
 227.30859375 520.833007812 208.086914062 478 194.235351562 418 c 2
 159.8359375 269 l 2
 146.752929688 212.333007812 146.659179688 171.5 159.5546875 146.5 c 0
EndSplineSet
EndChar

StartChar: R
Encoding: 82 82 52
Width: 600
GlyphClass: 2
Flags: MW
HStem: 0 21G<334.733 485.733 334.733 334.733> 279.999 109<170.376 319.541> 575.999 114<238.713 362.713 238.713 238.713>
LayerCount: 2
Fore
SplineSet
268.375976562 280 m 1
 170.375976562 279.999023438 l 1
 105.732421875 -0.0009765625 l 1
 -25.267578125 -0.0009765625 l 1
 134.032226562 689.999023438 l 1
 396.032226562 689.999023438 l 2
 463.365234375 689.999023438 512.760742188 671.499023438 544.21875 634.499023438 c 0
 575.676757812 597.499023438 584.094726562 547.33203125 569.47265625 483.999023438 c 0
 559.006835938 438.666015625 539.657226562 400.333007812 511.423828125 369 c 0
 483.189453125 337.666992188 447.712890625 314.666992188 404.993164062 300 c 1
 485.733398438 0 l 1
 334.733398438 0 l 1
 268.375976562 280 l 1
195.541015625 388.999023438 m 1
 319.541015625 388.999023438 l 2
 350.208007812 388.999023438 375.92578125 397.166015625 396.697265625 413.499023438 c 0
 417.467773438 429.83203125 431.392578125 453.33203125 438.47265625 483.999023438 c 0
 444.9375 511.999023438 441.426757812 534.33203125 427.94140625 550.999023438 c 0
 414.456054688 567.666015625 392.712890625 575.999023438 362.712890625 575.999023438 c 2
 238.712890625 575.999023438 l 1
 195.541015625 388.999023438 l 1
EndSplineSet
EndChar

StartChar: S
Encoding: 83 83 53
Width: 548
GlyphClass: 2
Flags: MW
HStem: -6 112.003<193.871 219.014> 590 110.001<314.339 338.611>
VStem: -10.7881 124<210.003 210.003> 404.78 126<494.001 494.001>
AnchorPoint: "Anchor-0" 347 690 basechar 0
LayerCount: 2
Fore
SplineSet
21.1611328125 49.5 m 0
 -11.6298828125 86.5 -22.28125 140.002929688 -10.7880859375 210.002929688 c 1
 113.211914062 210.002929688 l 1
 109.106445312 172.002929688 115.078125 145.169921875 131.127929688 129.502929688 c 0
 147.178710938 113.8359375 174.537109375 106.002929688 213.204101562 106.002929688 c 0
 287.204101562 106.002929688 331.20703125 136.3359375 345.212890625 197.002929688 c 0
 351.5234375 224.3359375 349 245.168945312 337.641601562 259.501953125 c 0
 326.284179688 273.8359375 305.221679688 283.668945312 274.452148438 289.000976562 c 2
 211.9921875 300.000976562 l 2
 92.0966796875 320.66796875 44.5390625 384.66796875 69.318359375 492.000976562 c 0
 84.09375 556.000976562 116.958007812 606.66796875 167.91015625 644.000976562 c 0
 218.862304688 681.333984375 279.338867188 700.000976562 349.338867188 700.000976562 c 0
 417.338867188 700.000976562 467.016601562 682.000976562 498.372070312 646.000976562 c 0
 529.727539062 610.000976562 540.530273438 559.333984375 530.780273438 494.000976562 c 1
 404.780273438 494.000976562 l 1
 410.475585938 527.333984375 406.426757812 551.666992188 392.633789062 567 c 0
 378.83984375 582.333007812 355.27734375 590 321.944335938 590 c 0
 287.944335938 590 260.46875 582.166992188 239.518554688 566.5 c 0
 218.569335938 550.833007812 204.938476562 529.333007812 198.627929688 502 c 0
 193.086914062 478 196.3671875 459 208.46875 445 c 0
 220.569335938 431 242.260742188 421 273.541992188 415 c 2
 343.541015625 402 l 2
 457.283203125 380.666992188 501.686523438 316 476.752929688 208 c 0
 460.74609375 138.666992188 426.342773438 85.6669921875 373.544921875 49 c 0
 320.74609375 12.3330078125 256.680664062 -6 181.34765625 -6 c 0
 107.34765625 -6 53.9521484375 12.5 21.1611328125 49.5 c 0
EndSplineSet
EndChar

StartChar: T
Encoding: 84 84 54
Width: 496
GlyphClass: 2
Flags: MW
HStem: 0 21G<97.7334 229.733 97.7334 97.7334> 576 114<81.0322 230.713 54.7129 565.032 362.713 538.713 362.713 362.713>
LayerCount: 2
Fore
SplineSet
538.712890625 576 m 1
 362.712890625 576 l 1
 229.733398438 0 l 1
 97.7333984375 0 l 1
 230.712890625 576 l 1
 54.712890625 576 l 1
 81.0322265625 690 l 1
 565.032226562 690 l 1
 538.712890625 576 l 1
EndSplineSet
EndChar

StartChar: U
Encoding: 85 85 55
Width: 614
GlyphClass: 2
Flags: MW
HStem: -6 114.001<228.668 244.015> 670.001 20G<134.033 265.033 265.033 265.033 498.033 630.033 630.033 630.033>
AnchorPoint: "Anchor-0" 382 690 basechar 0
LayerCount: 2
Fore
SplineSet
100.658203125 23.5 m 0
 67.5322265625 43.1669921875 44.419921875 70.833984375 31.3212890625 106.500976562 c 0
 18.22265625 142.16796875 16.90625 182.66796875 27.3720703125 228.000976562 c 2
 134.033203125 690.000976562 l 1
 265.033203125 690.000976562 l 1
 159.295898438 232.000976562 l 2
 150.21484375 192.66796875 153.506835938 162.16796875 169.170898438 140.500976562 c 0
 184.8359375 118.833984375 210.66796875 108.000976562 246.66796875 108.000976562 c 0
 282.66796875 108.000976562 313.668945312 118.833984375 339.670898438 140.500976562 c 0
 365.673828125 162.16796875 383.21484375 192.66796875 392.295898438 232.000976562 c 2
 498.033203125 690.000976562 l 1
 630.033203125 690.000976562 l 1
 523.372070312 228.000976562 l 2
 512.90625 182.66796875 492.72265625 142.16796875 462.821289062 106.500976562 c 0
 432.919921875 70.833984375 396.866210938 43.1669921875 354.659179688 23.5 c 0
 312.452148438 3.8330078125 267.681640625 -6 220.348632812 -6 c 0
 173.681640625 -6 133.78515625 3.8330078125 100.658203125 23.5 c 0
EndSplineSet
EndChar

StartChar: V
Encoding: 86 86 56
Width: 554
GlyphClass: 2
Flags: MW
HStem: 0 21G<139.733 244.733 139.733 139.733> 670 20G<79.0322 216.032 216.032 216.032 488.032 625.032 625.032 625.032>
VStem: 79.0322 137<690 690>
LayerCount: 2
Fore
SplineSet
79.0322265625 690 m 1
 216.032226562 690 l 1
 241.908203125 213 l 1
 488.032226562 690 l 1
 625.032226562 690 l 1
 244.733398438 0 l 1
 139.733398438 0 l 1
 79.0322265625 690 l 1
EndSplineSet
EndChar

StartChar: W
Encoding: 87 87 57
Width: 833
GlyphClass: 2
Flags: MW
HStem: 0 21G<89.7334 208.733 89.7334 89.7334 459.733 579.733 459.733 459.733> 670 20G<79.0322 210.032 210.032 210.032 415.032 578.032 578.032 578.032 782.032 904.032 904.032 904.032>
VStem: 79.0322 131<690 690> 89.7334 111.866 451.707 126.325 459.733 111.866
LayerCount: 2
Fore
SplineSet
904.032226562 690 m 1xc4
 579.733398438 0 l 1
 459.733398438 0 l 1xc4
 451.70703125 511 l 1
 208.733398438 0 l 1
 89.7333984375 0 l 1xd8
 79.0322265625 690 l 1
 210.032226562 690 l 1xe0
 201.599609375 203 l 1
 415.032226562 690 l 1
 578.032226562 690 l 1xd8
 571.599609375 203 l 1
 782.032226562 690 l 1
 904.032226562 690 l 1xc4
EndSplineSet
EndChar

StartChar: X
Encoding: 88 88 58
Width: 593
GlyphClass: 2
Flags: MW
HStem: 0 21G<-80.2666 68.7334 -80.2666 -80.2666 348.733 504.733 348.733 348.733> 670 20G<95.0322 250.032 250.032 250.032 492.032 641.032 641.032 641.032>
LayerCount: 2
Fore
SplineSet
217.615234375 359 m 1
 95.0322265625 690 l 1
 250.032226562 690 l 1
 320.317382812 466 l 1
 492.032226562 690 l 1
 641.032226562 690 l 1
 370.76953125 364 l 1
 504.733398438 0 l 1
 348.733398438 0 l 1
 268.604492188 255 l 1
 68.7333984375 0 l 1
 -80.2666015625 0 l 1
 217.615234375 359 l 1
EndSplineSet
EndChar

StartChar: Y
Encoding: 89 89 59
Width: 541
GlyphClass: 2
Flags: MW
HStem: 0 21G<120.733 251.733 120.733 120.733> 670 20G<79.0322 222.032 222.032 222.032 468.032 612.032 612.032 612.032>
AnchorPoint: "Anchor-0" 345 690 basechar 0
LayerCount: 2
Fore
SplineSet
317.299804688 284 m 1
 251.733398438 0 l 1
 120.733398438 0 l 1
 186.068359375 283 l 1
 79.0322265625 690 l 1
 222.032226562 690 l 1
 280.388671875 410 l 1
 468.032226562 690 l 1
 612.032226562 690 l 1
 317.299804688 284 l 1
EndSplineSet
EndChar

StartChar: Z
Encoding: 90 90 60
Width: 505
GlyphClass: 2
Flags: MW
HStem: 0 115<-27.7168 -27.7168 115.283 393.733 -54.2666 -27.7168> 576 114<111.032 375.713 84.7129 544.032 517.713 517.713>
AnchorPoint: "Anchor-0" 327 690 basechar 0
LayerCount: 2
Fore
SplineSet
420.283203125 115 m 1
 393.733398438 0 l 1
 -54.2666015625 0 l 1
 -27.716796875 115 l 1
 375.712890625 576 l 1
 84.712890625 576 l 1
 111.032226562 690 l 1
 544.032226562 690 l 1
 517.712890625 576 l 1
 115.283203125 115 l 1
 420.283203125 115 l 1
EndSplineSet
EndChar

StartChar: bracketleft
Encoding: 91 91 61
Width: 315
GlyphClass: 2
Flags: MW
HStem: -84 115<105.89 166.34> 626 115<243.257 330.257 243.257 243.257>
LayerCount: 2
Fore
SplineSet
145.806640625 741 m 1
 356.806640625 741 l 1
 330.256835938 626 l 1
 243.256835938 626 l 1
 105.889648438 31 l 1
 192.889648438 31 l 1
 166.33984375 -84 l 1
 -44.66015625 -84 l 1
 145.806640625 741 l 1
EndSplineSet
EndChar

StartChar: backslash
Encoding: 92 92 62
Width: 405
GlyphClass: 2
Flags: MW
HStem: 675 20G<121.187 224.187 224.187 224.187>
VStem: 121.187 152.238
LayerCount: 2
Fore
SplineSet
121.186523438 695 m 1
 224.186523438 695 l 1
 273.424804688 -10 l 1
 170.424804688 -10 l 1
 121.186523438 695 l 1
EndSplineSet
EndChar

StartChar: bracketright
Encoding: 93 93 63
Width: 316
GlyphClass: 2
Flags: MW
HStem: -84 115<-32.1104 55.8896 -32.1104 153.34 -58.6602 55.8896> 623 114<130.883 192.564 104.564 342.883>
LayerCount: 2
Fore
SplineSet
-32.1103515625 31 m 1
 55.8896484375 31 l 1
 192.564453125 623 l 1
 104.564453125 623 l 1
 130.8828125 737 l 1
 342.8828125 737 l 1
 153.33984375 -84 l 1
 -58.66015625 -84 l 1
 -32.1103515625 31 l 1
EndSplineSet
EndChar

StartChar: asciicircum
Encoding: 94 94 64
Width: 529
GlyphClass: 2
Flags: MW
HStem: 675 20G<288.187 392.187 392.187 392.187>
LayerCount: 2
Fore
SplineSet
288.186523438 695 m 1
 392.186523438 695 l 1
 464.298828125 271 l 1
 361.298828125 271 l 1
 312.482421875 575 l 1
 123.298828125 271 l 1
 20.298828125 271 l 1
 288.186523438 695 l 1
EndSplineSet
EndChar

StartChar: underscore
Encoding: 95 95 65
Width: 500
GlyphClass: 2
Flags: MW
HStem: -121 81<-93.502 387.798 -112.202 406.498>
LayerCount: 2
Fore
SplineSet
-93.501953125 -40 m 1
 406.498046875 -40 l 1
 387.797851562 -121 l 1
 -112.202148438 -121 l 1
 -93.501953125 -40 l 1
EndSplineSet
EndChar

StartChar: grave
Encoding: 96 96 66
Width: 500
GlyphClass: 2
Flags: MW
HStem: 588 133<316.483 346.189 209.189 423.483 316.483 316.483>
VStem: 209.189 214.294<588 721>
LayerCount: 2
Fore
SplineSet
209.189453125 721 m 1
 346.189453125 721 l 1
 423.483398438 588 l 1
 316.483398438 588 l 1
 209.189453125 721 l 1
EndSplineSet
EndChar

StartChar: a
Encoding: 97 97 67
Width: 501
GlyphClass: 2
Flags: MW
HStem: -6.00098 100<91.6792 185.765> 221.999 85.001<200.608 200.982 200.982 290.982> 431 95<249.836 283.903>
AnchorPoint: "Anchor-0" 277 520 basechar 0
LayerCount: 2
Fore
SplineSet
420.434570312 479.5 m 0
 448.610351562 448.5 455.693359375 402.666015625 441.686523438 341.999023438 c 2
 362.729492188 -0.0009765625 l 1
 242.729492188 -0.0009765625 l 1
 253.119140625 44.9990234375 l 1
 231.630859375 26.9990234375 210.795898438 13.9990234375 190.616210938 5.9990234375 c 0
 170.436523438 -2.0009765625 146.345703125 -6.0009765625 118.345703125 -6.0009765625 c 0
 65.0126953125 -6.0009765625 26.98828125 8.33203125 4.2744140625 36.9990234375 c 0
 -18.4404296875 65.666015625 -23.9501953125 105.333007812 -12.251953125 156 c 0
 -1.478515625 202.666992188 22.6923828125 239.5 60.2587890625 266.5 c 0
 97.8251953125 293.5 144.608398438 307 200.608398438 307 c 2
 310.608398438 307 l 1
 320.07421875 348 l 2
 332.848632812 403.333007812 311.569335938 431 256.236328125 431 c 0
 232.903320312 431 213.056640625 425.166992188 196.696289062 413.5 c 0
 180.3359375 401.833007812 169.923828125 386.333007812 165.4609375 367 c 2
 164.768554688 364 l 1
 49.7685546875 364 l 1
 50.69140625 368 l 2
 61.927734375 416.666992188 88.1484375 455.166992188 129.356445312 483.5 c 0
 170.565429688 511.833007812 220.502929688 526 279.169921875 526 c 0
 345.169921875 526 392.258789062 510.5 420.434570312 479.5 c 0
245.125976562 116.499023438 m 0
 262.921875 131.499023438 275.360351562 154.33203125 282.440429688 184.999023438 c 2
 290.982421875 221.999023438 l 1
 200.982421875 221.999023438 l 2
 148.982421875 221.999023438 118.134765625 200.999023438 108.438476562 158.999023438 c 0
 98.43359375 115.666015625 118.764648438 93.9990234375 169.431640625 93.9990234375 c 0
 202.098632812 93.9990234375 227.330078125 101.499023438 245.125976562 116.499023438 c 0
EndSplineSet
Substitution2: "Single Substitution lookup 6 subtable" ordfeminine
Substitution2: "'aalt' Access All Alternates lookup 0 subtable" ordfeminine
EndChar

StartChar: b
Encoding: 98 98 68
Width: 515
GlyphClass: 2
Flags: MW
HStem: -6 110<191.742 232.409 191.742 237.014> 416 110<261.44 357.17> 670 20G<129.031 253.031 253.031 253.031>
LayerCount: 2
Fore
SplineSet
101.814453125 48 m 1
 90.732421875 0 l 1
 -30.267578125 0 l 1
 129.03125 690 l 1
 253.03125 690 l 1
 201.547851562 467 l 1
 239.294921875 506.333007812 282.502929688 526 331.169921875 526 c 0
 383.169921875 526 421.423828125 508.333007812 445.93359375 473 c 0
 470.443359375 437.666992188 474.38671875 384 457.763671875 312 c 2
 433.984375 209 l 2
 417.362304688 137 388.600585938 83.1669921875 347.69921875 47.5 c 0
 306.797851562 11.8330078125 261.680664062 -6 212.34765625 -6 c 0
 159.680664062 -6 122.836914062 12 101.814453125 48 c 1
310.907226562 213 m 2
 332.608398438 307 l 2
 341.536132812 345.666992188 340.4609375 373.5 329.385742188 390.5 c 0
 318.310546875 407.5 300.106445312 416 274.7734375 416 c 0
 248.106445312 416 224.951171875 406.666992188 205.30859375 388 c 0
 185.666015625 369.333007812 171.765625 342.333007812 163.608398438 307 c 2
 141.907226562 213 l 2
 133.75 177.666992188 135.349609375 150.666992188 146.70703125 132 c 0
 158.064453125 113.333007812 177.7421875 104 205.7421875 104 c 0
 259.075195312 104 294.130859375 140.333007812 310.907226562 213 c 2
EndSplineSet
EndChar

StartChar: c
Encoding: 99 99 69
Width: 505
GlyphClass: 2
Flags: MW
HStem: -6 110<183.41 202.348> 416 110<260.503 282.774>
LayerCount: 2
Fore
SplineSet
28.083984375 47 m 0
 -1.42578125 82.3330078125 -7.5615234375 137.333007812 9.6767578125 212 c 2
 32.0712890625 309 l 2
 49.1552734375 383 80.609375 437.666992188 126.43359375 473 c 0
 172.2578125 508.333007812 227.836914062 526 293.169921875 526 c 0
 357.169921875 526 403.399414062 509.666992188 431.857421875 477 c 0
 460.315429688 444.333007812 467.849609375 399 454.458984375 341 c 2
 452.150390625 331 l 1
 334.150390625 331 l 1
 335.536132812 337 l 2
 341.23046875 361.666992188 338.194335938 381 326.42578125 395 c 0
 314.658203125 409 295.774414062 416 269.774414062 416 c 0
 209.774414062 416 171.385742188 379.666992188 154.609375 307 c 2
 132.908203125 213 l 2
 123.827148438 173.666992188 125.196289062 145.666992188 137.014648438 129 c 0
 148.833984375 112.333007812 169.077148438 104 197.743164062 104 c 0
 223.743164062 104 245.782226562 110.666992188 263.860351562 124 c 0
 281.938476562 137.333007812 293.749023438 156 299.2890625 180 c 2
 300.674804688 186 l 1
 418.674804688 186 l 1
 417.05859375 179 l 2
 403.822265625 121.666992188 375.39453125 76.5 331.775390625 43.5 c 0
 288.157226562 10.5 234.34765625 -6 170.34765625 -6 c 0
 105.014648438 -6 57.59375 11.6669921875 28.083984375 47 c 0
EndSplineSet
EndChar

StartChar: d
Encoding: 100 100 70
Width: 514
GlyphClass: 2
Flags: MW
HStem: -6 110<106.348 202.743> 416 110<236.108 277.108> 670 20G<412.033 535.033 535.033 535.033>
LayerCount: 2
Fore
SplineSet
20.19921875 47.5 m 0
 -3.8994140625 83.1669921875 -7.6376953125 137 8.984375 209 c 2
 32.763671875 312 l 2
 49.38671875 384 77.609375 437.666992188 117.43359375 473 c 0
 157.2578125 508.333007812 202.50390625 526 253.170898438 526 c 0
 305.170898438 526 340.962890625 506.333007812 360.549804688 467 c 1
 412.033203125 690 l 1
 535.033203125 690 l 1
 375.734375 0 l 1
 254.734375 0 l 1
 265.815429688 48 l 1
 228.837890625 12 184.014648438 -6 131.34765625 -6 c 0
 81.34765625 -6 44.2978515625 11.8330078125 20.19921875 47.5 c 0
260.208007812 132 m 0
 279.850585938 150.666992188 293.750976562 177.666992188 301.908203125 213 c 2
 323.609375 307 l 2
 331.766601562 342.333007812 330.5 369.333007812 319.809570312 388 c 0
 309.119140625 406.666992188 290.44140625 416 263.774414062 416 c 0
 208.44140625 416 172.385742188 379.666992188 155.609375 307 c 2
 133.908203125 213 l 2
 117.131835938 140.333007812 135.41015625 104 188.743164062 104 c 0
 216.743164062 104 240.565429688 113.333007812 260.208007812 132 c 0
EndSplineSet
EndChar

StartChar: e
Encoding: 101 101 71
Width: 517
GlyphClass: 2
Flags: MW
HStem: -6.00098 107<191.051 209.014> 223 85<135.217 334.841 154.841 334.841 154.841 439.217> 420 105.999<262.836 301.364>
AnchorPoint: "Anchor-0" 293 520 basechar 0
LayerCount: 2
Fore
SplineSet
135.216796875 223 m 1
 131.984375 209 l 2
 123.057617188 170.333007812 125.336914062 142.666015625 138.822265625 125.999023438 c 0
 152.307617188 109.33203125 175.05078125 100.999023438 207.05078125 100.999023438 c 0
 231.717773438 100.999023438 252.243164062 106.166015625 268.62890625 116.499023438 c 0
 285.014648438 126.83203125 296.029296875 141.33203125 301.671875 159.999023438 c 1
 303.364257812 162.999023438 l 1
 421.364257812 162.999023438 l 1
 420.209960938 157.999023438 l 2
 408.8203125 108.666015625 381.330078125 68.9990234375 337.736328125 38.9990234375 c 0
 294.143554688 8.9990234375 240.680664062 -6.0009765625 177.34765625 -6.0009765625 c 0
 110.680664062 -6.0009765625 62.10546875 13.166015625 31.623046875 51.4990234375 c 0
 1.1396484375 89.83203125 -4.8681640625 148.999023438 13.6015625 228.999023438 c 2
 28.146484375 291.999023438 l 2
 46.154296875 369.999023438 78.66015625 428.499023438 125.6640625 467.499023438 c 0
 172.66796875 506.499023438 229.502929688 525.999023438 296.169921875 525.999023438 c 0
 361.50390625 525.999023438 408.795898438 506.33203125 438.047851562 466.999023438 c 0
 467.30078125 427.666015625 473 369.333007812 455.146484375 292 c 2
 439.216796875 223 l 1
 135.216796875 223 l 1
198.42578125 395 m 0
 178.911132812 378.333007812 164.614257812 350.333007812 155.533203125 311 c 2
 154.840820312 308 l 1
 334.840820312 308 l 1
 337.841796875 321 l 2
 353.079101562 387 331.030273438 420 271.697265625 420 c 0
 242.364257812 420 217.940429688 411.666992188 198.42578125 395 c 0
EndSplineSet
EndChar

StartChar: f
Encoding: 102 102 72
Width: 334
GlyphClass: 2
Flags: MW
HStem: 0 21G<6.7334 129.733 6.7334 6.7334> 433 87<71.7842 106.699 51.6992 126.784 249.784 322.699> 606 84<312.64 321.64 321.64 362.64>
LayerCount: 2
Fore
SplineSet
279.252929688 593.5 m 0
 268.99609375 585.166992188 261.943359375 572.666992188 258.095703125 556 c 2
 249.784179688 520 l 1
 342.784179688 520 l 1
 322.69921875 433 l 1
 229.69921875 433 l 1
 129.733398438 0 l 1
 6.7333984375 0 l 1
 106.69921875 433 l 1
 51.69921875 433 l 1
 71.7841796875 520 l 1
 126.784179688 520 l 1
 133.94140625 551 l 2
 144.099609375 595 164.487304688 629.166992188 195.10546875 653.5 c 0
 225.723632812 677.833007812 264.032226562 690 310.032226562 690 c 2
 382.032226562 690 l 1
 362.639648438 606 l 1
 321.639648438 606 l 2
 303.639648438 606 289.509765625 601.833007812 279.252929688 593.5 c 0
EndSplineSet
EndChar

StartChar: g
Encoding: 103 103 73
Width: 514
GlyphClass: 2
Flags: MW
HStem: -164 98<142.831 159.872> 40 110<116.968 213.366> 416 110<236.111 277.111>
LayerCount: 2
Fore
SplineSet
-5.39453125 -124 m 0
 -32.9052734375 -97.3330078125 -42.8603515625 -60.3330078125 -35.265625 -13 c 1
 83.734375 -13 l 1
 83.3740234375 -29 89.244140625 -41.8330078125 101.345703125 -51.5 c 0
 113.446289062 -61.1669921875 131.1640625 -66 154.497070312 -66 c 0
 211.1640625 -66 246.884765625 -34 261.66015625 30 c 2
 276.435546875 94 l 1
 239.45703125 58 194.634765625 40 141.967773438 40 c 0
 91.9677734375 40 54.91796875 57.8330078125 30.8193359375 93.5 c 0
 6.720703125 129.166992188 2.982421875 183 19.6044921875 255 c 2
 32.763671875 312 l 2
 49.38671875 384 77.609375 437.666992188 117.43359375 473 c 0
 157.2578125 508.333007812 202.50390625 526 253.170898438 526 c 0
 305.170898438 526 340.962890625 506.333007812 360.549804688 467 c 1
 372.78515625 520 l 1
 495.78515625 520 l 1
 384.506835938 38 l 2
 370.193359375 -24 340.174804688 -73.1669921875 294.454101562 -109.5 c 0
 248.732421875 -145.833007812 192.872070312 -164 126.872070312 -164 c 0
 66.205078125 -164 22.1162109375 -150.666992188 -5.39453125 -124 c 0
270.831054688 178 m 0
 290.473632812 196.666992188 304.374023438 223.666992188 312.53125 259 c 2
 323.612304688 307 l 2
 331.76953125 342.333007812 330.502929688 369.333007812 319.8125 388 c 0
 309.122070312 406.666992188 290.444335938 416 263.77734375 416 c 0
 208.444335938 416 172.388671875 379.666992188 155.612304688 307 c 2
 144.53125 259 l 2
 127.754882812 186.333007812 146.033203125 150 199.366210938 150 c 0
 227.366210938 150 251.1875 159.333007812 270.831054688 178 c 0
EndSplineSet
EndChar

StartChar: h
Encoding: 104 104 74
Width: 520
GlyphClass: 2
Flags: MW
HStem: 0 21G<-30.2666 93.7334 -30.2666 -30.2666 257.733 381.733 257.733 257.733> 416 110<260.774 361.837> 670 20G<129.032 253.032 253.032 253.032>
LayerCount: 2
Fore
SplineSet
129.032226562 690 m 1
 253.032226562 690 l 1
 203.165039062 474 l 1
 222.499023438 491.333007812 243.500976562 504.333007812 266.168945312 513 c 0
 288.8359375 521.666992188 311.836914062 526 335.169921875 526 c 0
 388.50390625 526 426.02734375 509.5 447.7421875 476.5 c 0
 469.456054688 443.5 473.541992188 397.666992188 459.997070312 339 c 2
 381.733398438 0 l 1
 257.733398438 0 l 1
 332.534179688 324 l 2
 339.4609375 354 337.3984375 376.833007812 326.348632812 392.5 c 0
 315.298828125 408.166992188 297.440429688 416 272.774414062 416 c 0
 248.774414062 416 227.094726562 408 207.733398438 392 c 0
 188.372070312 376 175.306640625 353.333007812 168.534179688 324 c 2
 93.7333984375 0 l 1
 -30.2666015625 0 l 1
 129.032226562 690 l 1
EndSplineSet
EndChar

StartChar: i
Encoding: 105 105 75
Width: 241
GlyphClass: 2
Flags: MW
HStem: 0 21G<-25.2666 97.7334 -25.2666 -25.2666> 500 20G<94.7842 217.784 217.784 217.784> 591 99<132.032 235.176 109.176 258.032>
VStem: -25.2666 283.299
AnchorPoint: "Anchor-0" 155 520 basechar 0
LayerCount: 2
Fore
SplineSet
94.7841796875 520 m 1
 217.784179688 520 l 1
 97.7333984375 0 l 1
 -25.2666015625 0 l 1
 94.7841796875 520 l 1
132.032226562 690 m 1
 258.032226562 690 l 1
 235.17578125 591 l 1
 109.17578125 591 l 1
 132.032226562 690 l 1
EndSplineSet
EndChar

StartChar: j
Encoding: 106 106 76
Width: 241
GlyphClass: 2
Flags: MW
HStem: -156 107<-128.579 -95.2822 -153.282 -86.5791> 500 20G<94.7842 217.784 217.784 217.784> 591 99<131.032 234.176 108.176 257.032>
LayerCount: 2
Fore
SplineSet
131.032226562 690 m 1
 257.032226562 690 l 1
 234.17578125 591 l 1
 108.17578125 591 l 1
 131.032226562 690 l 1
-128.579101562 -49 m 1
 -86.5791015625 -49 l 2
 -69.24609375 -49 -55.501953125 -44.3330078125 -45.34765625 -35 c 0
 -35.1923828125 -25.6669921875 -27.7294921875 -10.6669921875 -22.9580078125 10 c 2
 94.7841796875 520 l 1
 217.784179688 520 l 1
 98.1953125 2 l 2
 86.4970703125 -48.6669921875 63.826171875 -87.6669921875 30.18359375 -115 c 0
 -3.4599609375 -142.333007812 -45.2822265625 -156 -95.2822265625 -156 c 2
 -153.282226562 -156 l 1
 -128.579101562 -49 l 1
EndSplineSet
EndChar

StartChar: k
Encoding: 107 107 77
Width: 520
GlyphClass: 2
Flags: MW
HStem: 0 21G<-30.2666 93.7334 -30.2666 -30.2666 271.733 271.733 271.733 421.733> 500 20G<381.784 528.784 528.784 528.784> 670 20G<129.032 253.032 253.032 253.032>
LayerCount: 2
Fore
SplineSet
199.0625 218 m 1
 129.287109375 154 l 1
 93.7333984375 0 l 1
 -30.2666015625 0 l 1
 129.032226562 690 l 1
 253.032226562 690 l 1
 163.916992188 304 l 1
 381.784179688 520 l 1
 528.784179688 520 l 1
 302.995117188 313 l 1
 421.733398438 0 l 1
 271.733398438 0 l 1
 199.0625 218 l 1
EndSplineSet
EndChar

StartChar: l
Encoding: 108 108 78
Width: 287
GlyphClass: 2
Flags: MW
HStem: 0 107<102.733 209.436 167.436 184.733> 670 20G<129.032 253.032 253.032 253.032>
LayerCount: 2
Fore
SplineSet
20.6982421875 41 m 0
 -0.658203125 68.3330078125 -5.4873046875 107.333007812 6.2099609375 158 c 2
 129.032226562 690 l 1
 253.032226562 690 l 1
 132.057617188 166 l 2
 127.131835938 144.666992188 127.463867188 129.5 133.052734375 120.5 c 0
 138.641601562 111.5 150.102539062 107 167.435546875 107 c 2
 209.435546875 107 l 1
 184.733398438 0 l 1
 127.733398438 0 l 2
 77.7333984375 0 42.0556640625 13.6669921875 20.6982421875 41 c 0
EndSplineSet
EndChar

StartChar: m
Encoding: 109 109 79
Width: 808
GlyphClass: 2
Flags: MW
HStem: 0 21G<-30.2666 93.7334 -30.2666 -30.2666 257.733 381.733 257.733 257.733 545.733 669.733 545.733 545.733> 416 110<260.441 364.17>
LayerCount: 2
Fore
SplineSet
89.7841796875 520 m 1
 210.784179688 520 l 1
 199.93359375 473 l 1
 219.114257812 489.666992188 240.616210938 502.666992188 264.4375 512 c 0
 288.259765625 521.333007812 311.836914062 526 335.169921875 526 c 0
 393.169921875 526 432.500976562 504.333007812 453.163085938 461 c 1
 503.16796875 504.333007812 557.169921875 526 615.169921875 526 c 0
 670.502929688 526 709.822265625 509.333007812 733.125976562 476 c 0
 756.430664062 442.666992188 761.387695312 397 747.997070312 339 c 2
 669.733398438 0 l 1
 545.733398438 0 l 1
 620.534179688 324 l 2
 627.4609375 354 625.231445312 376.833007812 613.848632812 392.5 c 0
 602.465820312 408.166992188 584.774414062 416 560.774414062 416 c 0
 535.440429688 416 513.387695312 407.833007812 494.618164062 391.5 c 0
 475.84765625 375.166992188 463.383789062 353.666992188 457.2265625 327 c 2
 381.733398438 0 l 1
 257.733398438 0 l 1
 332.534179688 324 l 2
 339.4609375 354 337.231445312 376.833007812 325.848632812 392.5 c 0
 314.465820312 408.166992188 296.774414062 416 272.774414062 416 c 0
 248.107421875 416 226.260742188 408 207.233398438 392 c 0
 188.206054688 376 175.306640625 353.333007812 168.534179688 324 c 2
 93.7333984375 0 l 1
 -30.2666015625 0 l 1
 89.7841796875 520 l 1
EndSplineSet
EndChar

StartChar: n
Encoding: 110 110 80
Width: 520
GlyphClass: 2
Flags: MW
HStem: 0 21G<-30.2666 93.7334 -30.2666 -30.2666 257.733 381.733 257.733 257.733> 416 110<260.774 361.837>
AnchorPoint: "Anchor-0" 295 520 basechar 0
LayerCount: 2
Fore
SplineSet
89.7841796875 520 m 1
 210.784179688 520 l 1
 199.93359375 473 l 1
 219.268554688 490.333007812 240.80859375 503.5 264.552734375 512.5 c 0
 288.297851562 521.5 311.836914062 526 335.169921875 526 c 0
 388.50390625 526 425.989257812 509.333007812 447.625976562 476 c 0
 469.263671875 442.666992188 473.387695312 397 459.997070312 339 c 2
 381.733398438 0 l 1
 257.733398438 0 l 1
 332.534179688 324 l 2
 339.306640625 353.333007812 337.206054688 376 326.233398438 392 c 0
 315.260742188 408 297.440429688 416 272.774414062 416 c 0
 248.774414062 416 227.094726562 408 207.733398438 392 c 0
 188.372070312 376 175.306640625 353.333007812 168.534179688 324 c 2
 93.7333984375 0 l 1
 -30.2666015625 0 l 1
 89.7841796875 520 l 1
EndSplineSet
EndChar

StartChar: o
Encoding: 111 111 81
Width: 510
GlyphClass: 2
Flags: MW
HStem: -6 110<166.41 202.681> 416 110<260.503 296.441>
AnchorPoint: "Anchor-0" 291 520 basechar 0
LayerCount: 2
Fore
SplineSet
28.083984375 47 m 0
 -1.42578125 82.3330078125 -7.5615234375 137.333007812 9.6767578125 212 c 2
 32.0712890625 309 l 2
 49.1552734375 383 80.609375 437.666992188 126.43359375 473 c 0
 172.2578125 508.333007812 227.836914062 526 293.169921875 526 c 0
 357.836914062 526 404.7578125 508.333007812 433.93359375 473 c 0
 463.109375 437.666992188 469.155273438 383 452.071289062 309 c 2
 429.676757812 212 l 2
 412.438476562 137.333007812 381.07421875 82.3330078125 335.583984375 47 c 0
 290.09375 11.6669921875 235.014648438 -6 170.34765625 -6 c 0
 105.014648438 -6 57.59375 11.6669921875 28.083984375 47 c 0
306.908203125 213 m 2
 328.609375 307 l 2
 345.385742188 379.666992188 325.107421875 416 267.774414062 416 c 0
 209.107421875 416 171.385742188 379.666992188 154.609375 307 c 2
 132.908203125 213 l 2
 116.131835938 140.333007812 137.076171875 104 195.743164062 104 c 0
 253.076171875 104 290.131835938 140.333007812 306.908203125 213 c 2
EndSplineSet
Substitution2: "Single Substitution lookup 6 subtable" ordmasculine
Substitution2: "'aalt' Access All Alternates lookup 0 subtable" ordmasculine
EndChar

StartChar: p
Encoding: 112 112 82
Width: 515
GlyphClass: 2
Flags: MW
HStem: -156 21G<-66.2822 57.7178 -66.2822 -66.2822> -6 110<191.742 232.409 191.742 237.014> 416 110<261.44 357.17>
LayerCount: 2
Fore
SplineSet
89.7841796875 520 m 1
 210.783203125 520 l 1
 198.547851562 467 l 1
 238.294921875 506.333007812 282.502929688 526 331.169921875 526 c 0
 383.169921875 526 421.423828125 508.333007812 445.93359375 473 c 0
 470.443359375 437.666992188 474.38671875 384 457.763671875 312 c 2
 433.984375 209 l 2
 417.362304688 137 388.600585938 83.1669921875 347.69921875 47.5 c 0
 306.797851562 11.8330078125 261.680664062 -6 212.34765625 -6 c 0
 161.014648438 -6 125.09375 11.6669921875 104.583984375 47 c 1
 57.7177734375 -156 l 1
 -66.2822265625 -156 l 1
 89.7841796875 520 l 1
310.907226562 213 m 2
 332.608398438 307 l 2
 341.536132812 345.666992188 340.4609375 373.5 329.385742188 390.5 c 0
 318.310546875 407.5 300.106445312 416 274.7734375 416 c 0
 248.106445312 416 224.951171875 406.666992188 205.30859375 388 c 0
 185.666015625 369.333007812 171.765625 342.333007812 163.608398438 307 c 2
 141.907226562 213 l 2
 133.75 177.666992188 135.349609375 150.666992188 146.70703125 132 c 0
 158.064453125 113.333007812 177.7421875 104 205.7421875 104 c 0
 259.075195312 104 294.130859375 140.333007812 310.907226562 213 c 2
EndSplineSet
EndChar

StartChar: q
Encoding: 113 113 83
Width: 514
GlyphClass: 2
Flags: MW
HStem: -156 21G<216.718 339.718 216.718 216.718> -6 110<106.348 202.743> 416 110<236.108 277.108>
LayerCount: 2
Fore
SplineSet
263.583984375 47 m 1
 226.759765625 11.6669921875 182.680664062 -6 131.34765625 -6 c 0
 81.34765625 -6 44.2978515625 11.8330078125 20.19921875 47.5 c 0
 -3.8994140625 83.1669921875 -7.6376953125 137 8.984375 209 c 2
 32.763671875 312 l 2
 49.38671875 384 77.943359375 437.666992188 118.43359375 473 c 0
 158.923828125 508.333007812 205.169921875 526 257.169921875 526 c 0
 307.169921875 526 342.295898438 506.333007812 362.548828125 467 c 1
 374.784179688 520 l 1
 495.784179688 520 l 1
 339.717773438 -156 l 1
 216.717773438 -156 l 1
 263.583984375 47 l 1
260.208007812 132 m 0
 279.850585938 150.666992188 293.750976562 177.666992188 301.908203125 213 c 2
 323.609375 307 l 2
 331.766601562 342.333007812 330.5 369.333007812 319.809570312 388 c 0
 309.119140625 406.666992188 290.44140625 416 263.774414062 416 c 0
 208.44140625 416 172.385742188 379.666992188 155.609375 307 c 2
 133.908203125 213 l 2
 117.131835938 140.333007812 135.41015625 104 188.743164062 104 c 0
 216.743164062 104 240.565429688 113.333007812 260.208007812 132 c 0
EndSplineSet
EndChar

StartChar: r
Encoding: 114 114 84
Width: 358
GlyphClass: 2
Flags: MW
HStem: 0 21G<-30.2666 93.7334 -30.2666 -30.2666> 422 109<276.159 343.991> 500 20G<89.7842 210.784 210.784 210.784>
LayerCount: 2
Fore
SplineSet
89.7841796875 520 m 1xa0
 210.784179688 520 l 1xa0
 198.317382812 466 l 1
 216.063476562 488 236.834960938 504.333007812 260.629882812 515 c 0
 284.42578125 525.666992188 309.657226562 531 336.32421875 531 c 0
 351.657226562 531 365.349609375 529.666992188 377.400390625 527 c 1
 350.620117188 411 l 1
 328.979492188 418.333007812 309.159179688 422 291.159179688 422 c 0xc0
 261.159179688 422 234.798828125 412.5 212.080078125 393.5 c 0
 189.360351562 374.5 173.920898438 347.333007812 165.763671875 312 c 2
 93.7333984375 0 l 1
 -30.2666015625 0 l 1
 89.7841796875 520 l 1xa0
EndSplineSet
EndChar

StartChar: s
Encoding: 115 115 85
Width: 474
GlyphClass: 2
Flags: MW
HStem: -6 100<161.767 178.348> 429 97<245.835 264.443>
AnchorPoint: "Anchor-0" 272 520 basechar 0
LayerCount: 2
Fore
SplineSet
14.390625 37.5 m 0
 -14.9140625 66.5 -23.9501953125 105.333007812 -12.7138671875 154 c 2
 -11.791015625 158 l 1
 104.208984375 158 l 1
 103.748046875 156 l 2
 99.2841796875 136.666992188 103.615234375 121.5 116.743164062 110.5 c 0
 129.870117188 99.5 149.100585938 94 174.43359375 94 c 0
 201.767578125 94 224.216796875 98.8330078125 241.78125 108.5 c 0
 259.345703125 118.166992188 270.360351562 132.666992188 274.82421875 152 c 0
 278.517578125 168 275.698242188 180.333007812 266.366210938 189 c 0
 257.034179688 197.666992188 239.49609375 204 213.752929688 208 c 2
 160.830078125 217 l 2
 110.831054688 225.666992188 76.1923828125 241.666992188 56.912109375 265 c 0
 37.6318359375 288.333984375 32.9951171875 321.666992188 42.9990234375 365 c 0
 54.388671875 414.333007812 81.59765625 453.5 124.625976562 482.5 c 0
 167.654296875 511.5 217.501953125 526 274.168945312 526 c 0
 312.8359375 526 345.501953125 519.5 372.16796875 506.5 c 0
 398.833984375 493.5 417.677734375 475.5 428.701171875 452.5 c 0
 439.723632812 429.5 441.926757812 403.666992188 435.30859375 375 c 2
 433.923828125 369 l 1
 318.923828125 369 l 1
 319.616210938 372 l 2
 323.771484375 390 319.836914062 404 307.8125 414 c 0
 295.788085938 424 277.109375 429 251.776367188 429 c 0
 226.442382812 429 205.955078125 424 190.313476562 414 c 0
 174.671875 404 164.926757812 390.666992188 161.079101562 374 c 0
 157.5390625 358.666992188 159.935546875 346.666992188 168.267578125 338 c 0
 176.599609375 329.333007812 192.047851562 323.333007812 214.611328125 320 c 2
 273.533203125 311 l 2
 323.83984375 303.666992188 359.146484375 287.666992188 379.451171875 263 c 0
 399.756835938 238.333007812 404.907226562 204.333007812 394.903320312 161 c 0
 382.58984375 107.666992188 353.752929688 66.5 308.390625 37.5 c 0
 263.028320312 8.5 209.34765625 -6 147.34765625 -6 c 0
 88.0146484375 -6 43.6953125 8.5 14.390625 37.5 c 0
EndSplineSet
EndChar

StartChar: t
Encoding: 116 116 86
Width: 352
GlyphClass: 2
Flags: MW
HStem: 0 105<143.067 249.975 210.975 225.733> 433 87<60.7842 112.699 40.6992 132.784 255.784 335.699>
VStem: 40.6992 315.085<433 520>
LayerCount: 2
Fore
SplineSet
235.69921875 433 m 1
 172.209960938 158 l 2
 164.052734375 122.666992188 176.974609375 105 210.974609375 105 c 2
 249.974609375 105 l 1
 225.733398438 0 l 1
 166.733398438 0 l 2
 119.400390625 0 85.0166015625 13.5 63.5830078125 40.5 c 0
 42.1494140625 67.5 36.7431640625 104 47.36328125 150 c 2
 112.69921875 433 l 1
 40.69921875 433 l 1
 60.7841796875 520 l 1
 132.784179688 520 l 1
 156.333007812 622 l 1
 289.260742188 665 l 1
 255.784179688 520 l 1
 355.784179688 520 l 1
 335.69921875 433 l 1
 235.69921875 433 l 1
EndSplineSet
EndChar

StartChar: u
Encoding: 117 117 87
Width: 520
GlyphClass: 2
Flags: MW
HStem: -6 110<183.41 209.014> 500 20G<89.7842 213.784 213.784 213.784 377.784 501.784 501.784 501.784>
AnchorPoint: "Anchor-0" 295 520 basechar 0
LayerCount: 2
Fore
SplineSet
18.2158203125 210 m 2
 89.7841796875 520 l 1
 213.784179688 520 l 1
 143.600585938 216 l 2
 135.135742188 179.333007812 134.209960938 151.5 140.823242188 132.5 c 0
 147.436523438 113.5 167.076171875 104 199.743164062 104 c 0
 232.41015625 104 256.321289062 113 271.4765625 131 c 0
 286.6328125 149 298.673828125 177.333007812 307.600585938 216 c 2
 377.784179688 520 l 1
 501.784179688 520 l 1
 430.215820312 210 l 2
 413.592773438 138 384.125976562 84 341.814453125 48 c 0
 299.50390625 12 243.680664062 -6 174.34765625 -6 c 0
 37.0146484375 -6 -15.029296875 66 18.2158203125 210 c 2
EndSplineSet
EndChar

StartChar: v
Encoding: 118 118 88
Width: 481
GlyphClass: 2
Flags: MW
HStem: 0 21G<104.733 206.733 104.733 104.733> 500 20G<44.7842 175.784 175.784 175.784 376.784 507.784 507.784 507.784>
VStem: 44.7842 131<520 520>
LayerCount: 2
Fore
SplineSet
44.7841796875 520 m 1
 175.784179688 520 l 1
 200.59765625 190 l 1
 376.784179688 520 l 1
 507.784179688 520 l 1
 206.733398438 0 l 1
 104.733398438 0 l 1
 44.7841796875 520 l 1
EndSplineSet
EndChar

StartChar: w
Encoding: 119 119 89
Width: 736
GlyphClass: 2
Flags: MW
HStem: 0 21G<76.7334 181.733 76.7334 76.7334 384.733 489.733 384.733 384.733> 500 20G<44.7842 175.784 175.784 175.784 356.784 449.784 449.784 449.784 630.784 762.784 762.784 762.784>
VStem: 44.7842 131<520 520>
LayerCount: 2
Fore
SplineSet
44.7841796875 520 m 1
 175.784179688 520 l 1
 180.59765625 190 l 1
 356.784179688 520 l 1
 449.784179688 520 l 1
 473.59765625 190 l 1
 630.784179688 520 l 1
 762.784179688 520 l 1
 489.733398438 0 l 1
 384.733398438 0 l 1
 360.536132812 337 l 1
 181.733398438 0 l 1
 76.7333984375 0 l 1
 44.7841796875 520 l 1
EndSplineSet
EndChar

StartChar: x
Encoding: 120 120 90
Width: 459
GlyphClass: 2
Flags: MW
HStem: 0 21G<-75.2666 54.7334 -75.2666 -75.2666 236.733 365.733 236.733 236.733> 500 20G<53.7842 183.784 183.784 183.784 346.784 476.784 476.784 476.784>
LayerCount: 2
Fore
SplineSet
236.733398438 0 m 1
 178.595703125 164 l 1
 54.7333984375 0 l 1
 -75.2666015625 0 l 1
 142.60546875 268 l 1
 53.7841796875 520 l 1
 183.784179688 520 l 1
 235.616210938 372 l 1
 346.784179688 520 l 1
 476.784179688 520 l 1
 270.529296875 272 l 1
 365.733398438 0 l 1
 236.733398438 0 l 1
EndSplineSet
EndChar

StartChar: y
Encoding: 121 121 91
Width: 482
GlyphClass: 2
Flags: MW
HStem: -154 111<-18.1943 -0.820312 -43.8203 20.8057> 500 20G<44.7842 175.784 175.784 175.784 381.784 508.784 508.784 508.784>
VStem: 44.7842 131<520 520>
AnchorPoint: "Anchor-0" 276 520 basechar 0
LayerCount: 2
Fore
SplineSet
508.784179688 520 m 1
 181.34375 -45 l 2
 159.23828125 -83 133.68359375 -110.666992188 104.681640625 -128 c 0
 75.6806640625 -145.333007812 40.5126953125 -154 -0.8203125 -154 c 2
 -43.8203125 -154 l 1
 -18.1943359375 -43 l 1
 20.8056640625 -43 l 2
 40.8056640625 -43 56.447265625 -39.5 67.7294921875 -32.5 c 0
 79.0126953125 -25.5 89.8857421875 -12.3330078125 100.349609375 7 c 2
 103.96484375 14 l 1
 44.7841796875 520 l 1
 175.784179688 520 l 1
 202.291015625 193 l 1
 381.784179688 520 l 1
 508.784179688 520 l 1
EndSplineSet
EndChar

StartChar: z
Encoding: 122 122 92
Width: 455
GlyphClass: 2
Flags: MW
HStem: 0 104<-15.2568 -15.2568 119.743 325.733 -39.2666 -15.2568> 416 104<80.7842 286.774 56.7744 445.784 421.774 421.774>
AnchorPoint: "Anchor-0" 262 520 basechar 0
LayerCount: 2
Fore
SplineSet
421.774414062 416 m 1
 119.743164062 104 l 1
 349.743164062 104 l 1
 325.733398438 0 l 1
 -39.2666015625 0 l 1
 -15.2568359375 104 l 1
 286.774414062 416 l 1
 56.7744140625 416 l 1
 80.7841796875 520 l 1
 445.784179688 520 l 1
 421.774414062 416 l 1
EndSplineSet
EndChar

StartChar: braceleft
Encoding: 123 123 93
Width: 360
GlyphClass: 2
Flags: MW
HStem: -84 100<121.34 234.427 199.427 211.34> 640 100<331.575 343.488 343.488 378.488>
LayerCount: 2
Fore
SplineSet
56.6123046875 -52.5 m 0
 40.1279296875 -31.5 36.501953125 -1 45.7373046875 39 c 2
 82.2138671875 197 l 2
 88.6787109375 225 87.7060546875 245.333007812 79.296875 258 c 0
 70.888671875 270.666992188 52.68359375 277 24.68359375 277 c 1
 49.1552734375 383 l 1
 77.1552734375 383 98.28515625 389.333007812 112.541992188 402 c 0
 126.799804688 414.666992188 137.161132812 435 143.625 463 c 2
 179.409179688 618 l 2
 188.490234375 657.333007812 206.122070312 687.5 232.303710938 708.5 c 0
 258.484375 729.5 291.575195312 740 331.575195312 740 c 2
 401.575195312 740 l 1
 378.48828125 640 l 1
 343.48828125 640 l 2
 315.48828125 640 298.102539062 625.333007812 291.330078125 596 c 2
 259.240234375 457 l 2
 250.466796875 419 238.719726562 390.5 224.000976562 371.5 c 0
 209.28125 352.5 187.587890625 338.666992188 158.919921875 330 c 1
 183.431640625 320.666992188 198.700195312 306.666992188 204.723632812 288 c 0
 210.74609375 269.333007812 209.372070312 241 200.599609375 203 c 2
 167.584960938 60 l 2
 160.813476562 30.6669921875 171.426757812 16 199.426757812 16 c 2
 234.426757812 16 l 1
 211.33984375 -84 l 1
 141.33984375 -84 l 2
 101.33984375 -84 73.09765625 -73.5 56.6123046875 -52.5 c 0
EndSplineSet
EndChar

StartChar: bar
Encoding: 124 124 94
Width: 295
GlyphClass: 2
Flags: MW
VStem: -13.6602 305.235
LayerCount: 2
Fore
SplineSet
176.575195312 740 m 1
 291.575195312 740 l 1
 101.33984375 -84 l 1
 -13.66015625 -84 l 1
 176.575195312 740 l 1
EndSplineSet
EndChar

StartChar: braceright
Encoding: 125 125 95
Width: 360
GlyphClass: 2
Flags: MW
HStem: -84 100<-35.5732 -0.572266 -0.572266 12.3398 -58.6602 -0.572266> 640 100<131.575 143.488 108.488 202.575>
LayerCount: 2
Fore
SplineSet
-35.5732421875 16 m 1
 -0.572265625 16 l 2
 28.0947265625 16 45.814453125 30.6669921875 52.5859375 60 c 2
 85.6005859375 203 l 2
 94.373046875 241 106.081054688 269.333007812 120.724609375 288 c 0
 135.3671875 306.666992188 157.098632812 320.666992188 185.920898438 330 c 1
 161.254882812 338.666992188 145.948242188 352.5 140.001953125 371.5 c 0
 134.053710938 390.5 135.466796875 419 144.240234375 457 c 2
 176.330078125 596 l 2
 183.102539062 625.333007812 172.155273438 640 143.48828125 640 c 2
 108.48828125 640 l 1
 131.575195312 740 l 1
 202.575195312 740 l 2
 242.575195312 740 270.651367188 729.5 286.803710938 708.5 c 0
 302.955078125 687.5 306.490234375 657.333007812 297.409179688 618 c 2
 261.625 463 l 2
 255.161132812 435 256.299804688 414.666992188 265.041992188 402 c 0
 273.78515625 389.333007812 291.822265625 383 319.155273438 383 c 1
 294.68359375 277 l 1
 267.350585938 277 246.388671875 270.666992188 231.796875 258 c 0
 217.206054688 245.333007812 206.678710938 225 200.213867188 197 c 2
 163.737304688 39 l 2
 154.501953125 -1 136.9609375 -31.5 111.112304688 -52.5 c 0
 85.2646484375 -73.5 52.33984375 -84 12.33984375 -84 c 2
 -58.66015625 -84 l 1
 -35.5732421875 16 l 1
EndSplineSet
EndChar

StartChar: asciitilde
Encoding: 126 126 96
Width: 529
GlyphClass: 2
Flags: MW
HStem: 195 103<322.531 323.084> 252 102<164.46 165.578>
LayerCount: 2
Fore
SplineSet
262.21484375 203.5 m 0x80
 249.190429688 209.166992188 234.907226562 217.333007812 219.370117188 227.999023438 c 0
 205.37109375 236.666015625 194.461914062 242.833007812 186.641601562 246.5 c 0
 178.8203125 250.166992188 170.244140625 252 160.911132812 252 c 0
 146.911132812 252 133.743164062 247.666992188 121.409179688 239 c 0
 109.076171875 230.333007812 95.2666015625 216 79.982421875 196 c 1
 11.294921875 245 l 1
 35.4521484375 280.333007812 62.0185546875 307.333007812 90.9951171875 326 c 0
 119.971679688 344.666992188 149.459960938 354 179.459960938 354 c 0x40
 196.79296875 354 211.84375 351.333007812 224.612304688 346 c 0
 237.380859375 340.666992188 251.8671875 332.666992188 268.071289062 322 c 0
 280.891601562 314 291.506835938 308 299.916015625 304 c 0
 308.325195312 300 317.53125 298 327.53125 298 c 0x80
 342.198242188 298 355.698242188 302.333007812 368.032226562 311 c 0
 380.366210938 319.666992188 393.841796875 334 408.459960938 354 c 1x40
 477.146484375 305 l 1
 453.65625 269.666992188 427.217773438 242.5 397.831054688 223.5 c 0
 368.444335938 204.5 338.41796875 195 307.750976562 195 c 0
 290.41796875 195 275.239257812 197.833007812 262.21484375 203.5 c 0x80
EndSplineSet
EndChar

StartChar: exclamdown
Encoding: 161 161 98
Width: 249
GlyphClass: 2
Flags: MW
HStem: -156 21G<-66.2822 74.7178 -66.2822 -66.2822> 389 131<93.7842 196.541 63.541 226.784>
VStem: -66.2822 293.066
LayerCount: 2
Fore
SplineSet
93.7841796875 520 m 1
 226.784179688 520 l 1
 196.541015625 389 l 1
 63.541015625 389 l 1
 93.7841796875 520 l 1
60.6845703125 290 m 1
 153.684570312 290 l 1
 74.7177734375 -156 l 1
 -66.2822265625 -156 l 1
 60.6845703125 290 l 1
EndSplineSet
EndChar

StartChar: cent
Encoding: 162 162 99
Width: 547
GlyphClass: 2
Flags: MW
HStem: -5.99805 110.002<163.349 210.744> 416.004 109.995<239.775 286.17>
LayerCount: 2
Fore
SplineSet
334.150390625 331 m 1
 335.536132812 337.00390625 l 2
 341.231445312 361.670898438 338.194335938 381.00390625 326.426757812 395.00390625 c 0
 314.659179688 409.00390625 295.775390625 416.00390625 269.775390625 416.00390625 c 0
 209.775390625 416.00390625 171.38671875 379.670898438 154.610351562 307.00390625 c 2
 132.909179688 213.00390625 l 2
 123.828125 173.670898438 125.197265625 145.670898438 137.015625 129.00390625 c 0
 148.834960938 112.336914062 169.078125 104.00390625 197.744140625 104.00390625 c 0
 223.744140625 104.00390625 245.783203125 110.670898438 263.861328125 124.00390625 c 0
 281.939453125 137.336914062 293.749023438 156.00390625 299.290039062 180.00390625 c 2
 300.67578125 186.00390625 l 1
 418.67578125 186.00390625 l 1
 417.059570312 179.00390625 l 2
 405.82421875 130.336914062 383.217773438 90.169921875 349.239257812 58.5029296875 c 0
 315.26171875 26.8359375 273.272460938 6.6689453125 223.271484375 -1.998046875 c 1
 200.646484375 -99.998046875 l 1
 141.646484375 -99.998046875 l 1
 163.348632812 -5.998046875 l 1
 100.323242188 -4.6650390625 54.72265625 13.66796875 26.546875 49.0009765625 c 0
 -1.62890625 84.333984375 -7.251953125 138.666992188 9.677734375 212 c 2
 32.072265625 309 l 2
 48.8486328125 381.666992188 79.482421875 435.666992188 123.97265625 471 c 0
 168.462890625 506.333007812 222.528320312 524.666015625 286.169921875 525.999023438 c 1
 311.333984375 634.999023438 l 1
 370.333984375 634.999023438 l 1
 344.24609375 521.999023438 l 1
 390.912109375 513.33203125 423.794921875 493.33203125 442.893554688 461.999023438 c 0
 461.993164062 430.666015625 465.848632812 390.333007812 454.458984375 341 c 2
 452.150390625 331 l 1
 334.150390625 331 l 1
EndSplineSet
EndChar

StartChar: sterling
Encoding: 163 163 100
Width: 466
GlyphClass: 2
Flags: MW
HStem: 0.000976562 112.999<128.821 128.821 128.821 356.733> 276.001 114<30.7715 66.4531 4.45312 92.7715 30.7715 197.453 223.771 327.453> 589.001 111<316.341 329.381>
LayerCount: 2
Fore
SplineSet
128.821289062 113 m 1
 382.821289062 113.000976562 l 1
 356.733398438 0.0009765625 l 1
 -41.2666015625 0.0009765625 l 1
 -16.3330078125 108.000976562 l 1
 1.3603515625 115.333984375 15.1552734375 126.000976562 25.0546875 140.000976562 c 0
 34.9541015625 154.000976562 42.9814453125 174.333984375 49.1376953125 201.000976562 c 2
 66.453125 276.000976562 l 1
 4.453125 276.000976562 l 1
 30.771484375 390.000976562 l 1
 92.771484375 390.000976562 l 1
 120.9375 512.000976562 l 2
 134.790039062 572.000976562 161.153320312 618.333984375 200.028320312 651.000976562 c 0
 238.903320312 683.66796875 287.340820312 700.000976562 345.340820312 700.000976562 c 0
 398.673828125 700.000976562 437.532226562 685.66796875 461.9140625 657.000976562 c 0
 486.295898438 628.333984375 492.330078125 587.333984375 480.016601562 534.000976562 c 1
 358.016601562 534.000976562 l 1
 362.018554688 551.333984375 360.802734375 564.833984375 354.3671875 574.500976562 c 0
 347.931640625 584.16796875 337.047851562 589.000976562 321.71484375 589.000976562 c 0
 305.047851562 589.000976562 290.9453125 583.500976562 279.405273438 572.500976562 c 0
 267.866210938 561.500976562 259.864257812 546.333984375 255.400390625 527.000976562 c 2
 223.771484375 390.000976562 l 1
 353.771484375 390.000976562 l 1
 327.453125 276.000976562 l 1
 197.453125 276.000976562 l 1
 183.138671875 214.000976562 l 2
 172.827148438 169.333984375 154.721679688 135.666992188 128.821289062 113 c 1
EndSplineSet
EndChar

StartChar: currency
Encoding: 164 164 101
Width: 595
GlyphClass: 2
Flags: MW
HStem: 112 98<246.549 257.924> 421 98<313.887 324.929>
LayerCount: 2
Fore
SplineSet
350.0546875 140 m 1
 314.412109375 121.333007812 277.2578125 112 238.590820312 112 c 0
 199.923828125 112 167.078125 121.333007812 140.0546875 140 c 1
 60.0478515625 75 l 1
 3.9013671875 148 l 1
 85.138671875 214 l 1
 74.578125 243.333007812 73.7607421875 277.333007812 82.6875 316 c 0
 90.9990234375 352 107.848632812 386 133.236328125 418 c 1
 81.7041015625 485 l 1
 171.557617188 558 l 1
 222.3203125 492 l 1
 258.475585938 510 295.220703125 519 332.553710938 519 c 0
 369.88671875 519 402.475585938 510 430.3203125 492 c 1
 512.557617188 558 l 1
 567.704101562 485 l 1
 486.236328125 418 l 1
 496.848632812 386 497.999023438 352 489.6875 316 c 0
 480.9140625 278 464.321289062 243.666992188 439.908203125 213 c 1
 490.670898438 147 l 1
 400.817382812 74 l 1
 350.0546875 140 l 1
342.256835938 240.5 m 0
 366.284179688 260.833007812 381.76171875 286 388.6875 316 c 0
 395.61328125 346 391.717773438 371 377.002929688 391 c 0
 362.287109375 411 339.928710938 421 309.928710938 421 c 0
 280.595703125 421 253.954101562 411 230.00390625 391 c 0
 206.052734375 371 190.614257812 346 183.688476562 316 c 0
 176.762695312 286 180.619140625 260.833007812 195.2578125 240.5 c 0
 209.896484375 220.166992188 231.8828125 210 261.215820312 210 c 0
 291.215820312 210 318.229492188 220.166992188 342.256835938 240.5 c 0
EndSplineSet
EndChar

StartChar: yen
Encoding: 165 165 102
Width: 497
GlyphClass: 2
Flags: MW
HStem: 0 21G<98.7334 229.733 98.7334 98.7334> 117 88<17.0615 125.745 -3.25488 146.062 277.062 385.745> 260 88<50.0752 158.075 50.0752 158.759 29.7588 158.075 331.075 418.759> 670 20G<82.0322 217.032 217.032 217.032 431.032 565.032 565.032 565.032>
LayerCount: 2
Fore
SplineSet
125.745117188 117 m 1
 -3.2548828125 117 l 1
 17.0615234375 205 l 1
 146.061523438 205 l 1
 158.758789062 260 l 1
 29.7587890625 260 l 1
 50.0751953125 348 l 1
 158.075195312 348 l 1
 82.0322265625 690 l 1
 217.032226562 690 l 1
 262.08203125 413 l 1
 431.032226562 690 l 1
 565.032226562 690 l 1
 331.075195312 348 l 1
 439.075195312 348 l 1
 418.758789062 260 l 1
 289.758789062 260 l 1
 277.061523438 205 l 1
 406.061523438 205 l 1
 385.745117188 117 l 1
 256.745117188 117 l 1
 229.733398438 0 l 1
 98.7333984375 0 l 1
 125.745117188 117 l 1
EndSplineSet
EndChar

StartChar: brokenbar
Encoding: 166 166 103
Width: 295
GlyphClass: 2
Flags: MW
VStem: -13.6602 305.235
LayerCount: 2
Fore
SplineSet
176.575195312 740 m 1
 291.575195312 740 l 1
 210.309570312 388 l 1
 95.3095703125 388 l 1
 176.575195312 740 l 1
68.0673828125 270 m 1
 183.067382812 270 l 1
 101.33984375 -84 l 1
 -13.66015625 -84 l 1
 68.0673828125 270 l 1
EndSplineSet
EndChar

StartChar: section
Encoding: 167 167 104
Width: 511
GlyphClass: 2
Flags: MW
HStem: -168 101.999<129.162 156.28> 613.998 102.001<321.369 338.153>
VStem: -10.3438 113<3.99902 3.99902>
LayerCount: 2
Fore
SplineSet
6.3359375 -123 m 0
 -17.404296875 -93 -22.96484375 -50.66796875 -10.34375 3.9990234375 c 1
 102.65625 3.9990234375 l 1
 91.8828125 -42.66796875 107.828125 -66.0009765625 150.495117188 -66.0009765625 c 0
 171.162109375 -66.0009765625 188.060546875 -60.66796875 201.190429688 -50.0009765625 c 0
 214.3203125 -39.333984375 222.961914062 -25.0009765625 227.118164062 -7.0009765625 c 0
 232.658203125 16.9990234375 229.467773438 35.666015625 217.546875 48.9990234375 c 0
 205.625 62.33203125 180.3046875 74.6650390625 141.587890625 85.998046875 c 0
 94.8203125 99.998046875 63.0146484375 122.498046875 46.171875 153.498046875 c 0
 29.3291015625 184.498046875 26.6787109375 224.998046875 38.22265625 274.998046875 c 0
 46.2255859375 309.665039062 60.97265625 340.33203125 82.462890625 366.999023438 c 0
 103.952148438 393.666015625 130.056640625 414.333007812 160.775390625 429 c 1
 140.520507812 442.333984375 127.85546875 459.666992188 122.780273438 480.999023438 c 0
 117.706054688 502.333007812 118.477539062 527.333007812 125.095703125 555.999023438 c 0
 132.021484375 585.999023438 145.626953125 613.166015625 165.911132812 637.499023438 c 0
 186.196289062 661.83203125 211.288085938 680.999023438 241.1875 694.999023438 c 0
 271.0859375 708.999023438 303.702148438 715.999023438 339.03515625 715.999023438 c 0
 397.03515625 715.999023438 437.328125 700.666015625 459.916015625 669.999023438 c 0
 482.502929688 639.33203125 487.715820312 597.665039062 475.556640625 544.998046875 c 1
 363.556640625 544.998046875 l 1
 374.176757812 590.998046875 358.819335938 613.998046875 317.486328125 613.998046875 c 0
 298.819335938 613.998046875 282.921875 608.665039062 269.791992188 597.998046875 c 0
 256.662109375 587.331054688 248.020507812 572.998046875 243.864257812 554.998046875 c 0
 238.477539062 531.663085938 241.860351562 513.830078125 254.013671875 501.499023438 c 0
 266.166015625 489.166015625 290.934570312 477.333007812 328.317382812 466 c 0
 375.0859375 452 406.890625 429.5 423.734375 398.5 c 0
 440.577148438 367.5 443.2265625 327 431.68359375 277 c 0
 423.6796875 242.333007812 408.5234375 211.333007812 386.212890625 184 c 0
 363.90234375 156.666992188 337.952148438 136.666992188 308.360351562 124 c 1
 330.307617188 109.333007812 343.857421875 91.5 349.009765625 70.5 c 0
 354.161132812 49.5 352.965820312 22.6669921875 345.424804688 -10 c 0
 334.8046875 -56 309.737304688 -93.8330078125 270.220703125 -123.5 c 0
 230.705078125 -153.166992188 183.61328125 -168 128.947265625 -168 c 0
 70.947265625 -168 30.0771484375 -153 6.3359375 -123 c 0
276.561523438 211.499023438 m 0
 293.51171875 227.166015625 305.143554688 248.666015625 311.453125 275.999023438 c 0
 317.763671875 303.33203125 316.060546875 324.83203125 306.344726562 340.499023438 c 0
 296.62890625 356.166015625 279.76953125 363.999023438 255.76953125 363.999023438 c 0
 231.102539062 363.999023438 210.166015625 356.33203125 192.958984375 340.999023438 c 0
 175.751953125 325.666015625 163.916992188 303.999023438 157.452148438 275.999023438 c 0
 150.98828125 247.999023438 152.819335938 226.33203125 162.946289062 210.999023438 c 0
 173.073242188 195.666015625 190.469726562 187.999023438 215.135742188 187.999023438 c 0
 239.135742188 187.999023438 259.611328125 195.83203125 276.561523438 211.499023438 c 0
236.958007812 706.999023438 m 1024
EndSplineSet
EndChar

StartChar: dieresis
Encoding: 168 168 105
Width: 500
GlyphClass: 2
Flags: MW
HStem: 587 116<178.033 258.253 151.253 285.033 178.033 343.253 370.033 450.253>
VStem: 151.253 325.78<587 703>
LayerCount: 2
Fore
SplineSet
178.033203125 703 m 1
 285.033203125 703 l 1
 258.252929688 587 l 1
 151.252929688 587 l 1
 178.033203125 703 l 1
370.033203125 703 m 1
 477.033203125 703 l 1
 450.252929688 587 l 1
 343.252929688 587 l 1
 370.033203125 703 l 1
EndSplineSet
EndChar

StartChar: copyright
Encoding: 169 169 106
Width: 784
GlyphClass: 2
Flags: MW
HStem: -9 77<282.767 339.99> 148 79.999<353.704 366.9> 455.999 80<409.811 426.341> 617 76<433.392 490.846>
LayerCount: 2
Fore
SplineSet
135.313476562 35 m 0
 90.4189453125 64.3330078125 60.08984375 105.5 44.326171875 158.5 c 0
 28.5615234375 211.5 28.68359375 272.666992188 44.6904296875 342 c 0
 60.8505859375 412 89.048828125 473.5 129.28515625 526.5 c 0
 169.521484375 579.5 218.8203125 620.5 277.181640625 649.5 c 0
 335.543945312 678.5 399.05859375 693 467.725585938 693 c 0
 536.392578125 693 593.173828125 678.333007812 638.068359375 649 c 0
 682.963867188 619.666992188 713.291992188 578.5 729.056640625 525.5 c 0
 744.8203125 472.5 744.69921875 411.333007812 728.692382812 342 c 0
 712.685546875 272.666992188 684.563476562 211.5 644.328125 158.5 c 0
 604.091796875 105.5 554.754882812 64.3330078125 496.315429688 35 c 0
 437.875976562 5.6669921875 374.323242188 -9 305.65625 -9 c 0
 236.989257812 -9 180.208007812 5.6669921875 135.313476562 35 c 0
531.901367188 141.5 m 0
 589.546875 190.5 628.143554688 257.333007812 647.690429688 342 c 0
 667.237304688 426.666992188 659.538085938 493.666992188 624.594726562 543 c 0
 589.651367188 592.333007812 531.512695312 617 450.1796875 617 c 0
 368.846679688 617 299.319335938 592.333007812 241.596679688 543 c 0
 183.874023438 493.666992188 145.239257812 426.666992188 125.692382812 342 c 0
 106.145507812 257.333007812 113.8828125 190.5 148.903320312 141.5 c 0
 183.923828125 92.5 242.100585938 68 323.43359375 68 c 0
 404.766601562 68 474.255859375 92.5 531.901367188 141.5 c 0
240.790039062 186.5 m 0
 219.3828125 212.166992188 214.987304688 252.33203125 227.608398438 306.999023438 c 2
 243.76953125 376.999023438 l 2
 256.236328125 430.999023438 279.137695312 470.999023438 312.473632812 496.999023438 c 0
 345.809570312 522.999023438 386.14453125 535.999023438 433.477539062 535.999023438 c 0
 480.14453125 535.999023438 513.874023438 523.999023438 534.666015625 499.999023438 c 0
 555.458007812 475.999023438 561.006835938 442.999023438 551.309570312 400.999023438 c 2
 549.694335938 393.999023438 l 1
 463.694335938 393.999023438 l 1
 464.6171875 397.999023438 l 2
 468.7734375 415.999023438 466.543945312 430.166015625 457.9296875 440.499023438 c 0
 449.314453125 450.83203125 435.674804688 455.999023438 417.0078125 455.999023438 c 0
 373.0078125 455.999023438 344.8515625 429.33203125 332.538085938 375.999023438 c 2
 316.838867188 307.999023438 l 2
 310.067382812 278.666015625 310.962890625 257.999023438 319.525390625 245.999023438 c 0
 328.088867188 233.999023438 343.037109375 227.999023438 364.370117188 227.999023438 c 0
 383.703125 227.999023438 399.818359375 232.83203125 412.717773438 242.499023438 c 0
 425.616210938 252.166015625 434.142578125 265.999023438 438.298828125 283.999023438 c 2
 439.221679688 287.999023438 l 1
 525.221679688 287.999023438 l 1
 524.067382812 282.999023438 l 2
 514.525390625 241.666015625 493.612304688 208.833007812 461.327148438 184.5 c 0
 429.04296875 160.166992188 389.900390625 148 343.900390625 148 c 0
 296.567382812 148 262.197265625 160.833007812 240.790039062 186.5 c 0
EndSplineSet
EndChar

StartChar: ordfeminine
Encoding: 170 170 107
Width: 353
GlyphClass: 2
Flags: MW
HStem: 426.001 73<138.75 201.603> 559.001 60<207.64 207.789 207.789 255.789> 680.001 67.999<237.422 254.389>
LayerCount: 2
Fore
SplineSet
347.842773438 719.5 m 0
 366.123046875 700.5 370.876953125 672.000976562 362.103515625 634.000976562 c 2
 315.006835938 430.000976562 l 1
 229.006835938 430.000976562 l 1
 234.778320312 455.000976562 l 1
 220.982421875 444.333984375 208.250976562 436.833984375 196.583984375 432.500976562 c 0
 184.916015625 428.16796875 171.083007812 426.000976562 155.083007812 426.000976562 c 0
 122.416015625 426.000976562 98.865234375 435.16796875 84.4306640625 453.500976562 c 0
 69.9970703125 471.833984375 66.3203125 496.333984375 73.3994140625 527.000976562 c 0
 79.8642578125 555.000976562 95.0205078125 577.333984375 118.868164062 594.000976562 c 0
 142.715820312 610.66796875 172.306640625 619.000976562 207.639648438 619.000976562 c 2
 269.639648438 619.000976562 l 1
 274.256835938 639.000976562 l 2
 280.567382812 666.333984375 269.055664062 680.000976562 239.72265625 680.000976562 c 0
 227.72265625 680.000976562 217.568359375 677.16796875 209.260742188 671.500976562 c 0
 200.952148438 665.833984375 195.720703125 658.333984375 193.565429688 649.000976562 c 2
 193.104492188 647.000976562 l 1
 110.104492188 647.000976562 l 1
 110.565429688 649.000976562 l 2
 117.799804688 680.333984375 134.416992188 704.666992188 160.418945312 722 c 0
 186.420898438 739.333007812 218.421875 748 256.421875 748 c 0
 299.088867188 748 329.5625 738.5 347.842773438 719.5 c 0
232.9765625 510.000976562 m 0
 242.3359375 517.333984375 248.786132812 528.66796875 252.325195312 544.000976562 c 2
 255.7890625 559.000976562 l 1
 207.7890625 559.000976562 l 2
 180.456054688 559.000976562 164.556640625 549.333984375 160.09375 530.000976562 c 0
 157.938476562 520.66796875 159.540039062 513.16796875 164.899414062 507.500976562 c 0
 170.2578125 501.833984375 179.603515625 499.000976562 192.936523438 499.000976562 c 0
 210.26953125 499.000976562 223.616210938 502.66796875 232.9765625 510.000976562 c 0
277.279296875 847.001953125 m 1024
EndSplineSet
EndChar

StartChar: guillemotleft
Encoding: 171 171 108
Width: 525
GlyphClass: 2
Flags: W
LayerCount: 2
Fore
SplineSet
-5.3173828125 264 m 1
 273.08984375 491 l 1
 242.845703125 360 l 1
 125.682617188 264 l 1
 198.518554688 168 l 1
 168.275390625 37 l 1
 -5.3173828125 264 l 1
220.682617188 264 m 1
 500.08984375 491 l 1
 469.845703125 360 l 1
 351.682617188 264 l 1
 425.518554688 168 l 1
 395.275390625 37 l 1
 220.682617188 264 l 1
EndSplineSet
EndChar

StartChar: logicalnot
Encoding: 172 172 109
Width: 529
GlyphClass: 2
Flags: MW
HStem: 254 111<50 329.374 24.374 478>
LayerCount: 2
Fore
SplineSet
329.374023438 254 m 1
 24.3740234375 254 l 1
 50 365 l 1
 478 365 l 1
 421.4375 120 l 1
 298.4375 120 l 1
 329.374023438 254 l 1
EndSplineSet
EndChar

StartChar: uni00AD
Encoding: 173 173 110
Width: 365
GlyphClass: 2
Flags: MW
HStem: 288 115<53.7734 302.224 27.2236 328.773>
VStem: 27.2236 301.55<288 403>
LayerCount: 2
Fore
SplineSet
53.7734375 403 m 1
 328.7734375 403 l 1
 302.223632812 288 l 1
 27.2236328125 288 l 1
 53.7734375 403 l 1
EndSplineSet
EndChar

StartChar: registered
Encoding: 174 174 111
Width: 495
GlyphClass: 2
Flags: MW
HStem: 308 39.999<221.741 251.841> 472.999 44<257.091 271.933 246.933 290.091> 562.999 44<267.711 300.711 267.711 267.711> 650.999 40<304.596 334.361>
LayerCount: 2
Fore
SplineSet
143.112304688 333 m 0
 118.626953125 349.666992188 101.602539062 372.666015625 92.0419921875 401.999023438 c 0
 82.48046875 431.33203125 81.85546875 463.999023438 90.1669921875 499.999023438 c 0
 98.478515625 535.999023438 114.1484375 568.499023438 137.176757812 597.499023438 c 0
 160.205078125 626.499023438 187.9765625 649.33203125 220.491210938 665.999023438 c 0
 253.005859375 682.666015625 286.9296875 690.999023438 322.262695312 690.999023438 c 0
 358.262695312 690.999023438 388.671875 682.666015625 413.491210938 665.999023438 c 0
 438.310546875 649.33203125 455.5 626.33203125 465.061523438 596.999023438 c 0
 474.622070312 567.665039062 475.32421875 535.33203125 467.166992188 500 c 0
 458.85546875 464 443.147460938 431.333007812 420.041992188 402 c 0
 396.9375 372.666992188 369.126953125 349.666992188 336.612304688 333 c 0
 304.09765625 316.333007812 269.840820312 308 233.840820312 308 c 0
 197.840820312 308 167.59765625 316.333007812 143.112304688 333 c 0
358.385742188 390.499023438 m 0
 391.926757812 418.83203125 413.853515625 455.33203125 424.166015625 499.999023438 c 0
 434.478515625 544.666015625 429.19921875 580.999023438 408.331054688 608.999023438 c 0
 387.461914062 636.999023438 355.694335938 650.999023438 313.02734375 650.999023438 c 0
 270.360351562 650.999023438 232.127929688 636.999023438 198.331054688 608.999023438 c 0
 164.533203125 580.999023438 142.478515625 544.666015625 132.166015625 499.999023438 c 0
 121.853515625 455.33203125 127.09375 418.83203125 147.885742188 390.499023438 c 0
 168.677734375 362.166015625 200.407226562 347.999023438 243.07421875 347.999023438 c 0
 286.407226562 347.999023438 324.844726562 362.166015625 358.385742188 390.499023438 c 0
225.869140625 606.999023438 m 1
 313.869140625 606.999023438 l 2
 338.536132812 606.999023438 356.227539062 601.33203125 366.944335938 589.999023438 c 0
 377.66015625 578.663085938 380.556640625 562.330078125 375.631835938 540.999023438 c 0
 369.166992188 512.999023438 352.216796875 492.999023438 324.779296875 480.999023438 c 1
 346.924804688 394.999023438 l 1
 290.924804688 394.999023438 l 1
 271.932617188 472.999023438 l 1
 246.932617188 472.999023438 l 1
 228.924804688 394.999023438 l 1
 176.924804688 394.999023438 l 1
 225.869140625 606.999023438 l 1
290.090820312 516.999023438 m 2
 308.7578125 516.999023438 319.860351562 524.666015625 323.400390625 539.999023438 c 0
 326.940429688 555.33203125 319.377929688 562.999023438 300.7109375 562.999023438 c 2
 267.7109375 562.999023438 l 1
 257.090820312 516.999023438 l 1
 290.090820312 516.999023438 l 2
EndSplineSet
EndChar

StartChar: macron
Encoding: 175 175 112
Width: 500
GlyphClass: 2
Flags: MW
HStem: 590 110<186.341 442.945 160.945 468.341>
VStem: 160.945 307.396<590 700>
LayerCount: 2
Fore
SplineSet
186.340820312 700 m 1
 468.340820312 700 l 1
 442.9453125 590 l 1
 160.9453125 590 l 1
 186.340820312 700 l 1
EndSplineSet
EndChar

StartChar: degree
Encoding: 176 176 113
Width: 394
GlyphClass: 2
Flags: MW
HStem: 407 75.001<213.677 220.363> 626 75<260.905 267.256>
LayerCount: 2
Fore
SplineSet
111.392578125 449 m 0
 89.857421875 477 83.9365234375 512.000976562 93.6337890625 554.000976562 c 0
 99.943359375 581.333984375 112.009765625 606.166992188 129.833007812 628.5 c 0
 147.65625 650.833007812 169.401367188 668.5 195.069335938 681.5 c 0
 220.73828125 694.5 247.23828125 701 274.571289062 701 c 0
 301.904296875 701 325.237304688 694.5 344.568359375 681.5 c 0
 363.900390625 668.5 377.489257812 650.833007812 385.333007812 628.5 c 0
 393.176757812 606.166015625 393.943359375 581.333007812 387.633789062 554.000976562 c 0
 381.323242188 526.666992188 369.05078125 501.666992188 350.818359375 479.000976562 c 0
 332.584960938 456.333984375 310.83984375 438.666992188 285.58203125 426 c 0
 260.32421875 413.333007812 234.029296875 407 206.696289062 407 c 0
 164.696289062 407 132.928710938 421 111.392578125 449 c 0
278.243164062 502.500976562 m 0
 294.399414062 516.169921875 304.862304688 533.334960938 309.6328125 554 c 0
 314.405273438 574.668945312 311.868164062 591.8359375 302.022460938 605.5 c 0
 292.177734375 619.166992188 277.255859375 626 257.255859375 626 c 0
 236.588867188 626 218.3828125 619.333007812 202.637695312 606 c 0
 186.891601562 592.6640625 176.556640625 575.331054688 171.631835938 554 c 0
 166.70703125 532.665039062 169.038085938 515.33203125 178.626953125 502.000976562 c 0
 188.215820312 488.66796875 203.34375 482.000976562 224.010742188 482.000976562 c 0
 244.010742188 482.000976562 262.087890625 488.833984375 278.243164062 502.500976562 c 0
EndSplineSet
EndChar

StartChar: plusminus
Encoding: 177 177 114
Width: 529
GlyphClass: 2
Flags: MW
HStem: -36 114<-18.2588 388.422 -44.5781 414.741> 281 114<54.9258 188.607 28.6074 214.926 54.9258 302.607 328.926 461.607>
LayerCount: 2
Fore
SplineSet
188.607421875 281 m 1
 28.607421875 281 l 1
 54.92578125 395 l 1
 214.92578125 395 l 1
 251.865234375 555 l 1
 365.865234375 555 l 1
 328.92578125 395 l 1
 487.92578125 395 l 1
 461.607421875 281 l 1
 302.607421875 281 l 1
 265.66796875 121 l 1
 151.66796875 121 l 1
 188.607421875 281 l 1
-18.2587890625 78 m 1
 414.741210938 78 l 1
 388.421875 -36 l 1
 -44.578125 -36 l 1
 -18.2587890625 78 l 1
EndSplineSet
EndChar

StartChar: uni00B2
Encoding: 178 178 115
Width: 346
GlyphClass: 2
Flags: MW
HStem: 430 89<209.554 321.007> 770 86<267.69 268.502>
LayerCount: 2
Fore
SplineSet
77.4755859375 510 m 1
 253.954101562 681 l 2
 271.135742188 697.668945312 281.419921875 713.3359375 284.8046875 728 c 2
 286.420898438 735 l 2
 288.883789062 745.666992188 288.1796875 754.166992188 284.30859375 760.5 c 0
 280.4375 766.833007812 273.501953125 770 263.501953125 770 c 0
 254.16796875 770 246.065429688 766.666992188 239.193359375 760 c 0
 232.3203125 753.333007812 227.576171875 744.333007812 224.959960938 733 c 2
 222.881835938 724 l 1
 123.881835938 724 l 1
 127.344726562 739 l 2
 135.348632812 773.66796875 153.8515625 801.834960938 182.853515625 823.5 c 0
 211.85546875 845.166992188 247.0234375 856 288.356445312 856 c 0
 327.689453125 856 356.740234375 844.666992188 375.506835938 822 c 0
 394.2734375 799.333007812 399.962890625 772 392.575195312 740 c 2
 390.036132812 729 l 2
 385.7265625 710.333007812 378.506835938 693.5 368.376953125 678.5 c 0
 358.247070312 663.5 344.668945312 648 327.641601562 632 c 2
 209.553710938 519 l 1
 341.553710938 519 l 1
 321.006835938 430 l 1
 59.0068359375 430 l 1
 77.4755859375 510 l 1
EndSplineSet
EndChar

StartChar: uni00B3
Encoding: 179 179 116
Width: 341
GlyphClass: 2
Flags: MW
HStem: 423 85.0029<187.681 202.391> 602.003 85<212.34 213.717 192.717 232.34> 770.003 86<261.025 267.835>
LayerCount: 2
Fore
SplineSet
91.5859375 452 m 0
 73.048828125 471.333007812 68.013671875 499.3359375 76.4794921875 536.002929688 c 2
 79.9423828125 551.002929688 l 1
 172.942382812 551.002929688 l 1
 170.633789062 541.002929688 l 2
 165.5546875 519.002929688 175.34765625 508.002929688 200.014648438 508.002929688 c 0
 210.681640625 508.002929688 219.990234375 511.502929688 227.938476562 518.502929688 c 0
 235.887695312 525.502929688 241.325195312 535.3359375 244.25 548.002929688 c 2
 246.327148438 557.002929688 l 2
 253.252929688 587.002929688 242.383789062 602.002929688 213.716796875 602.002929688 c 2
 192.716796875 602.002929688 l 1
 212.33984375 687.002929688 l 1
 232.33984375 687.002929688 l 2
 244.33984375 687.002929688 254.276367188 690.3359375 262.1484375 697.002929688 c 0
 270.021484375 703.669921875 275.342773438 713.002929688 278.11328125 725.002929688 c 2
 279.959960938 733.002929688 l 2
 285.655273438 757.669921875 278.168945312 770.002929688 257.501953125 770.002929688 c 0
 235.501953125 770.002929688 222.1171875 759.669921875 217.345703125 739.002929688 c 2
 214.805664062 728.002929688 l 1
 122.805664062 728.002929688 l 1
 125.114257812 738.002929688 l 2
 133.733398438 775.3359375 151.76171875 804.3359375 179.200195312 825.002929688 c 0
 206.638671875 845.669921875 240.69140625 856.002929688 281.358398438 856.002929688 c 0
 320.69140625 856.002929688 349.138671875 845.669921875 366.700195312 825.002929688 c 0
 384.26171875 804.3359375 389.041015625 776.668945312 381.038085938 742.001953125 c 2
 378.959960938 733.001953125 l 2
 370.6484375 697.001953125 349.159179688 670.334960938 314.490234375 653.001953125 c 1
 330.284179688 646.334960938 340.7578125 634.66796875 345.91015625 618.000976562 c 0
 351.061523438 601.333984375 351.021484375 581.666992188 345.788085938 559 c 2
 343.249023438 548 l 2
 334.475585938 510 315.139648438 479.666992188 285.240234375 457 c 0
 255.33984375 434.333007812 221.390625 423 183.390625 423 c 0
 140.723632812 423 110.122070312 432.666992188 91.5859375 452 c 0
EndSplineSet
EndChar

StartChar: acute
Encoding: 180 180 117
Width: 500
GlyphClass: 2
Flags: MW
HStem: 588 133<178.483 454.189>
VStem: 178.483 275.706<588 721>
LayerCount: 2
Fore
SplineSet
317.189453125 721 m 1
 454.189453125 721 l 1
 285.483398438 588 l 1
 178.483398438 588 l 1
 317.189453125 721 l 1
EndSplineSet
EndChar

StartChar: uni00B5
Encoding: 181 181 118
Width: 520
GlyphClass: 2
Flags: MW
HStem: -156 21G<-66.2822 56.7178 -66.2822 -66.2822> -6 110<143.68 210.742> 500 20G<89.7842 213.782 213.782 213.782 377.783 501.783 501.783 501.783>
LayerCount: 2
Fore
SplineSet
89.7841796875 520 m 1
 213.782226562 520 l 1
 138.981445312 196 l 2
 132.208984375 166.666992188 134.309570312 144 145.282226562 128 c 0
 156.255859375 112 174.075195312 104 198.7421875 104 c 0
 222.7421875 104 244.422851562 112 263.783203125 128 c 0
 283.14453125 144 296.209960938 166.666992188 302.982421875 196 c 2
 377.783203125 520 l 1
 501.783203125 520 l 1
 381.732421875 0 l 1
 260.732421875 0 l 1
 271.583007812 47 l 1
 237.42578125 11.6669921875 198.6796875 -6 155.346679688 -6 c 0
 132.013671875 -6 111.912109375 -0.6669921875 95.0419921875 10 c 1
 56.7177734375 -156 l 1
 -66.2822265625 -156 l 1
 89.7841796875 520 l 1
EndSplineSet
EndChar

StartChar: paragraph
Encoding: 182 182 119
Width: 644
GlyphClass: 2
Flags: MW
HStem: -156 21G<135.718 245.718 135.718 135.718 327.718 434.718 327.718 327.718> 590 100<417.945 499.945 417.945 417.945>
LayerCount: 2
Fore
SplineSet
230.142578125 253 m 1
 192.091796875 255.666992188 160.465820312 266.66796875 135.262695312 286.000976562 c 0
 110.05859375 305.333984375 92.8564453125 331.166992188 83.6533203125 363.5 c 0
 74.451171875 395.833007812 74.4677734375 432 83.703125 472 c 0
 93.091796875 512.666992188 110.80078125 549.666992188 136.829101562 583 c 0
 162.857421875 616.333007812 195.06640625 642.5 233.452148438 661.5 c 0
 271.838867188 680.5 314.365234375 690 361.032226562 690 c 2
 630.032226562 690 l 1
 434.717773438 -156 l 1
 327.717773438 -156 l 1
 499.9453125 590 l 1
 417.9453125 590 l 1
 245.717773438 -156 l 1
 135.717773438 -156 l 1
 230.142578125 253 l 1
EndSplineSet
EndChar

StartChar: periodcentered
Encoding: 183 183 120
Width: 215
GlyphClass: 2
Flags: MW
HStem: 208 142<34.5371 140.754 1.75391 173.537>
VStem: 1.75391 171.783<208 350>
LayerCount: 2
Fore
SplineSet
34.537109375 350 m 1
 173.537109375 350 l 1
 140.75390625 208 l 1
 1.75390625 208 l 1
 34.537109375 350 l 1
EndSplineSet
EndChar

StartChar: cedilla
Encoding: 184 184 121
Width: 500
GlyphClass: 2
Flags: MW
HStem: -156 169<143.734 149.718 35.7178 241.734>
VStem: 35.7178 206.017<-156 13>
LayerCount: 2
Fore
SplineSet
143.734375 13 m 1
 241.734375 13 l 1
 149.717773438 -156 l 1
 35.7177734375 -156 l 1
 143.734375 13 l 1
EndSplineSet
EndChar

StartChar: uni00B9
Encoding: 185 185 122
Width: 253
GlyphClass: 2
Flags: MW
HStem: 689 21G<103.802 103.802>
VStem: 103.802 207.938<689 849>
LayerCount: 2
Fore
SplineSet
182.8828125 737 m 1
 103.801757812 689 l 1
 129.197265625 799 l 1
 209.740234375 849 l 1
 311.740234375 849 l 1
 215.006835938 430 l 1
 112.006835938 430 l 1
 182.8828125 737 l 1
EndSplineSet
EndChar

StartChar: ordmasculine
Encoding: 186 186 123
Width: 355
GlyphClass: 2
Flags: MW
HStem: 426 80.002<194.553 213.083> 668.002 79.999<245.423 261.953>
LayerCount: 2
Fore
SplineSet
100.701171875 459 m 0
 81.7802734375 481 77.4765625 514.334960938 87.7890625 559.000976562 c 2
 100.948242188 616.000976562 l 2
 111.260742188 660.668945312 130.91796875 693.8359375 159.919921875 715.500976562 c 0
 188.921875 737.16796875 224.422851562 748.000976562 266.422851562 748.000976562 c 0
 308.422851562 748.000976562 338.754882812 737.16796875 357.419921875 715.500976562 c 0
 376.083984375 693.833984375 380.259765625 660.666992188 369.948242188 616 c 2
 356.788085938 559 l 2
 346.4765625 514.333007812 326.947265625 481 298.201171875 459 c 0
 269.455078125 437 234.083007812 426 192.083007812 426 c 0
 150.083007812 426 119.622070312 437 100.701171875 459 c 0
266.7890625 559.001953125 m 2
 279.717773438 615.001953125 l 2
 287.875 650.334960938 276.953125 668.001953125 246.953125 668.001953125 c 0
 216.953125 668.001953125 197.875 650.334960938 189.717773438 615.001953125 c 2
 176.7890625 559.001953125 l 2
 168.631835938 523.668945312 179.552734375 506.001953125 209.552734375 506.001953125 c 0
 239.552734375 506.001953125 258.631835938 523.668945312 266.7890625 559.001953125 c 2
277.279296875 847.001953125 m 1024
EndSplineSet
EndChar

StartChar: guillemotright
Encoding: 187 187 124
Width: 525
GlyphClass: 2
Flags: W
LayerCount: 2
Fore
SplineSet
8.5185546875 168 m 1
 126.682617188 264 l 1
 52.845703125 360 l 1
 83.08984375 491 l 1
 257.682617188 264 l 1
 -21.724609375 37 l 1
 8.5185546875 168 l 1
235.518554688 168 m 1
 352.682617188 264 l 1
 279.845703125 360 l 1
 310.08984375 491 l 1
 483.682617188 264 l 1
 205.275390625 37 l 1
 235.518554688 168 l 1
EndSplineSet
EndChar

StartChar: onequarter
Encoding: 188 188 125
Width: 804
GlyphClass: 3
Flags: MW
HStem: 0 21G<28.7334 126.733 28.7334 28.7334 564.733 667.733 564.733 564.733> 57 89<436.439 436.439 539.439 577.893 415.893 436.439 701.439 707.893> 670 20G<173.032 275.032 275.032 275.032>
LayerCount: 2
Fore
SplineSet
146.174804688 578 m 1
 67.0927734375 530 l 1
 92.48828125 640 l 1
 173.032226562 690 l 1
 275.032226562 690 l 1
 178.298828125 271 l 1
 75.298828125 271 l 1
 146.174804688 578 l 1
707.892578125 57 m 1
 680.892578125 57 l 1
 667.733398438 0 l 1
 564.733398438 0 l 1
 577.892578125 57 l 1
 415.892578125 57 l 1
 436.439453125 146 l 1
 614.466796875 419 l 1
 717.466796875 419 l 1
 539.439453125 146 l 1
 598.439453125 146 l 1
 618.755859375 234 l 1
 721.755859375 234 l 1
 701.439453125 146 l 1
 728.439453125 146 l 1
 707.892578125 57 l 1
574.186523438 695 m 1
 673.186523438 695 l 1
 126.733398438 0 l 1
 28.7333984375 0 l 1
 574.186523438 695 l 1
EndSplineSet
Ligature2: "'frac' Diagonal Fractions lookup 2 subtable" one slash four
EndChar

StartChar: onehalf
Encoding: 189 189 126
Width: 803
GlyphClass: 3
Flags: MW
HStem: 0 89<567.28 678.733> 339.999 86.001<625.417 626.229> 670 20G<173.032 275.032 275.032 275.032>
LayerCount: 2
Fore
SplineSet
146.174804688 578 m 1
 67.0927734375 530 l 1
 92.48828125 640 l 1
 173.032226562 690 l 1
 275.032226562 690 l 1
 178.298828125 271 l 1
 75.298828125 271 l 1
 146.174804688 578 l 1
435.202148438 80 m 1
 611.680664062 250.998046875 l 2
 628.861328125 267.665039062 639.145507812 283.33203125 642.53125 297.999023438 c 2
 644.147460938 304.999023438 l 2
 646.610351562 315.666015625 645.905273438 324.166015625 642.03515625 330.499023438 c 0
 638.1640625 336.83203125 631.228515625 339.999023438 621.228515625 339.999023438 c 0
 611.885742188 339.999023438 603.783203125 336.666015625 596.918945312 329.999023438 c 0
 590.046875 323.33203125 585.302734375 314.33203125 582.685546875 302.999023438 c 2
 580.608398438 293.999023438 l 1
 481.608398438 293.999023438 l 1
 485.071289062 308.999023438 l 2
 493.07421875 343.666015625 511.577148438 371.833007812 540.580078125 393.5 c 0
 569.58203125 415.166992188 604.75 426 646.083007812 426 c 0
 685.416015625 426 714.466796875 414.666992188 733.233398438 392 c 0
 752 369.333007812 757.690429688 342 750.302734375 310 c 2
 747.762695312 299 l 2
 743.453125 280.333007812 736.233398438 263.5 726.103515625 248.5 c 0
 715.973632812 233.5 702.395507812 218 685.368164062 202 c 2
 567.280273438 89 l 1
 699.280273438 89 l 1
 678.733398438 0 l 1
 416.733398438 0 l 1
 435.202148438 80 l 1
574.186523438 694.998046875 m 1
 673.186523438 694.998046875 l 1
 126.732421875 -0.001953125 l 1
 28.732421875 -0.001953125 l 1
 574.186523438 694.998046875 l 1
EndSplineSet
Ligature2: "'frac' Diagonal Fractions lookup 2 subtable" one slash two
EndChar

StartChar: threequarters
Encoding: 190 190 127
Width: 892
GlyphClass: 3
Flags: MW
HStem: 0.000976562 21G<116.733 214.733 116.733 116.733 652.733 755.733 652.733 652.733> 57.001 89<524.44 524.44 627.44 665.893 503.893 524.44 789.44 795.893> 264 85.001<150.973 165.683> 443.001 85<175.632 177.008 156.008 195.632> 611.001 86<224.316 231.127>
LayerCount: 2
Fore
SplineSet
54.8779296875 293 m 0
 36.3408203125 312.333007812 31.3056640625 340.333984375 39.7705078125 377.000976562 c 2
 43.2333984375 392.000976562 l 1
 136.233398438 392.000976562 l 1
 133.924804688 382.000976562 l 2
 128.845703125 360.000976562 138.639648438 349.000976562 163.306640625 349.000976562 c 0
 173.973632812 349.000976562 183.28125 352.500976562 191.23046875 359.500976562 c 0
 199.1796875 366.500976562 204.616210938 376.333984375 207.541015625 389.000976562 c 2
 209.619140625 398.000976562 l 2
 216.544921875 428.000976562 205.674804688 443.000976562 177.0078125 443.000976562 c 2
 156.0078125 443.000976562 l 1
 175.631835938 528.000976562 l 1
 195.631835938 528.000976562 l 2
 207.631835938 528.000976562 217.568359375 531.333984375 225.440429688 538.000976562 c 0
 233.3125 544.66796875 238.634765625 554.000976562 241.404296875 566.000976562 c 2
 243.251953125 574.000976562 l 2
 248.946289062 598.66796875 241.4609375 611.000976562 220.793945312 611.000976562 c 0
 198.793945312 611.000976562 185.408203125 600.66796875 180.63671875 580.000976562 c 2
 178.09765625 569.000976562 l 1
 86.09765625 569.000976562 l 1
 88.40625 579.000976562 l 2
 97.025390625 616.333984375 115.052734375 645.333984375 142.491210938 666.000976562 c 0
 169.9296875 686.66796875 203.982421875 697.000976562 244.649414062 697.000976562 c 0
 283.982421875 697.000976562 312.4296875 686.66796875 329.991210938 666.000976562 c 0
 347.552734375 645.333984375 352.333007812 617.666992188 344.329101562 583 c 2
 342.250976562 574 l 2
 333.940429688 538 312.450195312 511.333007812 277.782226562 494 c 1
 293.576171875 487.333007812 304.048828125 475.666015625 309.201171875 459 c 0
 314.353515625 442.333007812 314.313476562 422.666015625 309.080078125 400 c 2
 306.541015625 389 l 2
 297.767578125 351 278.431640625 320.666992188 248.532226562 298 c 0
 218.631835938 275.333007812 184.682617188 264 146.682617188 264 c 0
 104.015625 264 73.4140625 273.666992188 54.8779296875 293 c 0
795.892578125 57.0009765625 m 1
 768.892578125 57.0009765625 l 1
 755.733398438 0.0009765625 l 1
 652.733398438 0.0009765625 l 1
 665.892578125 57.0009765625 l 1
 503.892578125 57.0009765625 l 1
 524.440429688 146.000976562 l 1
 702.466796875 419.000976562 l 1
 805.466796875 419.000976562 l 1
 627.440429688 146.000976562 l 1
 686.440429688 146.000976562 l 1
 706.756835938 234.000976562 l 1
 809.756835938 234.000976562 l 1
 789.440429688 146.000976562 l 1
 816.440429688 146.000976562 l 1
 795.892578125 57.0009765625 l 1
662.186523438 695.000976562 m 1
 761.186523438 695.000976562 l 1
 214.733398438 0.0009765625 l 1
 116.733398438 0.0009765625 l 1
 662.186523438 695.000976562 l 1
EndSplineSet
Ligature2: "'frac' Diagonal Fractions lookup 2 subtable" three slash four
EndChar

StartChar: questiondown
Encoding: 191 191 128
Width: 451
GlyphClass: 2
Flags: MW
HStem: -166 112.001<124.6 137.41> 390 130<202.784 302.771 172.771 332.784>
LayerCount: 2
Fore
SplineSet
202.784179688 520 m 1
 332.784179688 520 l 1
 302.771484375 390 l 1
 172.771484375 390 l 1
 202.784179688 520 l 1
9.103515625 -143.5 m 0
 -17.1005859375 -128.5 -35.1220703125 -107.662109375 -44.96484375 -80.9951171875 c 0
 -54.80859375 -54.328125 -55.8828125 -24.328125 -48.1865234375 9.0048828125 c 0
 -41.876953125 36.337890625 -32.091796875 60.6708984375 -18.833984375 82.00390625 c 0
 -5.576171875 103.336914062 14.1572265625 126.00390625 40.365234375 150.00390625 c 2
 96.1396484375 201.00390625 l 2
 115.627929688 219.00390625 128.923828125 234.00390625 136.02734375 246.00390625 c 0
 143.130859375 258.00390625 148.9921875 274.00390625 153.609375 294.00390625 c 2
 160.3046875 323.00390625 l 1
 284.3046875 323.00390625 l 1
 275.53125 285.00390625 l 2
 268.913085938 256.336914062 260.846679688 233.669921875 251.33203125 217.002929688 c 0
 241.817382812 200.3359375 223.545898438 179.668945312 196.518554688 155.001953125 c 2
 136.8203125 100.001953125 l 2
 119.79296875 84.001953125 107.150390625 69.6689453125 98.892578125 57.001953125 c 0
 90.6357421875 44.3349609375 84.8134765625 30.66796875 81.4267578125 16.0009765625 c 0
 76.501953125 -5.33203125 78.5771484375 -22.33203125 87.6533203125 -34.9990234375 c 0
 96.728515625 -47.666015625 112.93359375 -53.9990234375 136.266601562 -53.9990234375 c 0
 160.266601562 -53.9990234375 179.305664062 -47.33203125 193.383789062 -33.9990234375 c 0
 207.461914062 -20.666015625 217.912109375 -0.666015625 224.736328125 26.0009765625 c 1
 345.736328125 26.0009765625 l 1
 329.935546875 -36.666015625 301.59765625 -84.3330078125 260.72265625 -117 c 0
 219.84765625 -149.666992188 168.41015625 -166 106.41015625 -166 c 0
 67.7431640625 -166 35.3076171875 -158.5 9.103515625 -143.5 c 0
EndSplineSet
EndChar

StartChar: Agrave
Encoding: 192 192 129
Width: 606
GlyphClass: 2
Flags: MW
HStem: 0 21G<-80.2666 57.7334 -80.2666 -80.2666 378.733 378.733 378.733 517.733> 134 109<190.834 357.834 190.834 367.67 130.67 357.834> 670 20G<324.032 431.032 431.032 431.032>
AnchorPoint: "Anchor-0" 378 690 basechar 0
LayerCount: 2
Fore
SplineSet
367.669921875 134 m 1
 130.669921875 134 l 1
 57.7333984375 0 l 1
 -80.2666015625 0 l 1
 324.032226562 690 l 1
 431.032226562 690 l 1
 517.733398438 0 l 1
 378.733398438 0 l 1
 367.669921875 134 l 1
357.833984375 243 m 1
 335.013671875 508 l 1
 190.833984375 243 l 1
 357.833984375 243 l 1
265.436523438 891 m 1
 402.436523438 891 l 1
 479.731445312 758 l 1
 372.731445312 758 l 1
 265.436523438 891 l 1
EndSplineSet
EndChar

StartChar: Aacute
Encoding: 193 193 130
Width: 606
GlyphClass: 2
Flags: MW
HStem: 0 21G<-80.2666 57.7334 -80.2666 -80.2666 378.733 378.733 378.733 517.733> 134 109<190.834 357.834 190.834 367.67 130.67 357.834> 670 20G<324.032 431.032 431.032 431.032>
AnchorPoint: "Anchor-0" 378 690 basechar 0
LayerCount: 2
Fore
SplineSet
367.669921875 134 m 1
 130.669921875 134 l 1
 57.7333984375 0 l 1
 -80.2666015625 0 l 1
 324.032226562 690 l 1
 431.032226562 690 l 1
 517.733398438 0 l 1
 378.733398438 0 l 1
 367.669921875 134 l 1
357.833984375 243 m 1
 335.013671875 508 l 1
 190.833984375 243 l 1
 357.833984375 243 l 1
439.436523438 891 m 1
 576.436523438 891 l 1
 407.731445312 758 l 1
 300.731445312 758 l 1
 439.436523438 891 l 1
EndSplineSet
EndChar

StartChar: Acircumflex
Encoding: 194 194 131
Width: 606
GlyphClass: 2
Flags: MW
HStem: 0 21G<-80.2666 57.7334 -80.2666 -80.2666 378.733 378.733 378.733 517.733> 134 109<190.834 357.834 190.834 367.67 130.67 357.834> 670 20G<324.032 431.032 431.032 431.032>
AnchorPoint: "Anchor-0" 378 690 basechar 0
LayerCount: 2
Fore
SplineSet
367.669921875 134 m 1
 130.669921875 134 l 1
 57.7333984375 0 l 1
 -80.2666015625 0 l 1
 324.032226562 690 l 1
 431.032226562 690 l 1
 517.733398438 0 l 1
 378.733398438 0 l 1
 367.669921875 134 l 1
357.833984375 243 m 1
 335.013671875 508 l 1
 190.833984375 243 l 1
 357.833984375 243 l 1
380.052734375 898 m 1
 471.052734375 898 l 1
 551.19140625 747 l 1
 454.19140625 747 l 1
 409.19921875 825 l 1
 328.19140625 747 l 1
 230.19140625 747 l 1
 380.052734375 898 l 1
EndSplineSet
EndChar

StartChar: Atilde
Encoding: 195 195 132
Width: 606
GlyphClass: 2
Flags: MW
HStem: 0 21G<-80.2666 57.7334 -80.2666 -80.2666 378.733 378.733 378.733 517.733> 134 109<190.834 357.834 190.834 367.67 130.67 357.834> 670 20G<324.032 431.032 431.032 431.032> 753 94<446.243 485.944> 790.999 94.001<329.683 368.717>
AnchorPoint: "Anchor-0" 378 690 basechar 0
LayerCount: 2
Fore
SplineSet
367.669921875 134 m 1xe0
 130.669921875 134 l 1
 57.7333984375 0 l 1
 -80.2666015625 0 l 1
 324.032226562 690 l 1
 431.032226562 690 l 1
 517.733398438 0 l 1
 378.733398438 0 l 1
 367.669921875 134 l 1xe0
357.833984375 243 m 1
 335.013671875 508 l 1
 190.833984375 243 l 1
 357.833984375 243 l 1
271.124023438 842 m 1
 289.997070312 857.333007812 306.03515625 868.333007812 319.2421875 875 c 0
 332.448242188 881.666992188 346.717773438 885 362.05078125 885 c 0xe8
 375.383789062 885 386.666015625 883.333007812 395.896484375 880 c 0
 405.123046875 876.653320312 415.892578125 871.3203125 428.202148438 864 c 0
 446.919921875 852.666992188 463.944335938 847 479.27734375 847 c 0
 492.610351562 847 504.893554688 849.666992188 516.124023438 855 c 0
 527.35546875 860.333007812 543.485351562 871 564.512695312 887 c 1
 543.502929688 796 l 1
 524.629882812 780.666992188 508.590820312 769.666992188 495.384765625 763 c 0
 482.178710938 756.333007812 467.909179688 753 452.576171875 753 c 0xf0
 439.909179688 753 428.9609375 754.666992188 419.73046875 758 c 0
 410.5 761.333007812 399.73046875 766.666015625 387.423828125 773.999023438 c 0
 368.70703125 785.33203125 351.682617188 790.999023438 336.349609375 790.999023438 c 0xe8
 323.016601562 790.999023438 310.734375 788.33203125 299.502929688 782.999023438 c 0
 288.270507812 777.66015625 271.884765625 767.327148438 250.345703125 752 c 1
 271.124023438 842 l 1
EndSplineSet
EndChar

StartChar: Adieresis
Encoding: 196 196 133
Width: 606
GlyphClass: 2
Flags: MW
HStem: 0 21G<-80.2666 57.7334 -80.2666 -80.2666 378.733 378.733 378.733 517.733> 134 109<190.834 357.834 190.834 367.67 130.67 357.834> 670 20G<324.032 431.032 431.032 431.032> 757 116<270.281 350.5 243.5 377.281 270.281 435.5 462.281 542.5>
AnchorPoint: "Anchor-0" 378 690 basechar 0
LayerCount: 2
Fore
SplineSet
367.669921875 134 m 1
 130.669921875 134 l 1
 57.7333984375 0 l 1
 -80.2666015625 0 l 1
 324.032226562 690 l 1
 431.032226562 690 l 1
 517.733398438 0 l 1
 378.733398438 0 l 1
 367.669921875 134 l 1
357.833984375 243 m 1
 335.013671875 508 l 1
 190.833984375 243 l 1
 357.833984375 243 l 1
270.28125 873 m 1
 377.28125 873 l 1
 350.5 757 l 1
 243.5 757 l 1
 270.28125 873 l 1
462.28125 873 m 1
 569.28125 873 l 1
 542.5 757 l 1
 435.5 757 l 1
 462.28125 873 l 1
EndSplineSet
EndChar

StartChar: Aring
Encoding: 197 197 134
Width: 606
GlyphClass: 2
Flags: MW
HStem: 0 21G<378.733 517.733 378.733 378.733> 134.001 109<130.671 357.835> 827.001 54.999<408.692 417.329>
AnchorPoint: "Anchor-0" 378 690 basechar 0
LayerCount: 2
Fore
SplineSet
367.669921875 134 m 1
 130.670898438 134.000976562 l 1
 57.734375 0.0009765625 l 1
 -80.265625 0.0009765625 l 1
 324.033203125 690.000976562 l 1
 311.521484375 699.333984375 302.701171875 711.666992188 297.57421875 727 c 0
 292.447265625 742.333007812 292.0390625 759.333007812 296.348632812 778 c 0
 303.274414062 808 318.840820312 832.833007812 343.047851562 852.5 c 0
 367.255859375 872.166992188 394.025390625 882 423.358398438 882 c 0
 452.69140625 882 474.921875 872.166992188 490.047851562 852.5 c 0
 505.174804688 832.833007812 509.274414062 808 502.348632812 778 c 0
 497.884765625 758.666992188 489.344726562 741.166992188 476.727539062 725.5 c 0
 464.111328125 709.833007812 449.05859375 697.333007812 431.5703125 688 c 1
 517.733398438 0 l 1
 378.733398438 0 l 1
 367.669921875 134 l 1
374.4296875 813.000976562 m 0
 363.608398438 803.66796875 356.58203125 792.000976562 353.349609375 778.000976562 c 0
 350.270507812 764.665039062 352.154296875 753.33203125 359 744.001953125 c 0
 365.845703125 734.668945312 375.6015625 730.001953125 388.268554688 730.001953125 c 0
 401.6015625 730.001953125 413.845703125 734.668945312 425 744.001953125 c 0
 436.155273438 753.334960938 443.271484375 764.66796875 446.349609375 778.000976562 c 0
 449.58203125 792.000976562 447.775390625 803.66796875 440.9296875 813.000976562 c 0
 434.084960938 822.333984375 423.995117188 827.000976562 410.662109375 827.000976562 c 0
 397.329101562 827.000976562 385.251953125 822.333984375 374.4296875 813.000976562 c 0
357.834960938 243.000976562 m 1
 335.015625 508.000976562 l 1
 190.834960938 243.000976562 l 1
 357.834960938 243.000976562 l 1
374.5703125 675.000976562 m 1024
EndSplineSet
EndChar

StartChar: AE
Encoding: 198 198 135
Width: 883
GlyphClass: 2
Flags: MW
HStem: 0 114<493.052 763.733> 141 109<235.45 367.285 157.285 392.45> 291 114<560.234 785.916 533.916 812.234> 576 114<599.713 599.713 599.713 896.713>
LayerCount: 2
Fore
SplineSet
599.712890625 576 m 1
 560.234375 405 l 1
 812.234375 405 l 1
 785.916015625 291 l 1
 533.916015625 291 l 1
 493.051757812 114 l 1
 790.051757812 114 l 1
 763.733398438 0 l 1
 334.733398438 0 l 1
 367.28515625 141 l 1
 157.28515625 141 l 1
 57.7333984375 0 l 1
 -80.2666015625 0 l 1
 419.032226562 690 l 1
 923.032226562 690 l 1
 896.712890625 576 l 1
 599.712890625 576 l 1
392.450195312 250 m 1
 468.40625 579 l 1
 235.450195312 250 l 1
 392.450195312 250 l 1
EndSplineSet
EndChar

StartChar: Ccedilla
Encoding: 199 199 136
Width: 600
GlyphClass: 2
Flags: MW
HStem: -156 21G<86.7178 200.718 86.7178 86.7178> 585 115<331.791 371.458>
LayerCount: 2
Fore
SplineSet
441.85546875 464 m 1
 443.240234375 470 l 2
 451.397460938 505.333007812 447.694335938 533.333007812 432.1328125 554 c 0
 416.571289062 574.666992188 390.124023438 585 352.791015625 585 c 0
 310.791015625 585 277.290039062 572 252.287109375 546 c 0
 227.284179688 520 207.934570312 477.333007812 194.236328125 418 c 2
 159.836914062 269 l 2
 146.908203125 213 147.352539062 172.333007812 161.170898438 147 c 0
 174.989257812 121.666992188 202.897460938 109 244.897460938 109 c 0
 282.23046875 109 313.0390625 119 337.32421875 139 c 0
 361.608398438 159 377.751953125 186.333007812 385.754882812 221 c 2
 387.6015625 229 l 1
 516.6015625 229 l 1
 514.986328125 222 l 2
 500.517578125 159.333007812 473.23046875 109 433.125 71 c 0
 393.018554688 33 343.401367188 8.6669921875 284.271484375 -2 c 1
 200.717773438 -156 l 1
 86.7177734375 -156 l 1
 182.1171875 -7 l 1
 39.7080078125 5.6669921875 -11.873046875 97 27.375 267 c 2
 63.8525390625 425 l 2
 106.177734375 608.333007812 211.673828125 700 380.340820312 700 c 0
 455.673828125 700 511.056640625 680 546.48828125 640 c 0
 581.920898438 600 591.248046875 543.666992188 574.471679688 471 c 2
 572.85546875 464 l 1
 441.85546875 464 l 1
EndSplineSet
EndChar

StartChar: Egrave
Encoding: 200 200 137
Width: 532
GlyphClass: 2
Flags: MW
HStem: 0 114<132.052 412.733> 291 114<199.234 434.916 172.916 461.234> 576 114<238.713 238.713 238.713 545.713>
AnchorPoint: "Anchor-0" 343 690 basechar 0
LayerCount: 2
Fore
SplineSet
238.712890625 576 m 1
 199.234375 405 l 1
 461.234375 405 l 1
 434.916015625 291 l 1
 172.916015625 291 l 1
 132.051757812 114 l 1
 439.051757812 114 l 1
 412.733398438 0 l 1
 -25.2666015625 0 l 1
 134.032226562 690 l 1
 572.032226562 690 l 1
 545.712890625 576 l 1
 238.712890625 576 l 1
230.436523438 891 m 1
 367.436523438 891 l 1
 444.731445312 758 l 1
 337.731445312 758 l 1
 230.436523438 891 l 1
EndSplineSet
EndChar

StartChar: Eacute
Encoding: 201 201 138
Width: 532
GlyphClass: 2
Flags: MW
HStem: 0 114<132.052 412.733> 291 114<199.234 434.916 172.916 461.234> 576 114<238.713 238.713 238.713 545.713>
AnchorPoint: "Anchor-0" 343 690 basechar 0
LayerCount: 2
Fore
SplineSet
238.712890625 576 m 1
 199.234375 405 l 1
 461.234375 405 l 1
 434.916015625 291 l 1
 172.916015625 291 l 1
 132.051757812 114 l 1
 439.051757812 114 l 1
 412.733398438 0 l 1
 -25.2666015625 0 l 1
 134.032226562 690 l 1
 572.032226562 690 l 1
 545.712890625 576 l 1
 238.712890625 576 l 1
404.436523438 891 m 1
 541.436523438 891 l 1
 372.731445312 758 l 1
 265.731445312 758 l 1
 404.436523438 891 l 1
EndSplineSet
EndChar

StartChar: Ecircumflex
Encoding: 202 202 139
Width: 532
GlyphClass: 2
Flags: MW
HStem: 0 114<132.052 412.733> 291 114<199.234 434.916 172.916 461.234> 576 114<238.713 238.713 238.713 545.713>
AnchorPoint: "Anchor-0" 343 690 basechar 0
LayerCount: 2
Fore
SplineSet
238.712890625 576 m 1
 199.234375 405 l 1
 461.234375 405 l 1
 434.916015625 291 l 1
 172.916015625 291 l 1
 132.051757812 114 l 1
 439.051757812 114 l 1
 412.733398438 0 l 1
 -25.2666015625 0 l 1
 134.032226562 690 l 1
 572.032226562 690 l 1
 545.712890625 576 l 1
 238.712890625 576 l 1
345.052734375 898 m 1
 436.052734375 898 l 1
 516.19140625 747 l 1
 419.19140625 747 l 1
 374.19921875 825 l 1
 293.19140625 747 l 1
 195.19140625 747 l 1
 345.052734375 898 l 1
EndSplineSet
EndChar

StartChar: Edieresis
Encoding: 203 203 140
Width: 532
GlyphClass: 2
Flags: MW
HStem: 0 114<132.052 412.733> 291 114<199.234 434.916 172.916 461.234> 576 114<238.713 238.713 238.713 545.713> 757 116<235.281 315.5 208.5 342.281 235.281 400.5 427.281 507.5>
AnchorPoint: "Anchor-0" 343 690 basechar 0
LayerCount: 2
Fore
SplineSet
238.712890625 576 m 1
 199.234375 405 l 1
 461.234375 405 l 1
 434.916015625 291 l 1
 172.916015625 291 l 1
 132.051757812 114 l 1
 439.051757812 114 l 1
 412.733398438 0 l 1
 -25.2666015625 0 l 1
 134.032226562 690 l 1
 572.032226562 690 l 1
 545.712890625 576 l 1
 238.712890625 576 l 1
235.28125 873 m 1
 342.28125 873 l 1
 315.5 757 l 1
 208.5 757 l 1
 235.28125 873 l 1
427.28125 873 m 1
 534.28125 873 l 1
 507.5 757 l 1
 400.5 757 l 1
 427.28125 873 l 1
EndSplineSet
EndChar

StartChar: Igrave
Encoding: 204 204 141
Width: 261
GlyphClass: 2
Flags: MW
HStem: 0 21G<-19.2666 111.733 -19.2666 -19.2666> 670 20G<140.032 271.032 271.032 271.032>
VStem: -19.2666 325.998
AnchorPoint: "Anchor-0" 205 690 basechar 0
LayerCount: 2
Fore
SplineSet
140.032226562 690 m 1
 271.032226562 690 l 1
 111.733398438 0 l 1
 -19.2666015625 0 l 1
 140.032226562 690 l 1
92.4365234375 891 m 1
 229.436523438 891 l 1
 306.731445312 758 l 1
 199.731445312 758 l 1
 92.4365234375 891 l 1
EndSplineSet
EndChar

StartChar: Iacute
Encoding: 205 205 142
Width: 261
GlyphClass: 2
Flags: MW
HStem: 0 21G<-19.2666 111.733 -19.2666 -19.2666> 670 20G<140.032 271.032 271.032 271.032>
AnchorPoint: "Anchor-0" 205 690 basechar 0
LayerCount: 2
Fore
SplineSet
140.032226562 690 m 1
 271.032226562 690 l 1
 111.733398438 0 l 1
 -19.2666015625 0 l 1
 140.032226562 690 l 1
266.436523438 891 m 1
 403.436523438 891 l 1
 234.731445312 758 l 1
 127.731445312 758 l 1
 266.436523438 891 l 1
EndSplineSet
EndChar

StartChar: Icircumflex
Encoding: 206 206 143
Width: 261
GlyphClass: 2
Flags: MW
HStem: 0 21G<-19.2666 111.733 -19.2666 -19.2666> 670 20G<140.032 271.032 271.032 271.032>
AnchorPoint: "Anchor-0" 205 690 basechar 0
LayerCount: 2
Fore
SplineSet
140.032226562 690 m 1
 271.032226562 690 l 1
 111.733398438 0 l 1
 -19.2666015625 0 l 1
 140.032226562 690 l 1
207.052734375 898 m 1
 298.052734375 898 l 1
 378.19140625 747 l 1
 281.19140625 747 l 1
 236.19921875 825 l 1
 155.19140625 747 l 1
 57.19140625 747 l 1
 207.052734375 898 l 1
EndSplineSet
EndChar

StartChar: Idieresis
Encoding: 207 207 144
Width: 261
GlyphClass: 2
Flags: MW
HStem: 0 21G<-19.2666 111.733 -19.2666 -19.2666> 670 20G<140.032 271.032 271.032 271.032> 757 116<97.2812 177.5 70.5 204.281 97.2812 262.5 289.281 369.5>
AnchorPoint: "Anchor-0" 205 690 basechar 0
LayerCount: 2
Fore
SplineSet
140.032226562 690 m 1
 271.032226562 690 l 1
 111.733398438 0 l 1
 -19.2666015625 0 l 1
 140.032226562 690 l 1
97.28125 873 m 1
 204.28125 873 l 1
 177.5 757 l 1
 70.5 757 l 1
 97.28125 873 l 1
289.28125 873 m 1
 396.28125 873 l 1
 369.5 757 l 1
 262.5 757 l 1
 289.28125 873 l 1
EndSplineSet
EndChar

StartChar: Eth
Encoding: 208 208 145
Width: 632
GlyphClass: 2
Flags: MW
HStem: 0 114<164.051 245.733> 294 115<37.1582 74.6084 10.6084 101.158 37.1582 205.607 232.157 323.607> 576 114<270.712 381.712 270.712 270.712>
LayerCount: 2
Fore
SplineSet
575.756835938 626 m 0
 610.239257812 583.333007812 616.244140625 513.333007812 593.7734375 416 c 2
 561.220703125 275 l 2
 538.75 177.666992188 499.883789062 107.5 444.623046875 64.5 c 0
 389.362304688 21.5 323.06640625 0 245.733398438 0 c 2
 6.7333984375 0 l 1
 74.6083984375 294 l 1
 10.6083984375 294 l 1
 37.158203125 409 l 1
 101.158203125 409 l 1
 166.032226562 690 l 1
 409.032226562 690 l 2
 485.69921875 690 541.274414062 668.666992188 575.756835938 626 c 0
461.157226562 409 m 2
 474.701171875 467.666992188 474.846679688 510.166992188 461.592773438 536.5 c 0
 448.33984375 562.833007812 421.711914062 576 381.711914062 576 c 2
 270.711914062 576 l 1
 232.157226562 409 l 1
 350.157226562 409 l 1
 323.607421875 294 l 1
 205.607421875 294 l 1
 164.05078125 114 l 1
 275.05078125 114 l 2
 314.383789062 114 346.885742188 127 372.5546875 153 c 0
 398.224609375 179 417.5234375 220 430.452148438 276 c 2
 461.157226562 409 l 2
EndSplineSet
EndChar

StartChar: Ntilde
Encoding: 209 209 146
Width: 634
GlyphClass: 2
Flags: MW
HStem: 0 21G<-25.2666 105.733 -25.2666 -25.2666 359.733 490.733 359.733 359.733> 670 20G<134.032 265.032 265.032 265.032 519.032 650.032 650.032 650.032> 753 94<460.243 499.944> 790.999 94.001<343.683 382.717>
AnchorPoint: "Anchor-0" 392 690 basechar 0
LayerCount: 2
Fore
SplineSet
650.032226562 690 m 1xc0
 490.733398438 0 l 1
 359.733398438 0 l 1
 205.237304688 431 l 1
 105.733398438 0 l 1
 -25.2666015625 0 l 1
 134.032226562 690 l 1
 265.032226562 690 l 1
 419.296875 258 l 1
 519.032226562 690 l 1
 650.032226562 690 l 1xc0
285.124023438 842 m 1
 303.997070312 857.333007812 320.03515625 868.333007812 333.2421875 875 c 0
 346.448242188 881.666992188 360.717773438 885 376.05078125 885 c 0xd0
 389.383789062 885 400.666015625 883.333007812 409.896484375 880 c 0
 419.123046875 876.653320312 429.892578125 871.3203125 442.202148438 864 c 0
 460.919921875 852.666992188 477.944335938 847 493.27734375 847 c 0
 506.610351562 847 518.893554688 849.666992188 530.124023438 855 c 0
 541.35546875 860.333007812 557.485351562 871 578.512695312 887 c 1
 557.502929688 796 l 1
 538.629882812 780.666992188 522.590820312 769.666992188 509.384765625 763 c 0
 496.178710938 756.333007812 481.909179688 753 466.576171875 753 c 0xe0
 453.909179688 753 442.9609375 754.666992188 433.73046875 758 c 0
 424.5 761.333007812 413.73046875 766.666015625 401.423828125 773.999023438 c 0
 382.70703125 785.33203125 365.682617188 790.999023438 350.349609375 790.999023438 c 0xd0
 337.016601562 790.999023438 324.734375 788.33203125 313.502929688 782.999023438 c 0
 302.270507812 777.66015625 285.884765625 767.327148438 264.345703125 752 c 1
 285.124023438 842 l 1
EndSplineSet
EndChar

StartChar: Ograve
Encoding: 210 210 147
Width: 600
GlyphClass: 2
Flags: MW
HStem: -8 117<220.896 249.552> 585 115<330.79 371.79>
AnchorPoint: "Anchor-0" 375 690 basechar 0
LayerCount: 2
Fore
SplineSet
27.375 267 m 2
 63.8515625 425 l 2
 106.176757812 608.333007812 211.006835938 700 378.33984375 700 c 0
 455.006835938 700 510.709960938 678.5 545.450195312 635.5 c 0
 580.189453125 592.5 586.323242188 522.333007812 563.852539062 425 c 2
 527.375 267 l 2
 504.904296875 169.666992188 465.87109375 99.5 410.27734375 56.5 c 0
 354.682617188 13.5 288.21875 -8 210.885742188 -8 c 0
 46.21875 -8 -14.951171875 83.6669921875 27.375 267 c 2
339.78515625 147.5 m 0
 365.043945312 173.166992188 384.061523438 213.666992188 396.8359375 269 c 2
 431.235351562 418 l 2
 444.779296875 476.666992188 444.923828125 519.166992188 431.670898438 545.5 c 0
 418.416992188 571.833007812 391.790039062 585 351.790039062 585 c 0
 309.790039062 585 276.494140625 572.166992188 251.901367188 546.5 c 0
 227.30859375 520.833007812 208.086914062 478 194.235351562 418 c 2
 159.8359375 269 l 2
 146.752929688 212.333007812 146.659179688 171.5 159.5546875 146.5 c 0
 172.44921875 121.5 199.896484375 109 241.896484375 109 c 0
 281.896484375 109 314.526367188 121.833007812 339.78515625 147.5 c 0
262.435546875 891 m 1
 399.435546875 891 l 1
 476.73046875 758 l 1
 369.73046875 758 l 1
 262.435546875 891 l 1
EndSplineSet
EndChar

StartChar: Oacute
Encoding: 211 211 148
Width: 600
GlyphClass: 2
Flags: MW
HStem: -8 117<220.896 249.552> 585 115<330.79 371.79>
AnchorPoint: "Anchor-0" 375 690 basechar 0
LayerCount: 2
Fore
SplineSet
27.375 267 m 2
 63.8515625 425 l 2
 106.176757812 608.333007812 211.006835938 700 378.33984375 700 c 0
 455.006835938 700 510.709960938 678.5 545.450195312 635.5 c 0
 580.189453125 592.5 586.323242188 522.333007812 563.852539062 425 c 2
 527.375 267 l 2
 504.904296875 169.666992188 465.87109375 99.5 410.27734375 56.5 c 0
 354.682617188 13.5 288.21875 -8 210.885742188 -8 c 0
 46.21875 -8 -14.951171875 83.6669921875 27.375 267 c 2
339.78515625 147.5 m 0
 365.043945312 173.166992188 384.061523438 213.666992188 396.8359375 269 c 2
 431.235351562 418 l 2
 444.779296875 476.666992188 444.923828125 519.166992188 431.670898438 545.5 c 0
 418.416992188 571.833007812 391.790039062 585 351.790039062 585 c 0
 309.790039062 585 276.494140625 572.166992188 251.901367188 546.5 c 0
 227.30859375 520.833007812 208.086914062 478 194.235351562 418 c 2
 159.8359375 269 l 2
 146.752929688 212.333007812 146.659179688 171.5 159.5546875 146.5 c 0
 172.44921875 121.5 199.896484375 109 241.896484375 109 c 0
 281.896484375 109 314.526367188 121.833007812 339.78515625 147.5 c 0
436.435546875 891 m 1
 573.435546875 891 l 1
 404.73046875 758 l 1
 297.73046875 758 l 1
 436.435546875 891 l 1
EndSplineSet
EndChar

StartChar: Ocircumflex
Encoding: 212 212 149
Width: 600
GlyphClass: 2
Flags: MW
HStem: -8 117<220.896 249.552> 585 115<330.79 371.79>
AnchorPoint: "Anchor-0" 375 690 basechar 0
LayerCount: 2
Fore
SplineSet
27.375 267 m 2
 63.8515625 425 l 2
 106.176757812 608.333007812 211.006835938 700 378.33984375 700 c 0
 455.006835938 700 510.709960938 678.5 545.450195312 635.5 c 0
 580.189453125 592.5 586.323242188 522.333007812 563.852539062 425 c 2
 527.375 267 l 2
 504.904296875 169.666992188 465.87109375 99.5 410.27734375 56.5 c 0
 354.682617188 13.5 288.21875 -8 210.885742188 -8 c 0
 46.21875 -8 -14.951171875 83.6669921875 27.375 267 c 2
339.78515625 147.5 m 0
 365.043945312 173.166992188 384.061523438 213.666992188 396.8359375 269 c 2
 431.235351562 418 l 2
 444.779296875 476.666992188 444.923828125 519.166992188 431.670898438 545.5 c 0
 418.416992188 571.833007812 391.790039062 585 351.790039062 585 c 0
 309.790039062 585 276.494140625 572.166992188 251.901367188 546.5 c 0
 227.30859375 520.833007812 208.086914062 478 194.235351562 418 c 2
 159.8359375 269 l 2
 146.752929688 212.333007812 146.659179688 171.5 159.5546875 146.5 c 0
 172.44921875 121.5 199.896484375 109 241.896484375 109 c 0
 281.896484375 109 314.526367188 121.833007812 339.78515625 147.5 c 0
377.051757812 898 m 1
 468.051757812 898 l 1
 548.190429688 747 l 1
 451.190429688 747 l 1
 406.198242188 825 l 1
 325.190429688 747 l 1
 227.190429688 747 l 1
 377.051757812 898 l 1
EndSplineSet
EndChar

StartChar: Otilde
Encoding: 213 213 150
Width: 600
GlyphClass: 2
Flags: MW
HStem: -8 117<220.896 249.552> 585 115<330.79 371.79> 753 94<443.242 482.943> 790.999 94.001<326.682 365.716>
AnchorPoint: "Anchor-0" 375 690 basechar 0
LayerCount: 2
Fore
SplineSet
27.375 267 m 2xc0
 63.8515625 425 l 2
 106.176757812 608.333007812 211.006835938 700 378.33984375 700 c 0
 455.006835938 700 510.709960938 678.5 545.450195312 635.5 c 0
 580.189453125 592.5 586.323242188 522.333007812 563.852539062 425 c 2
 527.375 267 l 2
 504.904296875 169.666992188 465.87109375 99.5 410.27734375 56.5 c 0
 354.682617188 13.5 288.21875 -8 210.885742188 -8 c 0
 46.21875 -8 -14.951171875 83.6669921875 27.375 267 c 2xc0
339.78515625 147.5 m 0
 365.043945312 173.166992188 384.061523438 213.666992188 396.8359375 269 c 2
 431.235351562 418 l 2
 444.779296875 476.666992188 444.923828125 519.166992188 431.670898438 545.5 c 0
 418.416992188 571.833007812 391.790039062 585 351.790039062 585 c 0
 309.790039062 585 276.494140625 572.166992188 251.901367188 546.5 c 0
 227.30859375 520.833007812 208.086914062 478 194.235351562 418 c 2
 159.8359375 269 l 2
 146.752929688 212.333007812 146.659179688 171.5 159.5546875 146.5 c 0
 172.44921875 121.5 199.896484375 109 241.896484375 109 c 0
 281.896484375 109 314.526367188 121.833007812 339.78515625 147.5 c 0
268.123046875 842 m 1
 286.99609375 857.333007812 303.034179688 868.333007812 316.241210938 875 c 0
 329.447265625 881.666992188 343.716796875 885 359.049804688 885 c 0xd0
 372.3828125 885 383.665039062 883.333007812 392.895507812 880 c 0
 402.122070312 876.653320312 412.891601562 871.3203125 425.201171875 864 c 0
 443.918945312 852.666992188 460.943359375 847 476.276367188 847 c 0
 489.609375 847 501.892578125 849.666992188 513.123046875 855 c 0
 524.354492188 860.333007812 540.484375 871 561.51171875 887 c 1
 540.501953125 796 l 1
 521.62890625 780.666992188 505.58984375 769.666992188 492.383789062 763 c 0
 479.177734375 756.333007812 464.908203125 753 449.575195312 753 c 0xe0
 436.908203125 753 425.959960938 754.666992188 416.729492188 758 c 0
 407.499023438 761.333007812 396.729492188 766.666015625 384.422851562 773.999023438 c 0
 365.706054688 785.33203125 348.681640625 790.999023438 333.348632812 790.999023438 c 0xd0
 320.015625 790.999023438 307.733398438 788.33203125 296.501953125 782.999023438 c 0
 285.26953125 777.66015625 268.883789062 767.327148438 247.344726562 752 c 1
 268.123046875 842 l 1
EndSplineSet
EndChar

StartChar: Odieresis
Encoding: 214 214 151
Width: 600
GlyphClass: 2
Flags: MW
HStem: -8 117<220.896 249.552> 585 115<330.79 371.79> 757 116<267.28 347.499 240.499 374.28 267.28 432.499 459.28 539.499>
AnchorPoint: "Anchor-0" 375 690 basechar 0
LayerCount: 2
Fore
SplineSet
27.375 267 m 2
 63.8515625 425 l 2
 106.176757812 608.333007812 211.006835938 700 378.33984375 700 c 0
 455.006835938 700 510.709960938 678.5 545.450195312 635.5 c 0
 580.189453125 592.5 586.323242188 522.333007812 563.852539062 425 c 2
 527.375 267 l 2
 504.904296875 169.666992188 465.87109375 99.5 410.27734375 56.5 c 0
 354.682617188 13.5 288.21875 -8 210.885742188 -8 c 0
 46.21875 -8 -14.951171875 83.6669921875 27.375 267 c 2
339.78515625 147.5 m 0
 365.043945312 173.166992188 384.061523438 213.666992188 396.8359375 269 c 2
 431.235351562 418 l 2
 444.779296875 476.666992188 444.923828125 519.166992188 431.670898438 545.5 c 0
 418.416992188 571.833007812 391.790039062 585 351.790039062 585 c 0
 309.790039062 585 276.494140625 572.166992188 251.901367188 546.5 c 0
 227.30859375 520.833007812 208.086914062 478 194.235351562 418 c 2
 159.8359375 269 l 2
 146.752929688 212.333007812 146.659179688 171.5 159.5546875 146.5 c 0
 172.44921875 121.5 199.896484375 109 241.896484375 109 c 0
 281.896484375 109 314.526367188 121.833007812 339.78515625 147.5 c 0
267.280273438 873 m 1
 374.280273438 873 l 1
 347.499023438 757 l 1
 240.499023438 757 l 1
 267.280273438 873 l 1
459.280273438 873 m 1
 566.280273438 873 l 1
 539.499023438 757 l 1
 432.499023438 757 l 1
 459.280273438 873 l 1
EndSplineSet
EndChar

StartChar: multiply
Encoding: 215 215 152
Width: 529
GlyphClass: 2
Flags: W
LayerCount: 2
Fore
SplineSet
20.9794921875 157 m 1
 167.453125 276 l 1
 76.1572265625 396 l 1
 169.703125 472 l 1
 262.229492188 353 l 1
 408.703125 472 l 1
 466.92578125 395 l 1
 320.453125 276 l 1
 411.979492188 157 l 1
 318.202148438 80 l 1
 226.907226562 200 l 1
 79.2021484375 80 l 1
 20.9794921875 157 l 1
EndSplineSet
EndChar

StartChar: Oslash
Encoding: 216 216 153
Width: 600
GlyphClass: 2
Flags: MW
HStem: -8 117<223.231 249.552> 584.999 115.001<330.791 370.124>
AnchorPoint: "Anchor-0" 375 690 basechar 0
LayerCount: 2
Fore
SplineSet
554.102539062 621 m 1
 580.303710938 575.666992188 583.552734375 510.333007812 563.852539062 425 c 2
 527.375 267 l 2
 504.904296875 169.666992188 465.87109375 99.5 410.27734375 56.5 c 0
 354.682617188 13.5 288.21875 -8 210.885742188 -8 c 0
 151.552734375 -8 105.323242188 4 72.197265625 28 c 1
 33.1162109375 -20 l 1
 -38.8837890625 -20 l 1
 35.125 71 l 1
 10.103515625 115.666992188 7.5205078125 181 27.375 267 c 2
 63.8525390625 425 l 2
 106.177734375 608.333007812 211.0078125 700 378.340820312 700 c 0
 438.340820312 700 484.826171875 687.666992188 517.798828125 663 c 1
 559.803710938 715 l 1
 630.803710938 715 l 1
 554.102539062 621 l 1
150.908203125 212.999023438 m 1
 427.403320312 552.999023438 l 1
 413.661132812 574.33203125 388.45703125 584.999023438 351.791015625 584.999023438 c 0
 309.791015625 584.999023438 276.495117188 572.166015625 251.90234375 546.499023438 c 0
 227.309570312 520.83203125 208.087890625 477.999023438 194.235351562 417.999023438 c 2
 159.836914062 268.999023438 l 2
 154.44921875 245.666015625 151.47265625 226.999023438 150.908203125 212.999023438 c 1
441.01171875 481.999023438 m 1
 163.0546875 140 l 1
 178.283203125 119.333007812 204.564453125 109 241.897460938 109 c 0
 281.897460938 109 314.52734375 121.833007812 339.786132812 147.5 c 0
 365.044921875 173.166992188 384.0625 213.666992188 396.836914062 269 c 2
 431.236328125 418 l 2
 436.161132812 439.333007812 439.418945312 460.666015625 441.01171875 481.999023438 c 1
EndSplineSet
EndChar

StartChar: Ugrave
Encoding: 217 217 154
Width: 614
GlyphClass: 2
Flags: MW
HStem: -6 114.001<228.668 244.015> 670.001 20G<134.033 265.033 265.033 265.033 498.033 630.033 630.033 630.033>
AnchorPoint: "Anchor-0" 382 690 basechar 0
LayerCount: 2
Fore
SplineSet
100.658203125 23.5 m 0
 67.5322265625 43.1669921875 44.419921875 70.833984375 31.3212890625 106.500976562 c 0
 18.22265625 142.16796875 16.90625 182.66796875 27.3720703125 228.000976562 c 2
 134.033203125 690.000976562 l 1
 265.033203125 690.000976562 l 1
 159.295898438 232.000976562 l 2
 150.21484375 192.66796875 153.506835938 162.16796875 169.170898438 140.500976562 c 0
 184.8359375 118.833984375 210.66796875 108.000976562 246.66796875 108.000976562 c 0
 282.66796875 108.000976562 313.668945312 118.833984375 339.670898438 140.500976562 c 0
 365.673828125 162.16796875 383.21484375 192.66796875 392.295898438 232.000976562 c 2
 498.033203125 690.000976562 l 1
 630.033203125 690.000976562 l 1
 523.372070312 228.000976562 l 2
 512.90625 182.66796875 492.72265625 142.16796875 462.821289062 106.500976562 c 0
 432.919921875 70.833984375 396.866210938 43.1669921875 354.659179688 23.5 c 0
 312.452148438 3.8330078125 267.681640625 -6 220.348632812 -6 c 0
 173.681640625 -6 133.78515625 3.8330078125 100.658203125 23.5 c 0
269.4375 891 m 1
 406.4375 891 l 1
 483.732421875 758 l 1
 376.732421875 758 l 1
 269.4375 891 l 1
EndSplineSet
EndChar

StartChar: Uacute
Encoding: 218 218 155
Width: 614
GlyphClass: 2
Flags: MW
HStem: -6 114.001<228.668 244.015> 670.001 20G<134.033 265.033 265.033 265.033 498.033 630.033 630.033 630.033>
AnchorPoint: "Anchor-0" 382 690 basechar 0
LayerCount: 2
Fore
SplineSet
100.658203125 23.5 m 0
 67.5322265625 43.1669921875 44.419921875 70.833984375 31.3212890625 106.500976562 c 0
 18.22265625 142.16796875 16.90625 182.66796875 27.3720703125 228.000976562 c 2
 134.033203125 690.000976562 l 1
 265.033203125 690.000976562 l 1
 159.295898438 232.000976562 l 2
 150.21484375 192.66796875 153.506835938 162.16796875 169.170898438 140.500976562 c 0
 184.8359375 118.833984375 210.66796875 108.000976562 246.66796875 108.000976562 c 0
 282.66796875 108.000976562 313.668945312 118.833984375 339.670898438 140.500976562 c 0
 365.673828125 162.16796875 383.21484375 192.66796875 392.295898438 232.000976562 c 2
 498.033203125 690.000976562 l 1
 630.033203125 690.000976562 l 1
 523.372070312 228.000976562 l 2
 512.90625 182.66796875 492.72265625 142.16796875 462.821289062 106.500976562 c 0
 432.919921875 70.833984375 396.866210938 43.1669921875 354.659179688 23.5 c 0
 312.452148438 3.8330078125 267.681640625 -6 220.348632812 -6 c 0
 173.681640625 -6 133.78515625 3.8330078125 100.658203125 23.5 c 0
443.4375 891 m 1
 580.4375 891 l 1
 411.732421875 758 l 1
 304.732421875 758 l 1
 443.4375 891 l 1
EndSplineSet
EndChar

StartChar: Ucircumflex
Encoding: 219 219 156
Width: 614
GlyphClass: 2
Flags: MW
HStem: -6 114.001<228.668 244.015> 670.001 20G<134.033 265.033 265.033 265.033 498.033 630.033 630.033 630.033>
AnchorPoint: "Anchor-0" 382 690 basechar 0
LayerCount: 2
Fore
SplineSet
100.658203125 23.5 m 0
 67.5322265625 43.1669921875 44.419921875 70.833984375 31.3212890625 106.500976562 c 0
 18.22265625 142.16796875 16.90625 182.66796875 27.3720703125 228.000976562 c 2
 134.033203125 690.000976562 l 1
 265.033203125 690.000976562 l 1
 159.295898438 232.000976562 l 2
 150.21484375 192.66796875 153.506835938 162.16796875 169.170898438 140.500976562 c 0
 184.8359375 118.833984375 210.66796875 108.000976562 246.66796875 108.000976562 c 0
 282.66796875 108.000976562 313.668945312 118.833984375 339.670898438 140.500976562 c 0
 365.673828125 162.16796875 383.21484375 192.66796875 392.295898438 232.000976562 c 2
 498.033203125 690.000976562 l 1
 630.033203125 690.000976562 l 1
 523.372070312 228.000976562 l 2
 512.90625 182.66796875 492.72265625 142.16796875 462.821289062 106.500976562 c 0
 432.919921875 70.833984375 396.866210938 43.1669921875 354.659179688 23.5 c 0
 312.452148438 3.8330078125 267.681640625 -6 220.348632812 -6 c 0
 173.681640625 -6 133.78515625 3.8330078125 100.658203125 23.5 c 0
384.053710938 898 m 1
 475.053710938 898 l 1
 555.192382812 747 l 1
 458.192382812 747 l 1
 413.200195312 825 l 1
 332.192382812 747 l 1
 234.192382812 747 l 1
 384.053710938 898 l 1
EndSplineSet
EndChar

StartChar: Udieresis
Encoding: 220 220 157
Width: 614
GlyphClass: 2
Flags: MW
HStem: -6 114.001<228.668 244.015> 670.001 20G<134.033 265.033 265.033 265.033 498.033 630.033 630.033 630.033> 757 116<274.282 354.501 247.501 381.282 274.282 439.501 466.282 546.501>
AnchorPoint: "Anchor-0" 382 690 basechar 0
LayerCount: 2
Fore
SplineSet
100.658203125 23.5 m 0
 67.5322265625 43.1669921875 44.419921875 70.833984375 31.3212890625 106.500976562 c 0
 18.22265625 142.16796875 16.90625 182.66796875 27.3720703125 228.000976562 c 2
 134.033203125 690.000976562 l 1
 265.033203125 690.000976562 l 1
 159.295898438 232.000976562 l 2
 150.21484375 192.66796875 153.506835938 162.16796875 169.170898438 140.500976562 c 0
 184.8359375 118.833984375 210.66796875 108.000976562 246.66796875 108.000976562 c 0
 282.66796875 108.000976562 313.668945312 118.833984375 339.670898438 140.500976562 c 0
 365.673828125 162.16796875 383.21484375 192.66796875 392.295898438 232.000976562 c 2
 498.033203125 690.000976562 l 1
 630.033203125 690.000976562 l 1
 523.372070312 228.000976562 l 2
 512.90625 182.66796875 492.72265625 142.16796875 462.821289062 106.500976562 c 0
 432.919921875 70.833984375 396.866210938 43.1669921875 354.659179688 23.5 c 0
 312.452148438 3.8330078125 267.681640625 -6 220.348632812 -6 c 0
 173.681640625 -6 133.78515625 3.8330078125 100.658203125 23.5 c 0
274.282226562 873 m 1
 381.282226562 873 l 1
 354.500976562 757 l 1
 247.500976562 757 l 1
 274.282226562 873 l 1
466.282226562 873 m 1
 573.282226562 873 l 1
 546.500976562 757 l 1
 439.500976562 757 l 1
 466.282226562 873 l 1
EndSplineSet
EndChar

StartChar: Yacute
Encoding: 221 221 158
Width: 541
GlyphClass: 2
Flags: MW
HStem: 0 21G<120.733 251.733 120.733 120.733> 670 20G<79.0322 222.032 222.032 222.032 468.032 612.032 612.032 612.032>
AnchorPoint: "Anchor-0" 345 690 basechar 0
LayerCount: 2
Fore
SplineSet
317.299804688 284 m 1
 251.733398438 0 l 1
 120.733398438 0 l 1
 186.068359375 283 l 1
 79.0322265625 690 l 1
 222.032226562 690 l 1
 280.388671875 410 l 1
 468.032226562 690 l 1
 612.032226562 690 l 1
 317.299804688 284 l 1
406.436523438 891 m 1
 543.436523438 891 l 1
 374.731445312 758 l 1
 267.731445312 758 l 1
 406.436523438 891 l 1
EndSplineSet
EndChar

StartChar: Thorn
Encoding: 222 222 159
Width: 567
GlyphClass: 2
Flags: MW
HStem: 0 21G<-25.2666 105.733 -25.2666 -25.2666> 149 114<166.451 267.133 140.133 287.451> 462 114<238.713 333.395 212.395 365.713> 670 20G<134.032 265.032 265.032 265.032>
LayerCount: 2
Fore
SplineSet
517.823242188 518 m 0
 549.228515625 479.333007812 557.16015625 426.333007812 541.615234375 359 c 0
 526.838867188 295 494.8984375 244 445.791992188 206 c 0
 396.685546875 168 337.1328125 149 267.1328125 149 c 2
 140.1328125 149 l 1
 105.733398438 0 l 1
 -25.2666015625 0 l 1
 134.032226562 690 l 1
 265.032226562 690 l 1
 238.712890625 576 l 1
 365.712890625 576 l 2
 435.712890625 576 486.416992188 556.666992188 517.823242188 518 c 0
367.223632812 288 m 0
 389.071289062 304.666992188 403.53515625 328.333007812 410.615234375 359 c 0
 418.310546875 392.333007812 415.364257812 417.833007812 401.776367188 435.5 c 0
 388.1875 453.166992188 365.39453125 462 333.39453125 462 c 2
 212.39453125 462 l 1
 166.451171875 263 l 1
 287.451171875 263 l 2
 318.784179688 263 345.375 271.333007812 367.223632812 288 c 0
EndSplineSet
EndChar

StartChar: germandbls
Encoding: 223 223 160
Width: 524
GlyphClass: 2
Flags: MW
HStem: -4 104<192.82 192.82 192.82 209.81 168.81 192.82> 362.001 103<253.31 308.089 253.31 308.089> 594.001 106<304.675 331.871>
LayerCount: 2
Fore
SplineSet
192.8203125 100 m 1
 224.822265625 100.000976562 l 2
 246.822265625 100.000976562 263.784179688 104.16796875 275.708007812 112.500976562 c 0
 287.631835938 120.833984375 296.723632812 133.500976562 302.98046875 150.500976562 c 0
 309.23828125 167.500976562 316.5234375 194.000976562 324.834960938 230.000976562 c 0
 332.9921875 265.334960938 337.572265625 291.66796875 338.573242188 309.000976562 c 0
 339.575195312 326.333984375 335.448242188 339.500976562 326.192382812 348.500976562 c 0
 316.9375 357.500976562 300.309570312 362.000976562 276.309570312 362.000976562 c 2
 253.309570312 362.000976562 l 1
 277.088867188 465.000976562 l 1
 308.088867188 465.000976562 l 2
 330.088867188 465.000976562 347.153320312 470.333984375 359.283203125 481.000976562 c 0
 371.412109375 491.66796875 379.939453125 507.66796875 384.864257812 529.000976562 c 0
 390.09765625 551.66796875 387.240234375 568.16796875 376.29296875 578.500976562 c 0
 365.344726562 588.833984375 345.87109375 594.000976562 317.87109375 594.000976562 c 0
 287.87109375 594.000976562 264.293945312 587.16796875 247.138671875 573.500976562 c 0
 229.983398438 559.833984375 218.01953125 538.333984375 211.247070312 509.000976562 c 2
 93.7353515625 0.0009765625 l 1
 -30.2646484375 0.0009765625 l 1
 84.7080078125 498.000976562 l 2
 99.9453125 564.000976562 128.194335938 614.16796875 169.453125 648.500976562 c 0
 210.712890625 682.833984375 268.008789062 700.000976562 341.341796875 700.000976562 c 0
 406.674804688 700.000976562 454.033203125 685.66796875 483.415039062 657.000976562 c 0
 512.796875 628.333984375 521.407226562 587.666992188 509.249023438 535 c 0
 503.091796875 508.333007812 493.3203125 485.5 479.934570312 466.5 c 0
 466.547851562 447.5 448.315429688 431.333007812 425.237304688 418 c 1
 442.108398438 407.333007812 453.478515625 394.5 459.34765625 379.5 c 0
 465.217773438 364.5 466.998046875 345.5 464.688476562 322.5 c 0
 462.377929688 299.5 456.60546875 268 447.37109375 228 c 0
 433.518554688 168 418.02734375 121.833007812 400.895507812 89.5 c 0
 383.763671875 57.1669921875 360.466796875 33.5 331.00390625 18.5 c 0
 301.541015625 3.5 261.142578125 -4 209.809570312 -4 c 2
 168.809570312 -4 l 1
 192.8203125 100 l 1
EndSplineSet
EndChar

StartChar: agrave
Encoding: 224 224 161
Width: 501
GlyphClass: 2
Flags: MW
HStem: -6.00098 100<91.6792 185.765> 221.999 85.001<200.608 200.982 200.982 290.982> 431 95<249.836 283.903>
AnchorPoint: "Anchor-0" 277 520 basechar 0
LayerCount: 2
Fore
SplineSet
420.434570312 479.5 m 0
 448.610351562 448.5 455.693359375 402.666015625 441.686523438 341.999023438 c 2
 362.729492188 -0.0009765625 l 1
 242.729492188 -0.0009765625 l 1
 253.119140625 44.9990234375 l 1
 231.630859375 26.9990234375 210.795898438 13.9990234375 190.616210938 5.9990234375 c 0
 170.436523438 -2.0009765625 146.345703125 -6.0009765625 118.345703125 -6.0009765625 c 0
 65.0126953125 -6.0009765625 26.98828125 8.33203125 4.2744140625 36.9990234375 c 0
 -18.4404296875 65.666015625 -23.9501953125 105.333007812 -12.251953125 156 c 0
 -1.478515625 202.666992188 22.6923828125 239.5 60.2587890625 266.5 c 0
 97.8251953125 293.5 144.608398438 307 200.608398438 307 c 2
 310.608398438 307 l 1
 320.07421875 348 l 2
 332.848632812 403.333007812 311.569335938 431 256.236328125 431 c 0
 232.903320312 431 213.056640625 425.166992188 196.696289062 413.5 c 0
 180.3359375 401.833007812 169.923828125 386.333007812 165.4609375 367 c 2
 164.768554688 364 l 1
 49.7685546875 364 l 1
 50.69140625 368 l 2
 61.927734375 416.666992188 88.1484375 455.166992188 129.356445312 483.5 c 0
 170.565429688 511.833007812 220.502929688 526 279.169921875 526 c 0
 345.169921875 526 392.258789062 510.5 420.434570312 479.5 c 0
245.125976562 116.499023438 m 0
 262.921875 131.499023438 275.360351562 154.33203125 282.440429688 184.999023438 c 2
 290.982421875 221.999023438 l 1
 200.982421875 221.999023438 l 2
 148.982421875 221.999023438 118.134765625 200.999023438 108.438476562 158.999023438 c 0
 98.43359375 115.666015625 118.764648438 93.9990234375 169.431640625 93.9990234375 c 0
 202.098632812 93.9990234375 227.330078125 101.499023438 245.125976562 116.499023438 c 0
165.185546875 720.999023438 m 1
 302.185546875 720.999023438 l 1
 379.48046875 587.999023438 l 1
 272.48046875 587.999023438 l 1
 165.185546875 720.999023438 l 1
EndSplineSet
EndChar

StartChar: aacute
Encoding: 225 225 162
Width: 501
GlyphClass: 2
Flags: MW
HStem: -6.00098 100<91.6792 185.765> 221.999 85.001<200.608 200.982 200.982 290.982> 431 95<249.836 283.903>
AnchorPoint: "Anchor-0" 277 520 basechar 0
LayerCount: 2
Fore
SplineSet
420.434570312 479.5 m 0
 448.610351562 448.5 455.693359375 402.666015625 441.686523438 341.999023438 c 2
 362.729492188 -0.0009765625 l 1
 242.729492188 -0.0009765625 l 1
 253.119140625 44.9990234375 l 1
 231.630859375 26.9990234375 210.795898438 13.9990234375 190.616210938 5.9990234375 c 0
 170.436523438 -2.0009765625 146.345703125 -6.0009765625 118.345703125 -6.0009765625 c 0
 65.0126953125 -6.0009765625 26.98828125 8.33203125 4.2744140625 36.9990234375 c 0
 -18.4404296875 65.666015625 -23.9501953125 105.333007812 -12.251953125 156 c 0
 -1.478515625 202.666992188 22.6923828125 239.5 60.2587890625 266.5 c 0
 97.8251953125 293.5 144.608398438 307 200.608398438 307 c 2
 310.608398438 307 l 1
 320.07421875 348 l 2
 332.848632812 403.333007812 311.569335938 431 256.236328125 431 c 0
 232.903320312 431 213.056640625 425.166992188 196.696289062 413.5 c 0
 180.3359375 401.833007812 169.923828125 386.333007812 165.4609375 367 c 2
 164.768554688 364 l 1
 49.7685546875 364 l 1
 50.69140625 368 l 2
 61.927734375 416.666992188 88.1484375 455.166992188 129.356445312 483.5 c 0
 170.565429688 511.833007812 220.502929688 526 279.169921875 526 c 0
 345.169921875 526 392.258789062 510.5 420.434570312 479.5 c 0
245.125976562 116.499023438 m 0
 262.921875 131.499023438 275.360351562 154.33203125 282.440429688 184.999023438 c 2
 290.982421875 221.999023438 l 1
 200.982421875 221.999023438 l 2
 148.982421875 221.999023438 118.134765625 200.999023438 108.438476562 158.999023438 c 0
 98.43359375 115.666015625 118.764648438 93.9990234375 169.431640625 93.9990234375 c 0
 202.098632812 93.9990234375 227.330078125 101.499023438 245.125976562 116.499023438 c 0
339.185546875 720.999023438 m 1
 476.185546875 720.999023438 l 1
 307.48046875 587.999023438 l 1
 200.48046875 587.999023438 l 1
 339.185546875 720.999023438 l 1
EndSplineSet
EndChar

StartChar: acircumflex
Encoding: 226 226 163
Width: 501
GlyphClass: 2
Flags: MW
HStem: -6.00098 100<91.6792 185.765> 221.999 85.001<200.608 200.982 200.982 290.982> 431 95<249.836 283.903>
AnchorPoint: "Anchor-0" 277 520 basechar 0
LayerCount: 2
Fore
SplineSet
420.434570312 479.5 m 0
 448.610351562 448.5 455.693359375 402.666015625 441.686523438 341.999023438 c 2
 362.729492188 -0.0009765625 l 1
 242.729492188 -0.0009765625 l 1
 253.119140625 44.9990234375 l 1
 231.630859375 26.9990234375 210.795898438 13.9990234375 190.616210938 5.9990234375 c 0
 170.436523438 -2.0009765625 146.345703125 -6.0009765625 118.345703125 -6.0009765625 c 0
 65.0126953125 -6.0009765625 26.98828125 8.33203125 4.2744140625 36.9990234375 c 0
 -18.4404296875 65.666015625 -23.9501953125 105.333007812 -12.251953125 156 c 0
 -1.478515625 202.666992188 22.6923828125 239.5 60.2587890625 266.5 c 0
 97.8251953125 293.5 144.608398438 307 200.608398438 307 c 2
 310.608398438 307 l 1
 320.07421875 348 l 2
 332.848632812 403.333007812 311.569335938 431 256.236328125 431 c 0
 232.903320312 431 213.056640625 425.166992188 196.696289062 413.5 c 0
 180.3359375 401.833007812 169.923828125 386.333007812 165.4609375 367 c 2
 164.768554688 364 l 1
 49.7685546875 364 l 1
 50.69140625 368 l 2
 61.927734375 416.666992188 88.1484375 455.166992188 129.356445312 483.5 c 0
 170.565429688 511.833007812 220.502929688 526 279.169921875 526 c 0
 345.169921875 526 392.258789062 510.5 420.434570312 479.5 c 0
245.125976562 116.499023438 m 0
 262.921875 131.499023438 275.360351562 154.33203125 282.440429688 184.999023438 c 2
 290.982421875 221.999023438 l 1
 200.982421875 221.999023438 l 2
 148.982421875 221.999023438 118.134765625 200.999023438 108.438476562 158.999023438 c 0
 98.43359375 115.666015625 118.764648438 93.9990234375 169.431640625 93.9990234375 c 0
 202.098632812 93.9990234375 227.330078125 101.499023438 245.125976562 116.499023438 c 0
279.801757812 727.999023438 m 1
 370.801757812 727.999023438 l 1
 450.940429688 576.999023438 l 1
 353.940429688 576.999023438 l 1
 308.948242188 654.999023438 l 1
 227.940429688 576.999023438 l 1
 129.940429688 576.999023438 l 1
 279.801757812 727.999023438 l 1
EndSplineSet
EndChar

StartChar: atilde
Encoding: 227 227 164
Width: 501
GlyphClass: 2
Flags: MW
HStem: -6.00098 100<91.6792 185.765> 221.999 85.001<200.608 200.982 200.982 290.982> 431 95<249.836 283.903> 583 94<345.993 385.695> 620.999 94.001<229.432 268.467>
AnchorPoint: "Anchor-0" 277 520 basechar 0
LayerCount: 2
Fore
SplineSet
420.434570312 479.5 m 0xe0
 448.610351562 448.5 455.693359375 402.666015625 441.686523438 341.999023438 c 2
 362.729492188 -0.0009765625 l 1
 242.729492188 -0.0009765625 l 1
 253.119140625 44.9990234375 l 1
 231.630859375 26.9990234375 210.795898438 13.9990234375 190.616210938 5.9990234375 c 0
 170.436523438 -2.0009765625 146.345703125 -6.0009765625 118.345703125 -6.0009765625 c 0
 65.0126953125 -6.0009765625 26.98828125 8.33203125 4.2744140625 36.9990234375 c 0
 -18.4404296875 65.666015625 -23.9501953125 105.333007812 -12.251953125 156 c 0
 -1.478515625 202.666992188 22.6923828125 239.5 60.2587890625 266.5 c 0
 97.8251953125 293.5 144.608398438 307 200.608398438 307 c 2
 310.608398438 307 l 1
 320.07421875 348 l 2
 332.848632812 403.333007812 311.569335938 431 256.236328125 431 c 0
 232.903320312 431 213.056640625 425.166992188 196.696289062 413.5 c 0
 180.3359375 401.833007812 169.923828125 386.333007812 165.4609375 367 c 2
 164.768554688 364 l 1
 49.7685546875 364 l 1
 50.69140625 368 l 2
 61.927734375 416.666992188 88.1484375 455.166992188 129.356445312 483.5 c 0
 170.565429688 511.833007812 220.502929688 526 279.169921875 526 c 0
 345.169921875 526 392.258789062 510.5 420.434570312 479.5 c 0xe0
245.125976562 116.499023438 m 0
 262.921875 131.499023438 275.360351562 154.33203125 282.440429688 184.999023438 c 2
 290.982421875 221.999023438 l 1
 200.982421875 221.999023438 l 2
 148.982421875 221.999023438 118.134765625 200.999023438 108.438476562 158.999023438 c 0
 98.43359375 115.666015625 118.764648438 93.9990234375 169.431640625 93.9990234375 c 0
 202.098632812 93.9990234375 227.330078125 101.499023438 245.125976562 116.499023438 c 0
170.873046875 671.999023438 m 1
 189.74609375 687.33203125 205.786132812 698.333007812 218.9921875 705 c 0
 232.198242188 711.666992188 246.467773438 715 261.80078125 715 c 0xe8
 275.133789062 715 286.416015625 713.333007812 295.646484375 710 c 0
 304.876953125 706.666015625 315.645507812 701.333007812 327.953125 694 c 0
 346.669921875 682.666992188 363.6953125 677 379.028320312 677 c 0
 392.361328125 677 404.643554688 679.666992188 415.875 685 c 0
 427.106445312 690.333007812 443.235351562 701 464.262695312 717 c 1
 443.25390625 626 l 1
 424.380859375 610.666992188 408.340820312 599.666992188 395.134765625 593 c 0
 381.928710938 586.333007812 367.659179688 583 352.326171875 583 c 0xf0
 339.659179688 583 328.7109375 584.666992188 319.48046875 588 c 0
 310.25 591.333007812 299.481445312 596.666015625 287.174804688 603.999023438 c 0
 268.45703125 615.33203125 251.431640625 620.999023438 236.098632812 620.999023438 c 0xe8
 222.765625 620.999023438 210.483398438 618.33203125 199.251953125 612.999023438 c 0
 188.01953125 607.661132812 171.633789062 597.328125 150.095703125 581.999023438 c 1
 170.873046875 671.999023438 l 1
EndSplineSet
EndChar

StartChar: adieresis
Encoding: 228 228 165
Width: 501
GlyphClass: 2
Flags: MW
HStem: -6.00098 100<91.6792 185.765> 221.999 85.001<200.608 200.982 200.982 290.982> 431 95<249.836 283.903> 586.999 116<170.03 250.25 143.25 277.03 170.03 335.25 362.03 442.25>
AnchorPoint: "Anchor-0" 277 520 basechar 0
LayerCount: 2
Fore
SplineSet
420.434570312 479.5 m 0
 448.610351562 448.5 455.693359375 402.666015625 441.686523438 341.999023438 c 2
 362.729492188 -0.0009765625 l 1
 242.729492188 -0.0009765625 l 1
 253.119140625 44.9990234375 l 1
 231.630859375 26.9990234375 210.795898438 13.9990234375 190.616210938 5.9990234375 c 0
 170.436523438 -2.0009765625 146.345703125 -6.0009765625 118.345703125 -6.0009765625 c 0
 65.0126953125 -6.0009765625 26.98828125 8.33203125 4.2744140625 36.9990234375 c 0
 -18.4404296875 65.666015625 -23.9501953125 105.333007812 -12.251953125 156 c 0
 -1.478515625 202.666992188 22.6923828125 239.5 60.2587890625 266.5 c 0
 97.8251953125 293.5 144.608398438 307 200.608398438 307 c 2
 310.608398438 307 l 1
 320.07421875 348 l 2
 332.848632812 403.333007812 311.569335938 431 256.236328125 431 c 0
 232.903320312 431 213.056640625 425.166992188 196.696289062 413.5 c 0
 180.3359375 401.833007812 169.923828125 386.333007812 165.4609375 367 c 2
 164.768554688 364 l 1
 49.7685546875 364 l 1
 50.69140625 368 l 2
 61.927734375 416.666992188 88.1484375 455.166992188 129.356445312 483.5 c 0
 170.565429688 511.833007812 220.502929688 526 279.169921875 526 c 0
 345.169921875 526 392.258789062 510.5 420.434570312 479.5 c 0
245.125976562 116.499023438 m 0
 262.921875 131.499023438 275.360351562 154.33203125 282.440429688 184.999023438 c 2
 290.982421875 221.999023438 l 1
 200.982421875 221.999023438 l 2
 148.982421875 221.999023438 118.134765625 200.999023438 108.438476562 158.999023438 c 0
 98.43359375 115.666015625 118.764648438 93.9990234375 169.431640625 93.9990234375 c 0
 202.098632812 93.9990234375 227.330078125 101.499023438 245.125976562 116.499023438 c 0
170.030273438 702.999023438 m 1
 277.030273438 702.999023438 l 1
 250.25 586.999023438 l 1
 143.25 586.999023438 l 1
 170.030273438 702.999023438 l 1
362.030273438 702.999023438 m 1
 469.030273438 702.999023438 l 1
 442.25 586.999023438 l 1
 335.25 586.999023438 l 1
 362.030273438 702.999023438 l 1
EndSplineSet
EndChar

StartChar: aring
Encoding: 229 229 166
Width: 501
GlyphClass: 2
Flags: MW
HStem: -6.00098 100<91.6792 185.765> 221.999 85.001<200.608 200.982 200.982 290.982> 431 95<249.836 283.903> 546.999 55<290.379 298.681> 698.999 55<317.138 325.773>
AnchorPoint: "Anchor-0" 277 520 basechar 0
LayerCount: 2
Fore
SplineSet
420.434570312 479.5 m 0
 448.610351562 448.5 455.693359375 402.666015625 441.686523438 341.999023438 c 2
 362.729492188 -0.0009765625 l 1
 242.729492188 -0.0009765625 l 1
 253.119140625 44.9990234375 l 1
 231.630859375 26.9990234375 210.795898438 13.9990234375 190.616210938 5.9990234375 c 0
 170.436523438 -2.0009765625 146.345703125 -6.0009765625 118.345703125 -6.0009765625 c 0
 65.0126953125 -6.0009765625 26.98828125 8.33203125 4.2744140625 36.9990234375 c 0
 -18.4404296875 65.666015625 -23.9501953125 105.333007812 -12.251953125 156 c 0
 -1.478515625 202.666992188 22.6923828125 239.5 60.2587890625 266.5 c 0
 97.8251953125 293.5 144.608398438 307 200.608398438 307 c 2
 310.608398438 307 l 1
 320.07421875 348 l 2
 332.848632812 403.333007812 311.569335938 431 256.236328125 431 c 0
 232.903320312 431 213.056640625 425.166992188 196.696289062 413.5 c 0
 180.3359375 401.833007812 169.923828125 386.333007812 165.4609375 367 c 2
 164.768554688 364 l 1
 49.7685546875 364 l 1
 50.69140625 368 l 2
 61.927734375 416.666992188 88.1484375 455.166992188 129.356445312 483.5 c 0
 170.565429688 511.833007812 220.502929688 526 279.169921875 526 c 0
 345.169921875 526 392.258789062 510.5 420.434570312 479.5 c 0
245.125976562 116.499023438 m 0
 262.921875 131.499023438 275.360351562 154.33203125 282.440429688 184.999023438 c 2
 290.982421875 221.999023438 l 1
 200.982421875 221.999023438 l 2
 148.982421875 221.999023438 118.134765625 200.999023438 108.438476562 158.999023438 c 0
 98.43359375 115.666015625 118.764648438 93.9990234375 169.431640625 93.9990234375 c 0
 202.098632812 93.9990234375 227.330078125 101.499023438 245.125976562 116.499023438 c 0
217.325195312 576.499023438 m 0
 202.19921875 596.166015625 198.022460938 620.666015625 204.793945312 649.999023438 c 0
 211.720703125 679.999023438 227.286132812 704.83203125 251.494140625 724.499023438 c 0
 275.701171875 744.166015625 302.471679688 753.999023438 331.8046875 753.999023438 c 0
 361.137695312 753.999023438 383.3671875 744.166015625 398.494140625 724.499023438 c 0
 413.620117188 704.83203125 417.720703125 679.999023438 410.793945312 649.999023438 c 0
 404.022460938 620.666015625 388.533203125 596.166015625 364.325195312 576.499023438 c 0
 340.118164062 556.83203125 313.34765625 546.999023438 284.014648438 546.999023438 c 0
 254.681640625 546.999023438 232.452148438 556.83203125 217.325195312 576.499023438 c 0
333.444335938 615.999023438 m 0
 344.599609375 625.33203125 351.715820312 636.666015625 354.793945312 649.999023438 c 0
 358.026367188 663.999023438 356.219726562 675.666015625 349.375 684.999023438 c 0
 342.529296875 694.33203125 332.439453125 698.999023438 319.106445312 698.999023438 c 0
 305.7734375 698.999023438 293.696289062 694.33203125 282.875 684.999023438 c 0
 272.052734375 675.666015625 265.026367188 663.999023438 261.793945312 649.999023438 c 0
 258.715820312 636.663085938 260.598632812 625.330078125 267.444335938 615.999023438 c 0
 274.290039062 606.666015625 284.045898438 601.999023438 296.712890625 601.999023438 c 0
 310.045898438 601.999023438 322.290039062 606.666015625 333.444335938 615.999023438 c 0
EndSplineSet
EndChar

StartChar: ae
Encoding: 230 230 167
Width: 795
GlyphClass: 2
Flags: MW
HStem: -6.00098 100.001<144.1 153.68> 223 85<433.84 613.84 433.84 717.217 414.217 613.84> 420 105.999<545.836 580.363> 430.999 95<249.835 283.902>
LayerCount: 2
Fore
SplineSet
410.984375 209 m 2xe0
 402.057617188 170.333007812 404.168945312 142.666015625 417.321289062 125.999023438 c 0
 430.473632812 109.33203125 453.049804688 100.999023438 485.049804688 100.999023438 c 0
 509.049804688 100.999023438 529.409179688 106.166015625 546.127929688 116.499023438 c 0
 562.846679688 126.83203125 574.361328125 141.33203125 580.670898438 159.999023438 c 2
 581.36328125 162.999023438 l 1
 699.36328125 162.999023438 l 1
 698.208984375 157.999023438 l 2
 691.283203125 127.999023438 677.434570312 100.499023438 656.662109375 75.4990234375 c 0
 635.890625 50.4990234375 609.14453125 30.666015625 576.42578125 15.9990234375 c 0
 543.70703125 1.33203125 506.346679688 -6.0009765625 464.346679688 -6.0009765625 c 0
 395.013671875 -6.0009765625 345.1953125 14.9990234375 314.891601562 56.9990234375 c 1
 290.94140625 36.9990234375 263.862304688 21.4990234375 233.65625 10.4990234375 c 0
 203.44921875 -0.5009765625 171.012695312 -6.0009765625 136.346679688 -6.0009765625 c 0
 79.6796875 -6.0009765625 37.8603515625 8.4990234375 10.888671875 37.4990234375 c 0
 -16.0830078125 66.4990234375 -23.796875 105.999023438 -12.25390625 155.999023438 c 0
 -1.4794921875 202.666015625 22.6904296875 239.499023438 60.2568359375 266.499023438 c 0
 97.82421875 293.499023438 144.607421875 306.999023438 200.607421875 306.999023438 c 2
 310.607421875 306.999023438 l 1
 320.073242188 347.999023438 l 2
 332.84765625 403.33203125 311.568359375 430.999023438 256.235351562 430.999023438 c 0
 232.90234375 430.999023438 213.055664062 425.166015625 196.6953125 413.499023438 c 0
 180.333984375 401.83203125 169.922851562 386.33203125 165.459960938 366.999023438 c 2
 164.766601562 363.999023438 l 1
 49.7666015625 363.999023438 l 1
 50.6904296875 367.999023438 l 2
 61.92578125 416.666015625 88.1474609375 455.166015625 129.35546875 483.499023438 c 0
 170.563476562 511.83203125 220.501953125 525.999023438 279.168945312 525.999023438 c 0xd0
 343.8359375 525.999023438 390.654296875 509.33203125 419.625976562 475.999023438 c 1
 464.654296875 509.33203125 516.502929688 525.999023438 575.169921875 525.999023438 c 0
 639.836914062 525.999023438 686.795898438 506.33203125 716.047851562 466.999023438 c 0
 745.30078125 427.666015625 751 369.333007812 733.146484375 292 c 2
 717.216796875 223 l 1
 414.216796875 223 l 1
 410.984375 209 l 2xe0
477.424804688 395 m 0
 457.91015625 378.333007812 443.61328125 350.333007812 434.532226562 311 c 2
 433.83984375 308 l 1
 613.83984375 308 l 1
 616.840820312 321 l 2
 632.078125 387 610.029296875 420 550.696289062 420 c 0xe0
 521.36328125 420 496.939453125 411.666992188 477.424804688 395 c 0
283.596679688 190 m 2
 290.985351562 222 l 1
 200.985351562 222 l 2
 148.985351562 222 118.13671875 201 108.440429688 159 c 0
 98.435546875 115.666992188 118.766601562 94 169.43359375 94 c 0
 230.766601562 94 268.821289062 126 283.596679688 190 c 2
EndSplineSet
EndChar

StartChar: ccedilla
Encoding: 231 231 168
Width: 505
GlyphClass: 2
Flags: MW
HStem: -155.999 21G<37.7178 151.718 37.7178 37.7178> 416.003 109.997<260.503 282.775>
LayerCount: 2
Fore
SplineSet
334.150390625 331 m 1
 335.536132812 337.002929688 l 2
 341.231445312 361.669921875 338.194335938 381.002929688 326.426757812 395.002929688 c 0
 314.659179688 409.002929688 295.775390625 416.002929688 269.775390625 416.002929688 c 0
 209.775390625 416.002929688 171.38671875 379.669921875 154.610351562 307.002929688 c 2
 132.909179688 213.002929688 l 2
 123.828125 173.669921875 125.196289062 145.669921875 137.015625 129.002929688 c 0
 148.834960938 112.3359375 169.078125 104.002929688 197.744140625 104.002929688 c 0
 223.744140625 104.002929688 245.783203125 110.669921875 263.861328125 124.002929688 c 0
 281.939453125 137.3359375 293.749023438 156.002929688 299.290039062 180.002929688 c 2
 300.674804688 186.002929688 l 1
 418.674804688 186.002929688 l 1
 417.059570312 179.002929688 l 2
 406.28515625 132.3359375 385.19140625 93.6689453125 353.778320312 63.001953125 c 0
 322.365234375 32.3349609375 283.426757812 11.66796875 236.963867188 1.0009765625 c 1
 151.717773438 -155.999023438 l 1
 37.7177734375 -155.999023438 l 1
 134.809570312 -3.9990234375 l 1
 81.5283203125 2.0009765625 43.466796875 22.66796875 20.6240234375 58.0009765625 c 0
 -2.21875 93.333984375 -5.8681640625 144.666992188 9.6767578125 212 c 2
 32.0712890625 309 l 2
 49.1552734375 383 80.609375 437.666992188 126.43359375 473 c 0
 172.2578125 508.333007812 227.836914062 526 293.169921875 526 c 0
 357.169921875 526 403.399414062 509.666992188 431.857421875 477 c 0
 460.315429688 444.333007812 467.849609375 399 454.458984375 341 c 2
 452.150390625 331 l 1
 334.150390625 331 l 1
EndSplineSet
EndChar

StartChar: egrave
Encoding: 232 232 169
Width: 517
GlyphClass: 2
Flags: MW
HStem: -6.00098 107<191.051 209.014> 223 85<135.217 334.841 154.841 334.841 154.841 439.217> 420 105.999<262.836 301.364>
AnchorPoint: "Anchor-0" 293 520 basechar 0
LayerCount: 2
Fore
SplineSet
135.216796875 223 m 1
 131.984375 209 l 2
 123.057617188 170.333007812 125.336914062 142.666015625 138.822265625 125.999023438 c 0
 152.307617188 109.33203125 175.05078125 100.999023438 207.05078125 100.999023438 c 0
 231.717773438 100.999023438 252.243164062 106.166015625 268.62890625 116.499023438 c 0
 285.014648438 126.83203125 296.029296875 141.33203125 301.671875 159.999023438 c 1
 303.364257812 162.999023438 l 1
 421.364257812 162.999023438 l 1
 420.209960938 157.999023438 l 2
 408.8203125 108.666015625 381.330078125 68.9990234375 337.736328125 38.9990234375 c 0
 294.143554688 8.9990234375 240.680664062 -6.0009765625 177.34765625 -6.0009765625 c 0
 110.680664062 -6.0009765625 62.10546875 13.166015625 31.623046875 51.4990234375 c 0
 1.1396484375 89.83203125 -4.8681640625 148.999023438 13.6015625 228.999023438 c 2
 28.146484375 291.999023438 l 2
 46.154296875 369.999023438 78.66015625 428.499023438 125.6640625 467.499023438 c 0
 172.66796875 506.499023438 229.502929688 525.999023438 296.169921875 525.999023438 c 0
 361.50390625 525.999023438 408.795898438 506.33203125 438.047851562 466.999023438 c 0
 467.30078125 427.666015625 473 369.333007812 455.146484375 292 c 2
 439.216796875 223 l 1
 135.216796875 223 l 1
198.42578125 395 m 0
 178.911132812 378.333007812 164.614257812 350.333007812 155.533203125 311 c 2
 154.840820312 308 l 1
 334.840820312 308 l 1
 337.841796875 321 l 2
 353.079101562 387 331.030273438 420 271.697265625 420 c 0
 242.364257812 420 217.940429688 411.666992188 198.42578125 395 c 0
181.189453125 721 m 1
 318.189453125 721 l 1
 395.483398438 588 l 1
 288.483398438 588 l 1
 181.189453125 721 l 1
EndSplineSet
EndChar

StartChar: eacute
Encoding: 233 233 170
Width: 517
GlyphClass: 2
Flags: MW
HStem: -6.00098 107<191.051 209.014> 223 85<135.217 334.841 154.841 334.841 154.841 439.217> 420 105.999<262.836 301.364>
AnchorPoint: "Anchor-0" 293 520 basechar 0
LayerCount: 2
Fore
SplineSet
135.216796875 223 m 1
 131.984375 209 l 2
 123.057617188 170.333007812 125.336914062 142.666015625 138.822265625 125.999023438 c 0
 152.307617188 109.33203125 175.05078125 100.999023438 207.05078125 100.999023438 c 0
 231.717773438 100.999023438 252.243164062 106.166015625 268.62890625 116.499023438 c 0
 285.014648438 126.83203125 296.029296875 141.33203125 301.671875 159.999023438 c 1
 303.364257812 162.999023438 l 1
 421.364257812 162.999023438 l 1
 420.209960938 157.999023438 l 2
 408.8203125 108.666015625 381.330078125 68.9990234375 337.736328125 38.9990234375 c 0
 294.143554688 8.9990234375 240.680664062 -6.0009765625 177.34765625 -6.0009765625 c 0
 110.680664062 -6.0009765625 62.10546875 13.166015625 31.623046875 51.4990234375 c 0
 1.1396484375 89.83203125 -4.8681640625 148.999023438 13.6015625 228.999023438 c 2
 28.146484375 291.999023438 l 2
 46.154296875 369.999023438 78.66015625 428.499023438 125.6640625 467.499023438 c 0
 172.66796875 506.499023438 229.502929688 525.999023438 296.169921875 525.999023438 c 0
 361.50390625 525.999023438 408.795898438 506.33203125 438.047851562 466.999023438 c 0
 467.30078125 427.666015625 473 369.333007812 455.146484375 292 c 2
 439.216796875 223 l 1
 135.216796875 223 l 1
198.42578125 395 m 0
 178.911132812 378.333007812 164.614257812 350.333007812 155.533203125 311 c 2
 154.840820312 308 l 1
 334.840820312 308 l 1
 337.841796875 321 l 2
 353.079101562 387 331.030273438 420 271.697265625 420 c 0
 242.364257812 420 217.940429688 411.666992188 198.42578125 395 c 0
355.189453125 721 m 1
 492.189453125 721 l 1
 323.483398438 588 l 1
 216.483398438 588 l 1
 355.189453125 721 l 1
EndSplineSet
EndChar

